%TF.GenerationSoftware,KiCad,Pcbnew,10.0.1*%
%TF.CreationDate,2026-06-01T14:02:53+02:00*%
%TF.ProjectId,lora,6c6f7261-2e6b-4696-9361-645f70636258,rev?*%
%TF.SameCoordinates,Original*%
%TF.FileFunction,Legend,Top*%
%TF.FilePolarity,Positive*%
%FSLAX46Y46*%
G04 Gerber Fmt 4.6, Leading zero omitted, Abs format (unit mm)*
G04 Created by KiCad (PCBNEW 10.0.1) date 2026-06-01 14:02:53*
%MOMM*%
%LPD*%
G01*
G04 APERTURE LIST*
%ADD10C,0.150000*%
%ADD11C,0.120000*%
%ADD12C,0.127000*%
%ADD13C,0.300000*%
G04 APERTURE END LIST*
D10*
X138374819Y-60366666D02*
X137898628Y-60699999D01*
X138374819Y-60938094D02*
X137374819Y-60938094D01*
X137374819Y-60938094D02*
X137374819Y-60557142D01*
X137374819Y-60557142D02*
X137422438Y-60461904D01*
X137422438Y-60461904D02*
X137470057Y-60414285D01*
X137470057Y-60414285D02*
X137565295Y-60366666D01*
X137565295Y-60366666D02*
X137708152Y-60366666D01*
X137708152Y-60366666D02*
X137803390Y-60414285D01*
X137803390Y-60414285D02*
X137851009Y-60461904D01*
X137851009Y-60461904D02*
X137898628Y-60557142D01*
X137898628Y-60557142D02*
X137898628Y-60938094D01*
X137374819Y-60033332D02*
X137374819Y-59414285D01*
X137374819Y-59414285D02*
X137755771Y-59747618D01*
X137755771Y-59747618D02*
X137755771Y-59604761D01*
X137755771Y-59604761D02*
X137803390Y-59509523D01*
X137803390Y-59509523D02*
X137851009Y-59461904D01*
X137851009Y-59461904D02*
X137946247Y-59414285D01*
X137946247Y-59414285D02*
X138184342Y-59414285D01*
X138184342Y-59414285D02*
X138279580Y-59461904D01*
X138279580Y-59461904D02*
X138327200Y-59509523D01*
X138327200Y-59509523D02*
X138374819Y-59604761D01*
X138374819Y-59604761D02*
X138374819Y-59890475D01*
X138374819Y-59890475D02*
X138327200Y-59985713D01*
X138327200Y-59985713D02*
X138279580Y-60033332D01*
X136304819Y-75641904D02*
X137114342Y-75641904D01*
X137114342Y-75641904D02*
X137209580Y-75594285D01*
X137209580Y-75594285D02*
X137257200Y-75546666D01*
X137257200Y-75546666D02*
X137304819Y-75451428D01*
X137304819Y-75451428D02*
X137304819Y-75260952D01*
X137304819Y-75260952D02*
X137257200Y-75165714D01*
X137257200Y-75165714D02*
X137209580Y-75118095D01*
X137209580Y-75118095D02*
X137114342Y-75070476D01*
X137114342Y-75070476D02*
X136304819Y-75070476D01*
X137304819Y-74070476D02*
X137304819Y-74641904D01*
X137304819Y-74356190D02*
X136304819Y-74356190D01*
X136304819Y-74356190D02*
X136447676Y-74451428D01*
X136447676Y-74451428D02*
X136542914Y-74546666D01*
X136542914Y-74546666D02*
X136590533Y-74641904D01*
X139246666Y-76209819D02*
X139246666Y-76924104D01*
X139246666Y-76924104D02*
X139199047Y-77066961D01*
X139199047Y-77066961D02*
X139103809Y-77162200D01*
X139103809Y-77162200D02*
X138960952Y-77209819D01*
X138960952Y-77209819D02*
X138865714Y-77209819D01*
X140246666Y-77209819D02*
X139675238Y-77209819D01*
X139960952Y-77209819D02*
X139960952Y-76209819D01*
X139960952Y-76209819D02*
X139865714Y-76352676D01*
X139865714Y-76352676D02*
X139770476Y-76447914D01*
X139770476Y-76447914D02*
X139675238Y-76495533D01*
X131953333Y-60649580D02*
X131905714Y-60697200D01*
X131905714Y-60697200D02*
X131762857Y-60744819D01*
X131762857Y-60744819D02*
X131667619Y-60744819D01*
X131667619Y-60744819D02*
X131524762Y-60697200D01*
X131524762Y-60697200D02*
X131429524Y-60601961D01*
X131429524Y-60601961D02*
X131381905Y-60506723D01*
X131381905Y-60506723D02*
X131334286Y-60316247D01*
X131334286Y-60316247D02*
X131334286Y-60173390D01*
X131334286Y-60173390D02*
X131381905Y-59982914D01*
X131381905Y-59982914D02*
X131429524Y-59887676D01*
X131429524Y-59887676D02*
X131524762Y-59792438D01*
X131524762Y-59792438D02*
X131667619Y-59744819D01*
X131667619Y-59744819D02*
X131762857Y-59744819D01*
X131762857Y-59744819D02*
X131905714Y-59792438D01*
X131905714Y-59792438D02*
X131953333Y-59840057D01*
X132858095Y-59744819D02*
X132381905Y-59744819D01*
X132381905Y-59744819D02*
X132334286Y-60221009D01*
X132334286Y-60221009D02*
X132381905Y-60173390D01*
X132381905Y-60173390D02*
X132477143Y-60125771D01*
X132477143Y-60125771D02*
X132715238Y-60125771D01*
X132715238Y-60125771D02*
X132810476Y-60173390D01*
X132810476Y-60173390D02*
X132858095Y-60221009D01*
X132858095Y-60221009D02*
X132905714Y-60316247D01*
X132905714Y-60316247D02*
X132905714Y-60554342D01*
X132905714Y-60554342D02*
X132858095Y-60649580D01*
X132858095Y-60649580D02*
X132810476Y-60697200D01*
X132810476Y-60697200D02*
X132715238Y-60744819D01*
X132715238Y-60744819D02*
X132477143Y-60744819D01*
X132477143Y-60744819D02*
X132381905Y-60697200D01*
X132381905Y-60697200D02*
X132334286Y-60649580D01*
X154034819Y-78206666D02*
X153558628Y-78539999D01*
X154034819Y-78778094D02*
X153034819Y-78778094D01*
X153034819Y-78778094D02*
X153034819Y-78397142D01*
X153034819Y-78397142D02*
X153082438Y-78301904D01*
X153082438Y-78301904D02*
X153130057Y-78254285D01*
X153130057Y-78254285D02*
X153225295Y-78206666D01*
X153225295Y-78206666D02*
X153368152Y-78206666D01*
X153368152Y-78206666D02*
X153463390Y-78254285D01*
X153463390Y-78254285D02*
X153511009Y-78301904D01*
X153511009Y-78301904D02*
X153558628Y-78397142D01*
X153558628Y-78397142D02*
X153558628Y-78778094D01*
X153368152Y-77349523D02*
X154034819Y-77349523D01*
X152987200Y-77587618D02*
X153701485Y-77825713D01*
X153701485Y-77825713D02*
X153701485Y-77206666D01*
X176166667Y-60110700D02*
X176309524Y-60158319D01*
X176309524Y-60158319D02*
X176547619Y-60158319D01*
X176547619Y-60158319D02*
X176642857Y-60110700D01*
X176642857Y-60110700D02*
X176690476Y-60063080D01*
X176690476Y-60063080D02*
X176738095Y-59967842D01*
X176738095Y-59967842D02*
X176738095Y-59872604D01*
X176738095Y-59872604D02*
X176690476Y-59777366D01*
X176690476Y-59777366D02*
X176642857Y-59729747D01*
X176642857Y-59729747D02*
X176547619Y-59682128D01*
X176547619Y-59682128D02*
X176357143Y-59634509D01*
X176357143Y-59634509D02*
X176261905Y-59586890D01*
X176261905Y-59586890D02*
X176214286Y-59539271D01*
X176214286Y-59539271D02*
X176166667Y-59444033D01*
X176166667Y-59444033D02*
X176166667Y-59348795D01*
X176166667Y-59348795D02*
X176214286Y-59253557D01*
X176214286Y-59253557D02*
X176261905Y-59205938D01*
X176261905Y-59205938D02*
X176357143Y-59158319D01*
X176357143Y-59158319D02*
X176595238Y-59158319D01*
X176595238Y-59158319D02*
X176738095Y-59205938D01*
X177071429Y-59158319D02*
X177309524Y-60158319D01*
X177309524Y-60158319D02*
X177500000Y-59444033D01*
X177500000Y-59444033D02*
X177690476Y-60158319D01*
X177690476Y-60158319D02*
X177928572Y-59158319D01*
X178833333Y-60158319D02*
X178261905Y-60158319D01*
X178547619Y-60158319D02*
X178547619Y-59158319D01*
X178547619Y-59158319D02*
X178452381Y-59301176D01*
X178452381Y-59301176D02*
X178357143Y-59396414D01*
X178357143Y-59396414D02*
X178261905Y-59444033D01*
X176166667Y-79875700D02*
X176309524Y-79923319D01*
X176309524Y-79923319D02*
X176547619Y-79923319D01*
X176547619Y-79923319D02*
X176642857Y-79875700D01*
X176642857Y-79875700D02*
X176690476Y-79828080D01*
X176690476Y-79828080D02*
X176738095Y-79732842D01*
X176738095Y-79732842D02*
X176738095Y-79637604D01*
X176738095Y-79637604D02*
X176690476Y-79542366D01*
X176690476Y-79542366D02*
X176642857Y-79494747D01*
X176642857Y-79494747D02*
X176547619Y-79447128D01*
X176547619Y-79447128D02*
X176357143Y-79399509D01*
X176357143Y-79399509D02*
X176261905Y-79351890D01*
X176261905Y-79351890D02*
X176214286Y-79304271D01*
X176214286Y-79304271D02*
X176166667Y-79209033D01*
X176166667Y-79209033D02*
X176166667Y-79113795D01*
X176166667Y-79113795D02*
X176214286Y-79018557D01*
X176214286Y-79018557D02*
X176261905Y-78970938D01*
X176261905Y-78970938D02*
X176357143Y-78923319D01*
X176357143Y-78923319D02*
X176595238Y-78923319D01*
X176595238Y-78923319D02*
X176738095Y-78970938D01*
X177071429Y-78923319D02*
X177309524Y-79923319D01*
X177309524Y-79923319D02*
X177500000Y-79209033D01*
X177500000Y-79209033D02*
X177690476Y-79923319D01*
X177690476Y-79923319D02*
X177928572Y-78923319D01*
X178261905Y-79018557D02*
X178309524Y-78970938D01*
X178309524Y-78970938D02*
X178404762Y-78923319D01*
X178404762Y-78923319D02*
X178642857Y-78923319D01*
X178642857Y-78923319D02*
X178738095Y-78970938D01*
X178738095Y-78970938D02*
X178785714Y-79018557D01*
X178785714Y-79018557D02*
X178833333Y-79113795D01*
X178833333Y-79113795D02*
X178833333Y-79209033D01*
X178833333Y-79209033D02*
X178785714Y-79351890D01*
X178785714Y-79351890D02*
X178214286Y-79923319D01*
X178214286Y-79923319D02*
X178833333Y-79923319D01*
X148838095Y-76554819D02*
X148838095Y-77364342D01*
X148838095Y-77364342D02*
X148885714Y-77459580D01*
X148885714Y-77459580D02*
X148933333Y-77507200D01*
X148933333Y-77507200D02*
X149028571Y-77554819D01*
X149028571Y-77554819D02*
X149219047Y-77554819D01*
X149219047Y-77554819D02*
X149314285Y-77507200D01*
X149314285Y-77507200D02*
X149361904Y-77459580D01*
X149361904Y-77459580D02*
X149409523Y-77364342D01*
X149409523Y-77364342D02*
X149409523Y-76554819D01*
X149838095Y-76650057D02*
X149885714Y-76602438D01*
X149885714Y-76602438D02*
X149980952Y-76554819D01*
X149980952Y-76554819D02*
X150219047Y-76554819D01*
X150219047Y-76554819D02*
X150314285Y-76602438D01*
X150314285Y-76602438D02*
X150361904Y-76650057D01*
X150361904Y-76650057D02*
X150409523Y-76745295D01*
X150409523Y-76745295D02*
X150409523Y-76840533D01*
X150409523Y-76840533D02*
X150361904Y-76983390D01*
X150361904Y-76983390D02*
X149790476Y-77554819D01*
X149790476Y-77554819D02*
X150409523Y-77554819D01*
X136663333Y-76004819D02*
X136330000Y-75528628D01*
X136091905Y-76004819D02*
X136091905Y-75004819D01*
X136091905Y-75004819D02*
X136472857Y-75004819D01*
X136472857Y-75004819D02*
X136568095Y-75052438D01*
X136568095Y-75052438D02*
X136615714Y-75100057D01*
X136615714Y-75100057D02*
X136663333Y-75195295D01*
X136663333Y-75195295D02*
X136663333Y-75338152D01*
X136663333Y-75338152D02*
X136615714Y-75433390D01*
X136615714Y-75433390D02*
X136568095Y-75481009D01*
X136568095Y-75481009D02*
X136472857Y-75528628D01*
X136472857Y-75528628D02*
X136091905Y-75528628D01*
X137615714Y-76004819D02*
X137044286Y-76004819D01*
X137330000Y-76004819D02*
X137330000Y-75004819D01*
X137330000Y-75004819D02*
X137234762Y-75147676D01*
X137234762Y-75147676D02*
X137139524Y-75242914D01*
X137139524Y-75242914D02*
X137044286Y-75290533D01*
X151263333Y-86099580D02*
X151215714Y-86147200D01*
X151215714Y-86147200D02*
X151072857Y-86194819D01*
X151072857Y-86194819D02*
X150977619Y-86194819D01*
X150977619Y-86194819D02*
X150834762Y-86147200D01*
X150834762Y-86147200D02*
X150739524Y-86051961D01*
X150739524Y-86051961D02*
X150691905Y-85956723D01*
X150691905Y-85956723D02*
X150644286Y-85766247D01*
X150644286Y-85766247D02*
X150644286Y-85623390D01*
X150644286Y-85623390D02*
X150691905Y-85432914D01*
X150691905Y-85432914D02*
X150739524Y-85337676D01*
X150739524Y-85337676D02*
X150834762Y-85242438D01*
X150834762Y-85242438D02*
X150977619Y-85194819D01*
X150977619Y-85194819D02*
X151072857Y-85194819D01*
X151072857Y-85194819D02*
X151215714Y-85242438D01*
X151215714Y-85242438D02*
X151263333Y-85290057D01*
X151596667Y-85194819D02*
X152263333Y-85194819D01*
X152263333Y-85194819D02*
X151834762Y-86194819D01*
X131953333Y-79169580D02*
X131905714Y-79217200D01*
X131905714Y-79217200D02*
X131762857Y-79264819D01*
X131762857Y-79264819D02*
X131667619Y-79264819D01*
X131667619Y-79264819D02*
X131524762Y-79217200D01*
X131524762Y-79217200D02*
X131429524Y-79121961D01*
X131429524Y-79121961D02*
X131381905Y-79026723D01*
X131381905Y-79026723D02*
X131334286Y-78836247D01*
X131334286Y-78836247D02*
X131334286Y-78693390D01*
X131334286Y-78693390D02*
X131381905Y-78502914D01*
X131381905Y-78502914D02*
X131429524Y-78407676D01*
X131429524Y-78407676D02*
X131524762Y-78312438D01*
X131524762Y-78312438D02*
X131667619Y-78264819D01*
X131667619Y-78264819D02*
X131762857Y-78264819D01*
X131762857Y-78264819D02*
X131905714Y-78312438D01*
X131905714Y-78312438D02*
X131953333Y-78360057D01*
X132334286Y-78360057D02*
X132381905Y-78312438D01*
X132381905Y-78312438D02*
X132477143Y-78264819D01*
X132477143Y-78264819D02*
X132715238Y-78264819D01*
X132715238Y-78264819D02*
X132810476Y-78312438D01*
X132810476Y-78312438D02*
X132858095Y-78360057D01*
X132858095Y-78360057D02*
X132905714Y-78455295D01*
X132905714Y-78455295D02*
X132905714Y-78550533D01*
X132905714Y-78550533D02*
X132858095Y-78693390D01*
X132858095Y-78693390D02*
X132286667Y-79264819D01*
X132286667Y-79264819D02*
X132905714Y-79264819D01*
X147853333Y-88419580D02*
X147805714Y-88467200D01*
X147805714Y-88467200D02*
X147662857Y-88514819D01*
X147662857Y-88514819D02*
X147567619Y-88514819D01*
X147567619Y-88514819D02*
X147424762Y-88467200D01*
X147424762Y-88467200D02*
X147329524Y-88371961D01*
X147329524Y-88371961D02*
X147281905Y-88276723D01*
X147281905Y-88276723D02*
X147234286Y-88086247D01*
X147234286Y-88086247D02*
X147234286Y-87943390D01*
X147234286Y-87943390D02*
X147281905Y-87752914D01*
X147281905Y-87752914D02*
X147329524Y-87657676D01*
X147329524Y-87657676D02*
X147424762Y-87562438D01*
X147424762Y-87562438D02*
X147567619Y-87514819D01*
X147567619Y-87514819D02*
X147662857Y-87514819D01*
X147662857Y-87514819D02*
X147805714Y-87562438D01*
X147805714Y-87562438D02*
X147853333Y-87610057D01*
X148710476Y-87514819D02*
X148520000Y-87514819D01*
X148520000Y-87514819D02*
X148424762Y-87562438D01*
X148424762Y-87562438D02*
X148377143Y-87610057D01*
X148377143Y-87610057D02*
X148281905Y-87752914D01*
X148281905Y-87752914D02*
X148234286Y-87943390D01*
X148234286Y-87943390D02*
X148234286Y-88324342D01*
X148234286Y-88324342D02*
X148281905Y-88419580D01*
X148281905Y-88419580D02*
X148329524Y-88467200D01*
X148329524Y-88467200D02*
X148424762Y-88514819D01*
X148424762Y-88514819D02*
X148615238Y-88514819D01*
X148615238Y-88514819D02*
X148710476Y-88467200D01*
X148710476Y-88467200D02*
X148758095Y-88419580D01*
X148758095Y-88419580D02*
X148805714Y-88324342D01*
X148805714Y-88324342D02*
X148805714Y-88086247D01*
X148805714Y-88086247D02*
X148758095Y-87991009D01*
X148758095Y-87991009D02*
X148710476Y-87943390D01*
X148710476Y-87943390D02*
X148615238Y-87895771D01*
X148615238Y-87895771D02*
X148424762Y-87895771D01*
X148424762Y-87895771D02*
X148329524Y-87943390D01*
X148329524Y-87943390D02*
X148281905Y-87991009D01*
X148281905Y-87991009D02*
X148234286Y-88086247D01*
X133342095Y-60421819D02*
X133342095Y-61231342D01*
X133342095Y-61231342D02*
X133389714Y-61326580D01*
X133389714Y-61326580D02*
X133437333Y-61374200D01*
X133437333Y-61374200D02*
X133532571Y-61421819D01*
X133532571Y-61421819D02*
X133723047Y-61421819D01*
X133723047Y-61421819D02*
X133818285Y-61374200D01*
X133818285Y-61374200D02*
X133865904Y-61326580D01*
X133865904Y-61326580D02*
X133913523Y-61231342D01*
X133913523Y-61231342D02*
X133913523Y-60421819D01*
X134294476Y-60421819D02*
X134913523Y-60421819D01*
X134913523Y-60421819D02*
X134580190Y-60802771D01*
X134580190Y-60802771D02*
X134723047Y-60802771D01*
X134723047Y-60802771D02*
X134818285Y-60850390D01*
X134818285Y-60850390D02*
X134865904Y-60898009D01*
X134865904Y-60898009D02*
X134913523Y-60993247D01*
X134913523Y-60993247D02*
X134913523Y-61231342D01*
X134913523Y-61231342D02*
X134865904Y-61326580D01*
X134865904Y-61326580D02*
X134818285Y-61374200D01*
X134818285Y-61374200D02*
X134723047Y-61421819D01*
X134723047Y-61421819D02*
X134437333Y-61421819D01*
X134437333Y-61421819D02*
X134342095Y-61374200D01*
X134342095Y-61374200D02*
X134294476Y-61326580D01*
X145733333Y-76904819D02*
X145400000Y-76428628D01*
X145161905Y-76904819D02*
X145161905Y-75904819D01*
X145161905Y-75904819D02*
X145542857Y-75904819D01*
X145542857Y-75904819D02*
X145638095Y-75952438D01*
X145638095Y-75952438D02*
X145685714Y-76000057D01*
X145685714Y-76000057D02*
X145733333Y-76095295D01*
X145733333Y-76095295D02*
X145733333Y-76238152D01*
X145733333Y-76238152D02*
X145685714Y-76333390D01*
X145685714Y-76333390D02*
X145638095Y-76381009D01*
X145638095Y-76381009D02*
X145542857Y-76428628D01*
X145542857Y-76428628D02*
X145161905Y-76428628D01*
X146114286Y-76000057D02*
X146161905Y-75952438D01*
X146161905Y-75952438D02*
X146257143Y-75904819D01*
X146257143Y-75904819D02*
X146495238Y-75904819D01*
X146495238Y-75904819D02*
X146590476Y-75952438D01*
X146590476Y-75952438D02*
X146638095Y-76000057D01*
X146638095Y-76000057D02*
X146685714Y-76095295D01*
X146685714Y-76095295D02*
X146685714Y-76190533D01*
X146685714Y-76190533D02*
X146638095Y-76333390D01*
X146638095Y-76333390D02*
X146066667Y-76904819D01*
X146066667Y-76904819D02*
X146685714Y-76904819D01*
%TO.C,R3*%
D11*
X136370000Y-60046359D02*
X136370000Y-60353641D01*
X137130000Y-60046359D02*
X137130000Y-60353641D01*
%TO.C,L1*%
X130295000Y-69200000D02*
X136895000Y-69200000D01*
X130295000Y-70900000D02*
X130295000Y-69200000D01*
X130295000Y-75600000D02*
X130295000Y-73900000D01*
X136895000Y-69200000D02*
X136895000Y-70900000D01*
X136895000Y-73900000D02*
X136895000Y-75600000D01*
X136895000Y-75600000D02*
X130295000Y-75600000D01*
%TO.C,U1*%
X138150000Y-50580000D02*
X138150000Y-56780000D01*
X138150000Y-50580000D02*
X156550000Y-50580000D01*
X138150000Y-75430000D02*
X138150000Y-76430000D01*
X138150000Y-76430000D02*
X139650000Y-76430000D01*
X156550000Y-50580000D02*
X156550000Y-56780000D01*
X156550000Y-76430000D02*
X155050000Y-76430000D01*
X156550000Y-76430000D02*
X156550000Y-75430000D01*
X138150000Y-57455000D02*
X137650000Y-57455000D01*
X138150000Y-56955000D01*
X138150000Y-57455000D01*
G36*
X138150000Y-57455000D02*
G01*
X137650000Y-57455000D01*
X138150000Y-56955000D01*
X138150000Y-57455000D01*
G37*
%TO.C,J1*%
X134880000Y-80500000D02*
X134880000Y-82500000D01*
X134880000Y-84400000D02*
X134880000Y-86300000D01*
X134880000Y-86300000D02*
X144280000Y-86300000D01*
X144280000Y-80500000D02*
X144280000Y-82500000D01*
X144280000Y-84400000D02*
X144280000Y-86300000D01*
%TO.C,C5*%
X132012164Y-61090000D02*
X132227836Y-61090000D01*
X132012164Y-61810000D02*
X132227836Y-61810000D01*
%TO.C,R4*%
X154370000Y-78193641D02*
X154370000Y-77886359D01*
X155130000Y-78193641D02*
X155130000Y-77886359D01*
%TO.C,SW1*%
X170515000Y-60592500D02*
X184485000Y-60592500D01*
X170515000Y-74562500D02*
X170515000Y-60592500D01*
X184485000Y-60592500D02*
X184485000Y-74562500D01*
X184485000Y-74562500D02*
X170515000Y-74562500D01*
%TO.C,SW2*%
X170515000Y-80357500D02*
X184485000Y-80357500D01*
X170515000Y-94327500D02*
X170515000Y-80357500D01*
X184485000Y-80357500D02*
X184485000Y-94327500D01*
X184485000Y-94327500D02*
X170515000Y-94327500D01*
%TO.C,C4*%
X132982836Y-67690000D02*
X132767164Y-67690000D01*
X132982836Y-68410000D02*
X132767164Y-68410000D01*
%TO.C,U2*%
X147750000Y-78190000D02*
X151510000Y-78190000D01*
X147750000Y-85010000D02*
X151510000Y-85010000D01*
X151510000Y-78190000D02*
X151510000Y-79450000D01*
X151510000Y-85010000D02*
X151510000Y-83750000D01*
X146470000Y-78290000D02*
X146230000Y-77960000D01*
X146710000Y-77960000D01*
X146470000Y-78290000D01*
G36*
X146470000Y-78290000D02*
G01*
X146230000Y-77960000D01*
X146710000Y-77960000D01*
X146470000Y-78290000D01*
G37*
%TO.C,C7*%
X151322164Y-86540000D02*
X151537836Y-86540000D01*
X151322164Y-87260000D02*
X151537836Y-87260000D01*
%TO.C,C1*%
X130440000Y-67657836D02*
X130440000Y-67442164D01*
X131160000Y-67657836D02*
X131160000Y-67442164D01*
%TO.C,C3*%
X134957164Y-67840000D02*
X135172836Y-67840000D01*
X134957164Y-68560000D02*
X135172836Y-68560000D01*
%TO.C,C2*%
X132227836Y-77290000D02*
X132012164Y-77290000D01*
X132227836Y-78010000D02*
X132012164Y-78010000D01*
%TO.C,C6*%
X148127836Y-86540000D02*
X147912164Y-86540000D01*
X148127836Y-87260000D02*
X147912164Y-87260000D01*
%TO.C,U3*%
D12*
X131800000Y-62600000D02*
X131800000Y-62960000D01*
X131800000Y-66700000D02*
X131800000Y-66340000D01*
X132160000Y-62600000D02*
X131800000Y-62600000D01*
X132160000Y-66700000D02*
X131800000Y-66700000D01*
X135540000Y-66700000D02*
X135900000Y-66700000D01*
X135900000Y-62600000D02*
X135540000Y-62600000D01*
X135900000Y-62960000D02*
X135900000Y-62600000D01*
X135900000Y-66700000D02*
X135900000Y-66340000D01*
D13*
X131055000Y-63400000D02*
G75*
G02*
X130955000Y-63400000I-50000J0D01*
G01*
X130955000Y-63400000D02*
G75*
G02*
X131055000Y-63400000I50000J0D01*
G01*
%TD*%
M02*
