%TF.GenerationSoftware,KiCad,Pcbnew,10.0.1*%
%TF.CreationDate,2026-06-01T14:02:53+02:00*%
%TF.ProjectId,lora,6c6f7261-2e6b-4696-9361-645f70636258,rev?*%
%TF.SameCoordinates,Original*%
%TF.FileFunction,Copper,L2,Bot*%
%TF.FilePolarity,Positive*%
%FSLAX46Y46*%
G04 Gerber Fmt 4.6, Leading zero omitted, Abs format (unit mm)*
G04 Created by KiCad (PCBNEW 10.0.1) date 2026-06-01 14:02:53*
%MOMM*%
%LPD*%
G01*
G04 APERTURE LIST*
%TA.AperFunction,HeatsinkPad*%
%ADD10C,0.600000*%
%TD*%
%TA.AperFunction,ComponentPad*%
%ADD11O,1.000000X2.100000*%
%TD*%
%TA.AperFunction,ComponentPad*%
%ADD12O,1.000000X1.600000*%
%TD*%
%TA.AperFunction,ComponentPad*%
%ADD13C,2.200000*%
%TD*%
%TA.AperFunction,ViaPad*%
%ADD14C,0.600000*%
%TD*%
%TA.AperFunction,Conductor*%
%ADD15C,0.200000*%
%TD*%
G04 APERTURE END LIST*
D10*
%TO.P,U1,41,GND_41*%
%TO.N,+3V3*%
X144450000Y-65240000D03*
X144450000Y-66640000D03*
X145150000Y-64540000D03*
X145150000Y-65940000D03*
X145150000Y-67340000D03*
X145850000Y-65240000D03*
X145850000Y-66640000D03*
X146550000Y-64540000D03*
X146550000Y-65940000D03*
X146550000Y-67340000D03*
X147250000Y-65240000D03*
X147250000Y-66640000D03*
%TD*%
D11*
%TO.P,J1,SH,SHIELD_SH*%
%TO.N,unconnected-(J1-SHIELD-PadSH)*%
X135260000Y-79270000D03*
D12*
X135260000Y-83450000D03*
D11*
X143900000Y-79270000D03*
D12*
X143900000Y-83450000D03*
%TD*%
D13*
%TO.P,SW1,1,1_1*%
%TO.N,+3V3*%
X180040000Y-62497500D03*
%TO.P,SW1,2,2_2*%
X173690000Y-65037500D03*
%TD*%
%TO.P,SW2,1,1_1*%
%TO.N,+3V3*%
X180040000Y-82262500D03*
%TO.P,SW2,2,2_2*%
X173690000Y-84802500D03*
%TD*%
D14*
%TO.N,*%
X129700000Y-86100000D03*
X129050000Y-63600000D03*
X141150000Y-58550000D03*
X160600000Y-59150000D03*
X194950000Y-66550000D03*
X194500000Y-85700000D03*
X193500000Y-94500000D03*
X143150000Y-90400000D03*
X155200000Y-91450000D03*
%TO.N,+3V3*%
X134576481Y-67541530D03*
X133355000Y-68050000D03*
%TO.N,BUSY*%
X136950000Y-67150000D03*
X138600000Y-62030000D03*
%TO.N,NSS*%
X135344265Y-61944265D03*
X139950000Y-72050000D03*
%TO.N,minus*%
X138600000Y-73460000D03*
X138848749Y-79875000D03*
%TO.N,plus*%
X138200000Y-75600000D03*
X139600000Y-79600000D03*
%TO.N,DIO1*%
X135800000Y-66550000D03*
X140800000Y-66000000D03*
%TO.N,Net-(J1-CC1)*%
X138112188Y-79562777D03*
X137240000Y-76624884D03*
%TO.N,Net-(J1-CC2)*%
X146700000Y-77400000D03*
X141400000Y-79650000D03*
%TO.N,Net-(U3-VREG)*%
X132233529Y-66530000D03*
X132395000Y-68050000D03*
%TD*%
%TO.N,*%
D15*
X129050000Y-63650000D02*
X129050000Y-63600000D01*
X160600000Y-59150000D02*
X160550000Y-59150000D01*
X193500000Y-94500000D02*
X193500000Y-94450000D01*
%TO.N,+3V3*%
X134576481Y-67541530D02*
X133863470Y-67541530D01*
X133863470Y-67541530D02*
X133355000Y-68050000D01*
%TO.N,BUSY*%
X141400000Y-66248529D02*
X141400000Y-64830000D01*
X140498529Y-67150000D02*
X141400000Y-66248529D01*
X141400000Y-64830000D02*
X138600000Y-62030000D01*
X136950000Y-67150000D02*
X140498529Y-67150000D01*
%TO.N,NSS*%
X135200000Y-67300000D02*
X139950000Y-72050000D01*
X135344265Y-61944265D02*
X135200000Y-62088530D01*
X135200000Y-62088530D02*
X135200000Y-67300000D01*
%TO.N,minus*%
X140200000Y-75060000D02*
X138600000Y-73460000D01*
X140200000Y-79848529D02*
X140200000Y-75060000D01*
X139173749Y-80200000D02*
X139848529Y-80200000D01*
X139848529Y-80200000D02*
X140200000Y-79848529D01*
X138848749Y-79875000D02*
X139173749Y-80200000D01*
%TO.N,plus*%
X138200000Y-78264352D02*
X138200000Y-75600000D01*
X139535648Y-79600000D02*
X138200000Y-78264352D01*
X139600000Y-79600000D02*
X139535648Y-79600000D01*
%TO.N,DIO1*%
X140800000Y-66000000D02*
X140250000Y-66550000D01*
X140250000Y-66550000D02*
X135800000Y-66550000D01*
%TO.N,Net-(J1-CC1)*%
X137240000Y-78690589D02*
X137240000Y-76624884D01*
X138112188Y-79562777D02*
X137240000Y-78690589D01*
%TO.N,Net-(J1-CC2)*%
X143650000Y-77400000D02*
X141400000Y-79650000D01*
X146700000Y-77400000D02*
X143650000Y-77400000D01*
%TO.N,Net-(U3-VREG)*%
X132233529Y-66530000D02*
X132233529Y-67888529D01*
X132233529Y-67888529D02*
X132395000Y-68050000D01*
%TD*%
%TA.AperFunction,NonConductor*%
G36*
X140489689Y-57870185D02*
G01*
X140535444Y-57922989D01*
X140545388Y-57992147D01*
X140525752Y-58043391D01*
X140440609Y-58170814D01*
X140440602Y-58170827D01*
X140380264Y-58316498D01*
X140380261Y-58316510D01*
X140349500Y-58471153D01*
X140349500Y-58628846D01*
X140380261Y-58783489D01*
X140380264Y-58783501D01*
X140440602Y-58929172D01*
X140440609Y-58929185D01*
X140528210Y-59060288D01*
X140528213Y-59060292D01*
X140639707Y-59171786D01*
X140639711Y-59171789D01*
X140770814Y-59259390D01*
X140770827Y-59259397D01*
X140916498Y-59319735D01*
X140916503Y-59319737D01*
X141071153Y-59350499D01*
X141071156Y-59350500D01*
X141071158Y-59350500D01*
X141228844Y-59350500D01*
X141228845Y-59350499D01*
X141383497Y-59319737D01*
X141529179Y-59259394D01*
X141660289Y-59171789D01*
X141760925Y-59071153D01*
X159799500Y-59071153D01*
X159799500Y-59228846D01*
X159830261Y-59383489D01*
X159830264Y-59383501D01*
X159890602Y-59529172D01*
X159890609Y-59529185D01*
X159978210Y-59660288D01*
X159978213Y-59660292D01*
X160089707Y-59771786D01*
X160089711Y-59771789D01*
X160220814Y-59859390D01*
X160220827Y-59859397D01*
X160366498Y-59919735D01*
X160366503Y-59919737D01*
X160521153Y-59950499D01*
X160521156Y-59950500D01*
X160521158Y-59950500D01*
X160678844Y-59950500D01*
X160678845Y-59950499D01*
X160833497Y-59919737D01*
X160979179Y-59859394D01*
X161110289Y-59771789D01*
X161221789Y-59660289D01*
X161309394Y-59529179D01*
X161369737Y-59383497D01*
X161400500Y-59228842D01*
X161400500Y-59071158D01*
X161400500Y-59071155D01*
X161400499Y-59071153D01*
X161382703Y-58981688D01*
X161369737Y-58916503D01*
X161369735Y-58916498D01*
X161309397Y-58770827D01*
X161309390Y-58770814D01*
X161221789Y-58639711D01*
X161221786Y-58639707D01*
X161110292Y-58528213D01*
X161110288Y-58528210D01*
X160979185Y-58440609D01*
X160979172Y-58440602D01*
X160833501Y-58380264D01*
X160833489Y-58380261D01*
X160678845Y-58349500D01*
X160678842Y-58349500D01*
X160521158Y-58349500D01*
X160521155Y-58349500D01*
X160366510Y-58380261D01*
X160366498Y-58380264D01*
X160220827Y-58440602D01*
X160220814Y-58440609D01*
X160089711Y-58528210D01*
X160089707Y-58528213D01*
X159978213Y-58639707D01*
X159978210Y-58639711D01*
X159890609Y-58770814D01*
X159890602Y-58770827D01*
X159830264Y-58916498D01*
X159830261Y-58916510D01*
X159799500Y-59071153D01*
X141760925Y-59071153D01*
X141771789Y-59060289D01*
X141859394Y-58929179D01*
X141919737Y-58783497D01*
X141950500Y-58628842D01*
X141950500Y-58471158D01*
X141950500Y-58471155D01*
X141950499Y-58471153D01*
X141930394Y-58370078D01*
X141919737Y-58316503D01*
X141912813Y-58299786D01*
X141859397Y-58170827D01*
X141859390Y-58170814D01*
X141774248Y-58043391D01*
X141753370Y-57976714D01*
X141771854Y-57909334D01*
X141823833Y-57862643D01*
X141877350Y-57850500D01*
X190590093Y-57850500D01*
X190657132Y-57870185D01*
X190696421Y-57910702D01*
X191032692Y-58471153D01*
X193131744Y-61969574D01*
X193149397Y-62035475D01*
X192551276Y-97274820D01*
X192530457Y-97341516D01*
X192482748Y-97383625D01*
X191794785Y-97727606D01*
X191753215Y-97739917D01*
X191390318Y-97780806D01*
X191381071Y-97781499D01*
X190902325Y-97799413D01*
X190897688Y-97799500D01*
X190523818Y-97799500D01*
X190456779Y-97779815D01*
X190411024Y-97727011D01*
X190401080Y-97657853D01*
X190430105Y-97594297D01*
X190461818Y-97568113D01*
X190652994Y-97457738D01*
X190887042Y-97278146D01*
X191095646Y-97069542D01*
X191275238Y-96835494D01*
X191422743Y-96580007D01*
X191535639Y-96307452D01*
X191611993Y-96022493D01*
X191650500Y-95730006D01*
X191650500Y-95434994D01*
X191611993Y-95142507D01*
X191535639Y-94857548D01*
X191422743Y-94584993D01*
X191275238Y-94329506D01*
X191095646Y-94095458D01*
X191095641Y-94095452D01*
X190887047Y-93886858D01*
X190887040Y-93886852D01*
X190652993Y-93707261D01*
X190397510Y-93559758D01*
X190397500Y-93559754D01*
X190124961Y-93446864D01*
X190124954Y-93446862D01*
X190124952Y-93446861D01*
X189839993Y-93370507D01*
X189791113Y-93364071D01*
X189547513Y-93332000D01*
X189547506Y-93332000D01*
X189252494Y-93332000D01*
X189252486Y-93332000D01*
X188974085Y-93368653D01*
X188960007Y-93370507D01*
X188675048Y-93446861D01*
X188675038Y-93446864D01*
X188402499Y-93559754D01*
X188402489Y-93559758D01*
X188147006Y-93707261D01*
X187912959Y-93886852D01*
X187912952Y-93886858D01*
X187704358Y-94095452D01*
X187704352Y-94095459D01*
X187524761Y-94329506D01*
X187377258Y-94584989D01*
X187377254Y-94584999D01*
X187264364Y-94857538D01*
X187264361Y-94857548D01*
X187193559Y-95121789D01*
X187188008Y-95142504D01*
X187188006Y-95142515D01*
X187149500Y-95434986D01*
X187149500Y-95730013D01*
X187181571Y-95973613D01*
X187188007Y-96022493D01*
X187188008Y-96022495D01*
X187264361Y-96307451D01*
X187264364Y-96307461D01*
X187377254Y-96580000D01*
X187377258Y-96580010D01*
X187524761Y-96835493D01*
X187704352Y-97069540D01*
X187704358Y-97069547D01*
X187912952Y-97278141D01*
X187912959Y-97278147D01*
X188147006Y-97457738D01*
X188338182Y-97568113D01*
X188386397Y-97618680D01*
X188399621Y-97687287D01*
X188373653Y-97752151D01*
X188316739Y-97792680D01*
X188276182Y-97799500D01*
X166723818Y-97799500D01*
X166656779Y-97779815D01*
X166611024Y-97727011D01*
X166601080Y-97657853D01*
X166630105Y-97594297D01*
X166661818Y-97568113D01*
X166852994Y-97457738D01*
X167087042Y-97278146D01*
X167295646Y-97069542D01*
X167475238Y-96835494D01*
X167622743Y-96580007D01*
X167735639Y-96307452D01*
X167811993Y-96022493D01*
X167850500Y-95730006D01*
X167850500Y-95434994D01*
X167811993Y-95142507D01*
X167735639Y-94857548D01*
X167622743Y-94584993D01*
X167475238Y-94329506D01*
X167295646Y-94095458D01*
X167295641Y-94095452D01*
X167087047Y-93886858D01*
X167087040Y-93886852D01*
X166852993Y-93707261D01*
X166597510Y-93559758D01*
X166597500Y-93559754D01*
X166324961Y-93446864D01*
X166324954Y-93446862D01*
X166324952Y-93446861D01*
X166039993Y-93370507D01*
X165991113Y-93364071D01*
X165747513Y-93332000D01*
X165747506Y-93332000D01*
X165452494Y-93332000D01*
X165452486Y-93332000D01*
X165174085Y-93368653D01*
X165160007Y-93370507D01*
X164875048Y-93446861D01*
X164875038Y-93446864D01*
X164602499Y-93559754D01*
X164602489Y-93559758D01*
X164347006Y-93707261D01*
X164112959Y-93886852D01*
X164112952Y-93886858D01*
X163904358Y-94095452D01*
X163904352Y-94095459D01*
X163724761Y-94329506D01*
X163577258Y-94584989D01*
X163577254Y-94584999D01*
X163464364Y-94857538D01*
X163464361Y-94857548D01*
X163393559Y-95121789D01*
X163388008Y-95142504D01*
X163388006Y-95142515D01*
X163349500Y-95434986D01*
X163349500Y-95730013D01*
X163381571Y-95973613D01*
X163388007Y-96022493D01*
X163388008Y-96022495D01*
X163464361Y-96307451D01*
X163464364Y-96307461D01*
X163577254Y-96580000D01*
X163577258Y-96580010D01*
X163724761Y-96835493D01*
X163904352Y-97069540D01*
X163904358Y-97069547D01*
X164112952Y-97278141D01*
X164112959Y-97278147D01*
X164347006Y-97457738D01*
X164538182Y-97568113D01*
X164586397Y-97618680D01*
X164599621Y-97687287D01*
X164573653Y-97752151D01*
X164516739Y-97792680D01*
X164476182Y-97799500D01*
X162972234Y-97799500D01*
X162968180Y-97799434D01*
X162810923Y-97794290D01*
X162802835Y-97793760D01*
X162648286Y-97778553D01*
X162640248Y-97777496D01*
X162485026Y-97751893D01*
X162481037Y-97751168D01*
X158850564Y-97029711D01*
X158847744Y-97029116D01*
X154263630Y-96006878D01*
X132324590Y-91486515D01*
X131764694Y-91371153D01*
X154399500Y-91371153D01*
X154399500Y-91528846D01*
X154430261Y-91683489D01*
X154430264Y-91683501D01*
X154490602Y-91829172D01*
X154490609Y-91829185D01*
X154578210Y-91960288D01*
X154578213Y-91960292D01*
X154689707Y-92071786D01*
X154689711Y-92071789D01*
X154820814Y-92159390D01*
X154820827Y-92159397D01*
X154966498Y-92219735D01*
X154966503Y-92219737D01*
X155121153Y-92250499D01*
X155121156Y-92250500D01*
X155121158Y-92250500D01*
X155278844Y-92250500D01*
X155278845Y-92250499D01*
X155433497Y-92219737D01*
X155579179Y-92159394D01*
X155710289Y-92071789D01*
X155821789Y-91960289D01*
X155909394Y-91829179D01*
X155969737Y-91683497D01*
X156000500Y-91528842D01*
X156000500Y-91371158D01*
X156000500Y-91371155D01*
X156000499Y-91371153D01*
X155969738Y-91216510D01*
X155969737Y-91216503D01*
X155969735Y-91216498D01*
X155909397Y-91070827D01*
X155909390Y-91070814D01*
X155821789Y-90939711D01*
X155821786Y-90939707D01*
X155710292Y-90828213D01*
X155710288Y-90828210D01*
X155579185Y-90740609D01*
X155579172Y-90740602D01*
X155433501Y-90680264D01*
X155433489Y-90680261D01*
X155278845Y-90649500D01*
X155278842Y-90649500D01*
X155121158Y-90649500D01*
X155121155Y-90649500D01*
X154966510Y-90680261D01*
X154966498Y-90680264D01*
X154820827Y-90740602D01*
X154820814Y-90740609D01*
X154689711Y-90828210D01*
X154689707Y-90828213D01*
X154578213Y-90939707D01*
X154578210Y-90939711D01*
X154490609Y-91070814D01*
X154490602Y-91070827D01*
X154430264Y-91216498D01*
X154430261Y-91216510D01*
X154399500Y-91371153D01*
X131764694Y-91371153D01*
X128908597Y-90782677D01*
X128894841Y-90775905D01*
X128882374Y-90774143D01*
X128852638Y-90755131D01*
X128790530Y-90701568D01*
X128752618Y-90642878D01*
X128747532Y-90609851D01*
X128742449Y-90321153D01*
X142349500Y-90321153D01*
X142349500Y-90478846D01*
X142380261Y-90633489D01*
X142380264Y-90633501D01*
X142440602Y-90779172D01*
X142440609Y-90779185D01*
X142528210Y-90910288D01*
X142528213Y-90910292D01*
X142639707Y-91021786D01*
X142639711Y-91021789D01*
X142770814Y-91109390D01*
X142770827Y-91109397D01*
X142916498Y-91169735D01*
X142916503Y-91169737D01*
X143071153Y-91200499D01*
X143071156Y-91200500D01*
X143071158Y-91200500D01*
X143228844Y-91200500D01*
X143228845Y-91200499D01*
X143383497Y-91169737D01*
X143496166Y-91123067D01*
X143529172Y-91109397D01*
X143529172Y-91109396D01*
X143529179Y-91109394D01*
X143660289Y-91021789D01*
X143771789Y-90910289D01*
X143859394Y-90779179D01*
X143919737Y-90633497D01*
X143950500Y-90478842D01*
X143950500Y-90321158D01*
X143950500Y-90321155D01*
X143950499Y-90321153D01*
X143919738Y-90166510D01*
X143919737Y-90166503D01*
X143919735Y-90166498D01*
X143859397Y-90020827D01*
X143859390Y-90020814D01*
X143771789Y-89889711D01*
X143771786Y-89889707D01*
X143660292Y-89778213D01*
X143660288Y-89778210D01*
X143529185Y-89690609D01*
X143529172Y-89690602D01*
X143383501Y-89630264D01*
X143383489Y-89630261D01*
X143228845Y-89599500D01*
X143228842Y-89599500D01*
X143071158Y-89599500D01*
X143071155Y-89599500D01*
X142916510Y-89630261D01*
X142916498Y-89630264D01*
X142770827Y-89690602D01*
X142770814Y-89690609D01*
X142639711Y-89778210D01*
X142639707Y-89778213D01*
X142528213Y-89889707D01*
X142528210Y-89889711D01*
X142440609Y-90020814D01*
X142440602Y-90020827D01*
X142380264Y-90166498D01*
X142380261Y-90166510D01*
X142349500Y-90321153D01*
X128742449Y-90321153D01*
X128688483Y-87255889D01*
X171319500Y-87255889D01*
X171319500Y-87429111D01*
X171346598Y-87600201D01*
X171400127Y-87764945D01*
X171478768Y-87919288D01*
X171580586Y-88059428D01*
X171703072Y-88181914D01*
X171843212Y-88283732D01*
X171997555Y-88362373D01*
X172162299Y-88415902D01*
X172333389Y-88443000D01*
X172333390Y-88443000D01*
X172506610Y-88443000D01*
X172506611Y-88443000D01*
X172677701Y-88415902D01*
X172842445Y-88362373D01*
X172996788Y-88283732D01*
X173136928Y-88181914D01*
X173259414Y-88059428D01*
X173361232Y-87919288D01*
X173439873Y-87764945D01*
X173493402Y-87600201D01*
X173520500Y-87429111D01*
X173520500Y-87255889D01*
X173510854Y-87194986D01*
X175249500Y-87194986D01*
X175249500Y-87490013D01*
X175281571Y-87733613D01*
X175288007Y-87782493D01*
X175362212Y-88059430D01*
X175364361Y-88067451D01*
X175364364Y-88067461D01*
X175477254Y-88340000D01*
X175477258Y-88340010D01*
X175624761Y-88595493D01*
X175804352Y-88829540D01*
X175804358Y-88829547D01*
X176012952Y-89038141D01*
X176012959Y-89038147D01*
X176247006Y-89217738D01*
X176502489Y-89365241D01*
X176502490Y-89365241D01*
X176502493Y-89365243D01*
X176775048Y-89478139D01*
X177060007Y-89554493D01*
X177352494Y-89593000D01*
X177352501Y-89593000D01*
X177647499Y-89593000D01*
X177647506Y-89593000D01*
X177939993Y-89554493D01*
X178224952Y-89478139D01*
X178497507Y-89365243D01*
X178752994Y-89217738D01*
X178987042Y-89038146D01*
X179195646Y-88829542D01*
X179375238Y-88595494D01*
X179522743Y-88340007D01*
X179635639Y-88067452D01*
X179711993Y-87782493D01*
X179750500Y-87490006D01*
X179750500Y-87255889D01*
X181479500Y-87255889D01*
X181479500Y-87429111D01*
X181506598Y-87600201D01*
X181560127Y-87764945D01*
X181638768Y-87919288D01*
X181740586Y-88059428D01*
X181863072Y-88181914D01*
X182003212Y-88283732D01*
X182157555Y-88362373D01*
X182322299Y-88415902D01*
X182493389Y-88443000D01*
X182493390Y-88443000D01*
X182666610Y-88443000D01*
X182666611Y-88443000D01*
X182837701Y-88415902D01*
X183002445Y-88362373D01*
X183156788Y-88283732D01*
X183296928Y-88181914D01*
X183419414Y-88059428D01*
X183521232Y-87919288D01*
X183599873Y-87764945D01*
X183653402Y-87600201D01*
X183680500Y-87429111D01*
X183680500Y-87255889D01*
X183653402Y-87084799D01*
X183599873Y-86920055D01*
X183521232Y-86765712D01*
X183419414Y-86625572D01*
X183296928Y-86503086D01*
X183156788Y-86401268D01*
X183002445Y-86322627D01*
X182837701Y-86269098D01*
X182837699Y-86269097D01*
X182837698Y-86269097D01*
X182706271Y-86248281D01*
X182666611Y-86242000D01*
X182493389Y-86242000D01*
X182453728Y-86248281D01*
X182322302Y-86269097D01*
X182157552Y-86322628D01*
X182003211Y-86401268D01*
X181946289Y-86442625D01*
X181863072Y-86503086D01*
X181863070Y-86503088D01*
X181863069Y-86503088D01*
X181740588Y-86625569D01*
X181740588Y-86625570D01*
X181740586Y-86625572D01*
X181696859Y-86685756D01*
X181638768Y-86765711D01*
X181560128Y-86920052D01*
X181506597Y-87084802D01*
X181479500Y-87255889D01*
X179750500Y-87255889D01*
X179750500Y-87194994D01*
X179711993Y-86902507D01*
X179635639Y-86617548D01*
X179632633Y-86610292D01*
X179578327Y-86479185D01*
X179522743Y-86344993D01*
X179467309Y-86248979D01*
X179375238Y-86089506D01*
X179195647Y-85855459D01*
X179195641Y-85855452D01*
X178987047Y-85646858D01*
X178987040Y-85646852D01*
X178752993Y-85467261D01*
X178497510Y-85319758D01*
X178497500Y-85319754D01*
X178224961Y-85206864D01*
X178224954Y-85206862D01*
X178224952Y-85206861D01*
X177939993Y-85130507D01*
X177891113Y-85124071D01*
X177647513Y-85092000D01*
X177647506Y-85092000D01*
X177352494Y-85092000D01*
X177352486Y-85092000D01*
X177074085Y-85128653D01*
X177060007Y-85130507D01*
X176885428Y-85177285D01*
X176775048Y-85206861D01*
X176775038Y-85206864D01*
X176502499Y-85319754D01*
X176502489Y-85319758D01*
X176247006Y-85467261D01*
X176012959Y-85646852D01*
X176012952Y-85646858D01*
X175804358Y-85855452D01*
X175804352Y-85855459D01*
X175624761Y-86089506D01*
X175477258Y-86344989D01*
X175477254Y-86344999D01*
X175364364Y-86617538D01*
X175364361Y-86617548D01*
X175296788Y-86869738D01*
X175288008Y-86902504D01*
X175288006Y-86902515D01*
X175249500Y-87194986D01*
X173510854Y-87194986D01*
X173493402Y-87084799D01*
X173439873Y-86920055D01*
X173361232Y-86765712D01*
X173259414Y-86625572D01*
X173207482Y-86573640D01*
X173173997Y-86512317D01*
X173178981Y-86442625D01*
X173220853Y-86386692D01*
X173286317Y-86362275D01*
X173314561Y-86363486D01*
X173315212Y-86363589D01*
X173315215Y-86363590D01*
X173564038Y-86403000D01*
X173564039Y-86403000D01*
X173815961Y-86403000D01*
X173815962Y-86403000D01*
X174064785Y-86363590D01*
X174304379Y-86285741D01*
X174528845Y-86171370D01*
X174732656Y-86023293D01*
X174910793Y-85845156D01*
X175058870Y-85641345D01*
X175173241Y-85416879D01*
X175251090Y-85177285D01*
X175290500Y-84928462D01*
X175290500Y-84676538D01*
X175251090Y-84427715D01*
X175173241Y-84188121D01*
X175173239Y-84188118D01*
X175173239Y-84188116D01*
X175131747Y-84106684D01*
X175058870Y-83963655D01*
X174985740Y-83863000D01*
X174910798Y-83759850D01*
X174910794Y-83759845D01*
X174732654Y-83581705D01*
X174732649Y-83581701D01*
X174528848Y-83433632D01*
X174528847Y-83433631D01*
X174528845Y-83433630D01*
X174458747Y-83397913D01*
X174304383Y-83319260D01*
X174064785Y-83241410D01*
X173815962Y-83202000D01*
X173564038Y-83202000D01*
X173439626Y-83221705D01*
X173315214Y-83241410D01*
X173075616Y-83319260D01*
X172851151Y-83433632D01*
X172647350Y-83581701D01*
X172647345Y-83581705D01*
X172469205Y-83759845D01*
X172469201Y-83759850D01*
X172321132Y-83963651D01*
X172206760Y-84188116D01*
X172128910Y-84427714D01*
X172089500Y-84676538D01*
X172089500Y-84928461D01*
X172128910Y-85177285D01*
X172206760Y-85416883D01*
X172321132Y-85641348D01*
X172469201Y-85845149D01*
X172469205Y-85845154D01*
X172469207Y-85845156D01*
X172647344Y-86023293D01*
X172647345Y-86023294D01*
X172647344Y-86023294D01*
X172653661Y-86027883D01*
X172696327Y-86083214D01*
X172702305Y-86152827D01*
X172669699Y-86214622D01*
X172608860Y-86248979D01*
X172561378Y-86250674D01*
X172506611Y-86242000D01*
X172333389Y-86242000D01*
X172293728Y-86248281D01*
X172162302Y-86269097D01*
X171997552Y-86322628D01*
X171843211Y-86401268D01*
X171786289Y-86442625D01*
X171703072Y-86503086D01*
X171703070Y-86503088D01*
X171703069Y-86503088D01*
X171580588Y-86625569D01*
X171580588Y-86625570D01*
X171580586Y-86625572D01*
X171536859Y-86685756D01*
X171478768Y-86765711D01*
X171400128Y-86920052D01*
X171346597Y-87084802D01*
X171319500Y-87255889D01*
X128688483Y-87255889D01*
X128671547Y-86293925D01*
X128690049Y-86226553D01*
X128742039Y-86179876D01*
X128811012Y-86168717D01*
X128875068Y-86196618D01*
X128913872Y-86254722D01*
X128917145Y-86267553D01*
X128930262Y-86333492D01*
X128930264Y-86333501D01*
X128990602Y-86479172D01*
X128990609Y-86479185D01*
X129078210Y-86610288D01*
X129078213Y-86610292D01*
X129189707Y-86721786D01*
X129189711Y-86721789D01*
X129320814Y-86809390D01*
X129320827Y-86809397D01*
X129466498Y-86869735D01*
X129466503Y-86869737D01*
X129621153Y-86900499D01*
X129621156Y-86900500D01*
X129621158Y-86900500D01*
X129778844Y-86900500D01*
X129778845Y-86900499D01*
X129933497Y-86869737D01*
X130079179Y-86809394D01*
X130210289Y-86721789D01*
X130321789Y-86610289D01*
X130409394Y-86479179D01*
X130469737Y-86333497D01*
X130500500Y-86178842D01*
X130500500Y-86021158D01*
X130500500Y-86021155D01*
X130500499Y-86021153D01*
X130486443Y-85950488D01*
X130469737Y-85866503D01*
X130469735Y-85866498D01*
X130409397Y-85720827D01*
X130409390Y-85720814D01*
X130321789Y-85589711D01*
X130321786Y-85589707D01*
X130210292Y-85478213D01*
X130210288Y-85478210D01*
X130079185Y-85390609D01*
X130079172Y-85390602D01*
X129933501Y-85330264D01*
X129933489Y-85330261D01*
X129778845Y-85299500D01*
X129778842Y-85299500D01*
X129621158Y-85299500D01*
X129621155Y-85299500D01*
X129466510Y-85330261D01*
X129466498Y-85330264D01*
X129320827Y-85390602D01*
X129320814Y-85390609D01*
X129189711Y-85478210D01*
X129189707Y-85478213D01*
X129078213Y-85589707D01*
X129078210Y-85589711D01*
X128990609Y-85720814D01*
X128990602Y-85720827D01*
X128930264Y-85866498D01*
X128930261Y-85866508D01*
X128910943Y-85963628D01*
X128878558Y-86025539D01*
X128817842Y-86060113D01*
X128748073Y-86056373D01*
X128691401Y-86015506D01*
X128665820Y-85950488D01*
X128665345Y-85941619D01*
X128664023Y-85866508D01*
X128628495Y-83848543D01*
X134259499Y-83848543D01*
X134297947Y-84041829D01*
X134297950Y-84041839D01*
X134373364Y-84223907D01*
X134373371Y-84223920D01*
X134482860Y-84387781D01*
X134482863Y-84387785D01*
X134622214Y-84527136D01*
X134622218Y-84527139D01*
X134786079Y-84636628D01*
X134786092Y-84636635D01*
X134882428Y-84676538D01*
X134968165Y-84712051D01*
X134968169Y-84712051D01*
X134968170Y-84712052D01*
X135161456Y-84750500D01*
X135161459Y-84750500D01*
X135358543Y-84750500D01*
X135488582Y-84724632D01*
X135551835Y-84712051D01*
X135733914Y-84636632D01*
X135897782Y-84527139D01*
X136037139Y-84387782D01*
X136146632Y-84223914D01*
X136222051Y-84041835D01*
X136260500Y-83848543D01*
X142899499Y-83848543D01*
X142937947Y-84041829D01*
X142937950Y-84041839D01*
X143013364Y-84223907D01*
X143013371Y-84223920D01*
X143122860Y-84387781D01*
X143122863Y-84387785D01*
X143262214Y-84527136D01*
X143262218Y-84527139D01*
X143426079Y-84636628D01*
X143426092Y-84636635D01*
X143522428Y-84676538D01*
X143608165Y-84712051D01*
X143608169Y-84712051D01*
X143608170Y-84712052D01*
X143801456Y-84750500D01*
X143801459Y-84750500D01*
X143998543Y-84750500D01*
X144128582Y-84724632D01*
X144191835Y-84712051D01*
X144373914Y-84636632D01*
X144537782Y-84527139D01*
X144677139Y-84387782D01*
X144786632Y-84223914D01*
X144862051Y-84041835D01*
X144900500Y-83848541D01*
X144900500Y-83051459D01*
X144900500Y-83051456D01*
X144862052Y-82858170D01*
X144862051Y-82858169D01*
X144862051Y-82858165D01*
X144862049Y-82858160D01*
X144786635Y-82676092D01*
X144786628Y-82676079D01*
X144677139Y-82512218D01*
X144677136Y-82512214D01*
X144537785Y-82372863D01*
X144537781Y-82372860D01*
X144373920Y-82263371D01*
X144373907Y-82263364D01*
X144191839Y-82187950D01*
X144191829Y-82187947D01*
X143998543Y-82149500D01*
X143998541Y-82149500D01*
X143801459Y-82149500D01*
X143801457Y-82149500D01*
X143608170Y-82187947D01*
X143608160Y-82187950D01*
X143426092Y-82263364D01*
X143426079Y-82263371D01*
X143262218Y-82372860D01*
X143262214Y-82372863D01*
X143122863Y-82512214D01*
X143122860Y-82512218D01*
X143013371Y-82676079D01*
X143013364Y-82676092D01*
X142937950Y-82858160D01*
X142937947Y-82858170D01*
X142899500Y-83051456D01*
X142899500Y-83051459D01*
X142899500Y-83848541D01*
X142899500Y-83848543D01*
X142899499Y-83848543D01*
X136260500Y-83848543D01*
X136260500Y-83848541D01*
X136260500Y-83051459D01*
X136260500Y-83051456D01*
X136222052Y-82858170D01*
X136222051Y-82858169D01*
X136222051Y-82858165D01*
X136222049Y-82858160D01*
X136146635Y-82676092D01*
X136146628Y-82676079D01*
X136037139Y-82512218D01*
X136037136Y-82512214D01*
X135897785Y-82372863D01*
X135897781Y-82372860D01*
X135733920Y-82263371D01*
X135733907Y-82263364D01*
X135551839Y-82187950D01*
X135551829Y-82187947D01*
X135358543Y-82149500D01*
X135358541Y-82149500D01*
X135161459Y-82149500D01*
X135161457Y-82149500D01*
X134968170Y-82187947D01*
X134968160Y-82187950D01*
X134786092Y-82263364D01*
X134786079Y-82263371D01*
X134622218Y-82372860D01*
X134622214Y-82372863D01*
X134482863Y-82512214D01*
X134482860Y-82512218D01*
X134373371Y-82676079D01*
X134373364Y-82676092D01*
X134297950Y-82858160D01*
X134297947Y-82858170D01*
X134259500Y-83051456D01*
X134259500Y-83051459D01*
X134259500Y-83848541D01*
X134259500Y-83848543D01*
X134259499Y-83848543D01*
X128628495Y-83848543D01*
X128598354Y-82136538D01*
X178439500Y-82136538D01*
X178439500Y-82388461D01*
X178478910Y-82637285D01*
X178556760Y-82876883D01*
X178671132Y-83101348D01*
X178819201Y-83305149D01*
X178819205Y-83305154D01*
X178997345Y-83483294D01*
X178997350Y-83483298D01*
X179175117Y-83612452D01*
X179201155Y-83631370D01*
X179344184Y-83704247D01*
X179425616Y-83745739D01*
X179425618Y-83745739D01*
X179425621Y-83745741D01*
X179665215Y-83823590D01*
X179914038Y-83863000D01*
X179914039Y-83863000D01*
X180165961Y-83863000D01*
X180165962Y-83863000D01*
X180414785Y-83823590D01*
X180654379Y-83745741D01*
X180878845Y-83631370D01*
X181082656Y-83483293D01*
X181260793Y-83305156D01*
X181408870Y-83101345D01*
X181523241Y-82876879D01*
X181601090Y-82637285D01*
X181640500Y-82388462D01*
X181640500Y-82136538D01*
X181601090Y-81887715D01*
X181523241Y-81648121D01*
X181523239Y-81648118D01*
X181523239Y-81648116D01*
X181455762Y-81515686D01*
X181408870Y-81423655D01*
X181389952Y-81397617D01*
X181260798Y-81219850D01*
X181260794Y-81219845D01*
X181082654Y-81041705D01*
X181082649Y-81041701D01*
X180878848Y-80893632D01*
X180878847Y-80893631D01*
X180878845Y-80893630D01*
X180808747Y-80857913D01*
X180654383Y-80779260D01*
X180414785Y-80701410D01*
X180340359Y-80689622D01*
X180165962Y-80662000D01*
X179914038Y-80662000D01*
X179797115Y-80680519D01*
X179665214Y-80701410D01*
X179425616Y-80779260D01*
X179201151Y-80893632D01*
X178997350Y-81041701D01*
X178997345Y-81041705D01*
X178819205Y-81219845D01*
X178819201Y-81219850D01*
X178671132Y-81423651D01*
X178556760Y-81648116D01*
X178478910Y-81887714D01*
X178439500Y-82136538D01*
X128598354Y-82136538D01*
X128559305Y-79918543D01*
X134259499Y-79918543D01*
X134297947Y-80111829D01*
X134297950Y-80111839D01*
X134373364Y-80293907D01*
X134373371Y-80293920D01*
X134482860Y-80457781D01*
X134482863Y-80457785D01*
X134622214Y-80597136D01*
X134622218Y-80597139D01*
X134786079Y-80706628D01*
X134786092Y-80706635D01*
X134961424Y-80779259D01*
X134968165Y-80782051D01*
X134968169Y-80782051D01*
X134968170Y-80782052D01*
X135161456Y-80820500D01*
X135161459Y-80820500D01*
X135358543Y-80820500D01*
X135488582Y-80794632D01*
X135551835Y-80782051D01*
X135733914Y-80706632D01*
X135897782Y-80597139D01*
X136037139Y-80457782D01*
X136146632Y-80293914D01*
X136146631Y-80293914D01*
X136150017Y-80288848D01*
X136151474Y-80289821D01*
X136194595Y-80245903D01*
X136262729Y-80230426D01*
X136328414Y-80254242D01*
X136330502Y-80255809D01*
X136336632Y-80260512D01*
X136336635Y-80260515D01*
X136467865Y-80336281D01*
X136614234Y-80375500D01*
X136614236Y-80375500D01*
X136765764Y-80375500D01*
X136765766Y-80375500D01*
X136912135Y-80336281D01*
X137043365Y-80260515D01*
X137150515Y-80153365D01*
X137226281Y-80022135D01*
X137226281Y-80022134D01*
X137230345Y-80015096D01*
X137231914Y-80016002D01*
X137269379Y-79969498D01*
X137335670Y-79947424D01*
X137403372Y-79964693D01*
X137443216Y-80002453D01*
X137490398Y-80073065D01*
X137490401Y-80073069D01*
X137601895Y-80184563D01*
X137601899Y-80184566D01*
X137733002Y-80272167D01*
X137733015Y-80272174D01*
X137870328Y-80329050D01*
X137878691Y-80332514D01*
X138013805Y-80359390D01*
X138033341Y-80363276D01*
X138033344Y-80363277D01*
X138153585Y-80363277D01*
X138220624Y-80382962D01*
X138241266Y-80399596D01*
X138338456Y-80496786D01*
X138338460Y-80496789D01*
X138469563Y-80584390D01*
X138469576Y-80584397D01*
X138615247Y-80644735D01*
X138615252Y-80644737D01*
X138677284Y-80657076D01*
X138769894Y-80675498D01*
X138769899Y-80675498D01*
X138769907Y-80675500D01*
X138769914Y-80675500D01*
X138775114Y-80676012D01*
X138824966Y-80692029D01*
X138941958Y-80759573D01*
X138941965Y-80759577D01*
X139053768Y-80789534D01*
X139094691Y-80800500D01*
X139094692Y-80800500D01*
X139761860Y-80800500D01*
X139761876Y-80800501D01*
X139769472Y-80800501D01*
X139927583Y-80800501D01*
X139927586Y-80800501D01*
X140080314Y-80759577D01*
X140130433Y-80730639D01*
X140217245Y-80680520D01*
X140329049Y-80568716D01*
X140329049Y-80568714D01*
X140339257Y-80558507D01*
X140339259Y-80558504D01*
X140568713Y-80329050D01*
X140568716Y-80329049D01*
X140670163Y-80227602D01*
X140731487Y-80194117D01*
X140769941Y-80196868D01*
X140801177Y-80199102D01*
X140845524Y-80227603D01*
X140889707Y-80271786D01*
X140889711Y-80271789D01*
X141020814Y-80359390D01*
X141020827Y-80359397D01*
X141166498Y-80419735D01*
X141166503Y-80419737D01*
X141321153Y-80450499D01*
X141321156Y-80450500D01*
X141321158Y-80450500D01*
X141478844Y-80450500D01*
X141478845Y-80450499D01*
X141633497Y-80419737D01*
X141769807Y-80363276D01*
X141779172Y-80359397D01*
X141779172Y-80359396D01*
X141779179Y-80359394D01*
X141910289Y-80271789D01*
X141931418Y-80250659D01*
X141992739Y-80217175D01*
X142062430Y-80222158D01*
X142106780Y-80250660D01*
X142116635Y-80260515D01*
X142247865Y-80336281D01*
X142394234Y-80375500D01*
X142394236Y-80375500D01*
X142545764Y-80375500D01*
X142545766Y-80375500D01*
X142692135Y-80336281D01*
X142823365Y-80260515D01*
X142823374Y-80260505D01*
X142829488Y-80255815D01*
X142894656Y-80230617D01*
X142963101Y-80244650D01*
X143009025Y-80289488D01*
X143009983Y-80288849D01*
X143013009Y-80293378D01*
X143013094Y-80293461D01*
X143013228Y-80293706D01*
X143122860Y-80457781D01*
X143122863Y-80457785D01*
X143262214Y-80597136D01*
X143262218Y-80597139D01*
X143426079Y-80706628D01*
X143426092Y-80706635D01*
X143601424Y-80779259D01*
X143608165Y-80782051D01*
X143608169Y-80782051D01*
X143608170Y-80782052D01*
X143801456Y-80820500D01*
X143801459Y-80820500D01*
X143998543Y-80820500D01*
X144128582Y-80794632D01*
X144191835Y-80782051D01*
X144373914Y-80706632D01*
X144537782Y-80597139D01*
X144677139Y-80457782D01*
X144786632Y-80293914D01*
X144800468Y-80260512D01*
X144814707Y-80226134D01*
X163824500Y-80226134D01*
X163824500Y-80458865D01*
X163824501Y-80458882D01*
X163853086Y-80676012D01*
X163854879Y-80689626D01*
X163909542Y-80893632D01*
X163915120Y-80914447D01*
X164004180Y-81129460D01*
X164004188Y-81129476D01*
X164120553Y-81331024D01*
X164120564Y-81331040D01*
X164262242Y-81515679D01*
X164262248Y-81515686D01*
X164426813Y-81680251D01*
X164426819Y-81680256D01*
X164611468Y-81821942D01*
X164611475Y-81821946D01*
X164813023Y-81938311D01*
X164813039Y-81938319D01*
X165028052Y-82027379D01*
X165028054Y-82027379D01*
X165028060Y-82027382D01*
X165252874Y-82087621D01*
X165483628Y-82118000D01*
X165483635Y-82118000D01*
X165716365Y-82118000D01*
X165716372Y-82118000D01*
X165947126Y-82087621D01*
X166171940Y-82027382D01*
X166174798Y-82026197D01*
X166196753Y-82017105D01*
X166386960Y-81938319D01*
X166386963Y-81938317D01*
X166386969Y-81938315D01*
X166588532Y-81821942D01*
X166773181Y-81680256D01*
X166937756Y-81515681D01*
X167079442Y-81331032D01*
X167195815Y-81129469D01*
X167284882Y-80914440D01*
X167345121Y-80689626D01*
X167375500Y-80458872D01*
X167375500Y-80226134D01*
X187624500Y-80226134D01*
X187624500Y-80458865D01*
X187624501Y-80458882D01*
X187653086Y-80676012D01*
X187654879Y-80689626D01*
X187709542Y-80893632D01*
X187715120Y-80914447D01*
X187804180Y-81129460D01*
X187804188Y-81129476D01*
X187920553Y-81331024D01*
X187920564Y-81331040D01*
X188062242Y-81515679D01*
X188062248Y-81515686D01*
X188226813Y-81680251D01*
X188226819Y-81680256D01*
X188411468Y-81821942D01*
X188411475Y-81821946D01*
X188613023Y-81938311D01*
X188613039Y-81938319D01*
X188828052Y-82027379D01*
X188828054Y-82027379D01*
X188828060Y-82027382D01*
X189052874Y-82087621D01*
X189283628Y-82118000D01*
X189283635Y-82118000D01*
X189516365Y-82118000D01*
X189516372Y-82118000D01*
X189747126Y-82087621D01*
X189971940Y-82027382D01*
X190029953Y-82003352D01*
X190186960Y-81938319D01*
X190186963Y-81938317D01*
X190186969Y-81938315D01*
X190388532Y-81821942D01*
X190573181Y-81680256D01*
X190737756Y-81515681D01*
X190879442Y-81331032D01*
X190995815Y-81129469D01*
X191084882Y-80914440D01*
X191145121Y-80689626D01*
X191175500Y-80458872D01*
X191175500Y-80226128D01*
X191145121Y-79995374D01*
X191084882Y-79770560D01*
X191084879Y-79770552D01*
X190995819Y-79555539D01*
X190995811Y-79555523D01*
X190879446Y-79353975D01*
X190879442Y-79353968D01*
X190780098Y-79224500D01*
X190737757Y-79169320D01*
X190737751Y-79169313D01*
X190573186Y-79004748D01*
X190573179Y-79004742D01*
X190388540Y-78863064D01*
X190388538Y-78863062D01*
X190388532Y-78863058D01*
X190388527Y-78863055D01*
X190388524Y-78863053D01*
X190186976Y-78746688D01*
X190186960Y-78746680D01*
X189971947Y-78657620D01*
X189861583Y-78628048D01*
X189747126Y-78597379D01*
X189747125Y-78597378D01*
X189747122Y-78597378D01*
X189516382Y-78567001D01*
X189516377Y-78567000D01*
X189516372Y-78567000D01*
X189283628Y-78567000D01*
X189283622Y-78567000D01*
X189283617Y-78567001D01*
X189052877Y-78597378D01*
X188828052Y-78657620D01*
X188613039Y-78746680D01*
X188613023Y-78746688D01*
X188411475Y-78863053D01*
X188411459Y-78863064D01*
X188226820Y-79004742D01*
X188226813Y-79004748D01*
X188062248Y-79169313D01*
X188062242Y-79169320D01*
X187920564Y-79353959D01*
X187920553Y-79353975D01*
X187804188Y-79555523D01*
X187804180Y-79555539D01*
X187715120Y-79770552D01*
X187654878Y-79995377D01*
X187624501Y-80226117D01*
X187624500Y-80226134D01*
X167375500Y-80226134D01*
X167375500Y-80226128D01*
X167345121Y-79995374D01*
X167284882Y-79770560D01*
X167284879Y-79770552D01*
X167195819Y-79555539D01*
X167195811Y-79555523D01*
X167079446Y-79353975D01*
X167079442Y-79353968D01*
X166980098Y-79224500D01*
X166937757Y-79169320D01*
X166937751Y-79169313D01*
X166773186Y-79004748D01*
X166773179Y-79004742D01*
X166588540Y-78863064D01*
X166588538Y-78863062D01*
X166588532Y-78863058D01*
X166588527Y-78863055D01*
X166588524Y-78863053D01*
X166386976Y-78746688D01*
X166386960Y-78746680D01*
X166171947Y-78657620D01*
X166061583Y-78628048D01*
X165947126Y-78597379D01*
X165947125Y-78597378D01*
X165947122Y-78597378D01*
X165716382Y-78567001D01*
X165716377Y-78567000D01*
X165716372Y-78567000D01*
X165483628Y-78567000D01*
X165483622Y-78567000D01*
X165483617Y-78567001D01*
X165252877Y-78597378D01*
X165028052Y-78657620D01*
X164813039Y-78746680D01*
X164813023Y-78746688D01*
X164611475Y-78863053D01*
X164611459Y-78863064D01*
X164426820Y-79004742D01*
X164426813Y-79004748D01*
X164262248Y-79169313D01*
X164262242Y-79169320D01*
X164120564Y-79353959D01*
X164120553Y-79353975D01*
X164004188Y-79555523D01*
X164004180Y-79555539D01*
X163915120Y-79770552D01*
X163854878Y-79995377D01*
X163824501Y-80226117D01*
X163824500Y-80226134D01*
X144814707Y-80226134D01*
X144836046Y-80174617D01*
X144836046Y-80174616D01*
X144862051Y-80111835D01*
X144894755Y-79947424D01*
X144900500Y-79918543D01*
X144900500Y-78621456D01*
X144862052Y-78428170D01*
X144862051Y-78428169D01*
X144862051Y-78428165D01*
X144862049Y-78428160D01*
X144786635Y-78246092D01*
X144786628Y-78246079D01*
X144751423Y-78193391D01*
X144730545Y-78126713D01*
X144749030Y-78059333D01*
X144801008Y-78012643D01*
X144854525Y-78000500D01*
X146120234Y-78000500D01*
X146187273Y-78020185D01*
X146189125Y-78021398D01*
X146320814Y-78109390D01*
X146320827Y-78109397D01*
X146466498Y-78169735D01*
X146466503Y-78169737D01*
X146585419Y-78193391D01*
X146621153Y-78200499D01*
X146621156Y-78200500D01*
X146621158Y-78200500D01*
X146778844Y-78200500D01*
X146778845Y-78200499D01*
X146933497Y-78169737D01*
X147079179Y-78109394D01*
X147210289Y-78021789D01*
X147321789Y-77910289D01*
X147409394Y-77779179D01*
X147469737Y-77633497D01*
X147500500Y-77478842D01*
X147500500Y-77321158D01*
X147500500Y-77321155D01*
X147500499Y-77321153D01*
X147497194Y-77304540D01*
X147469737Y-77166503D01*
X147429969Y-77070493D01*
X147409397Y-77020827D01*
X147409390Y-77020814D01*
X147321789Y-76889711D01*
X147321786Y-76889707D01*
X147210292Y-76778213D01*
X147210288Y-76778210D01*
X147079185Y-76690609D01*
X147079172Y-76690602D01*
X146933501Y-76630264D01*
X146933489Y-76630261D01*
X146778845Y-76599500D01*
X146778842Y-76599500D01*
X146621158Y-76599500D01*
X146621155Y-76599500D01*
X146466510Y-76630261D01*
X146466498Y-76630264D01*
X146320827Y-76690602D01*
X146320814Y-76690609D01*
X146189125Y-76778602D01*
X146122447Y-76799480D01*
X146120234Y-76799500D01*
X143736670Y-76799500D01*
X143736654Y-76799499D01*
X143729058Y-76799499D01*
X143570943Y-76799499D01*
X143494579Y-76819961D01*
X143418214Y-76840423D01*
X143418209Y-76840426D01*
X143281290Y-76919475D01*
X143281282Y-76919481D01*
X141385339Y-78815425D01*
X141324016Y-78848910D01*
X141321850Y-78849361D01*
X141166508Y-78880261D01*
X141166498Y-78880264D01*
X141020827Y-78940602D01*
X141020816Y-78940608D01*
X140993390Y-78958934D01*
X140926712Y-78979811D01*
X140859332Y-78961326D01*
X140812643Y-78909346D01*
X140800500Y-78855831D01*
X140800500Y-75669986D01*
X163349500Y-75669986D01*
X163349500Y-75965013D01*
X163368627Y-76110289D01*
X163388007Y-76257493D01*
X163464361Y-76542451D01*
X163464364Y-76542461D01*
X163577254Y-76815000D01*
X163577258Y-76815010D01*
X163724761Y-77070493D01*
X163904352Y-77304540D01*
X163904358Y-77304547D01*
X164112952Y-77513141D01*
X164112959Y-77513147D01*
X164347006Y-77692738D01*
X164602489Y-77840241D01*
X164602490Y-77840241D01*
X164602493Y-77840243D01*
X164771597Y-77910288D01*
X164850239Y-77942863D01*
X164875048Y-77953139D01*
X165160007Y-78029493D01*
X165452494Y-78068000D01*
X165452501Y-78068000D01*
X165747499Y-78068000D01*
X165747506Y-78068000D01*
X166039993Y-78029493D01*
X166324952Y-77953139D01*
X166597507Y-77840243D01*
X166852994Y-77692738D01*
X167087042Y-77513146D01*
X167295646Y-77304542D01*
X167475238Y-77070494D01*
X167622743Y-76815007D01*
X167735639Y-76542452D01*
X167811993Y-76257493D01*
X167850500Y-75965006D01*
X167850500Y-75669994D01*
X167850499Y-75669986D01*
X187149500Y-75669986D01*
X187149500Y-75965013D01*
X187168627Y-76110289D01*
X187188007Y-76257493D01*
X187264361Y-76542451D01*
X187264364Y-76542461D01*
X187377254Y-76815000D01*
X187377258Y-76815010D01*
X187524761Y-77070493D01*
X187704352Y-77304540D01*
X187704358Y-77304547D01*
X187912952Y-77513141D01*
X187912959Y-77513147D01*
X188147006Y-77692738D01*
X188402489Y-77840241D01*
X188402490Y-77840241D01*
X188402493Y-77840243D01*
X188571597Y-77910288D01*
X188650239Y-77942863D01*
X188675048Y-77953139D01*
X188960007Y-78029493D01*
X189252494Y-78068000D01*
X189252501Y-78068000D01*
X189547499Y-78068000D01*
X189547506Y-78068000D01*
X189839993Y-78029493D01*
X190124952Y-77953139D01*
X190397507Y-77840243D01*
X190652994Y-77692738D01*
X190887042Y-77513146D01*
X191095646Y-77304542D01*
X191275238Y-77070494D01*
X191422743Y-76815007D01*
X191535639Y-76542452D01*
X191611993Y-76257493D01*
X191650500Y-75965006D01*
X191650500Y-75669994D01*
X191611993Y-75377507D01*
X191535639Y-75092548D01*
X191422743Y-74819993D01*
X191410911Y-74799500D01*
X191275238Y-74564506D01*
X191095647Y-74330459D01*
X191095641Y-74330452D01*
X190887047Y-74121858D01*
X190887040Y-74121852D01*
X190652993Y-73942261D01*
X190397510Y-73794758D01*
X190397500Y-73794754D01*
X190124961Y-73681864D01*
X190124954Y-73681862D01*
X190124952Y-73681861D01*
X189839993Y-73605507D01*
X189791113Y-73599071D01*
X189547513Y-73567000D01*
X189547506Y-73567000D01*
X189252494Y-73567000D01*
X189252486Y-73567000D01*
X188974085Y-73603653D01*
X188960007Y-73605507D01*
X188675048Y-73681861D01*
X188675038Y-73681864D01*
X188402499Y-73794754D01*
X188402489Y-73794758D01*
X188147006Y-73942261D01*
X187912959Y-74121852D01*
X187912952Y-74121858D01*
X187704358Y-74330452D01*
X187704352Y-74330459D01*
X187524761Y-74564506D01*
X187377258Y-74819989D01*
X187377254Y-74819999D01*
X187264364Y-75092538D01*
X187264361Y-75092548D01*
X187190956Y-75366503D01*
X187188008Y-75377504D01*
X187188006Y-75377515D01*
X187149500Y-75669986D01*
X167850499Y-75669986D01*
X167811993Y-75377507D01*
X167735639Y-75092548D01*
X167622743Y-74819993D01*
X167610911Y-74799500D01*
X167475238Y-74564506D01*
X167295647Y-74330459D01*
X167295641Y-74330452D01*
X167087047Y-74121858D01*
X167087040Y-74121852D01*
X166852993Y-73942261D01*
X166597510Y-73794758D01*
X166597500Y-73794754D01*
X166324961Y-73681864D01*
X166324954Y-73681862D01*
X166324952Y-73681861D01*
X166039993Y-73605507D01*
X165991113Y-73599071D01*
X165747513Y-73567000D01*
X165747506Y-73567000D01*
X165452494Y-73567000D01*
X165452486Y-73567000D01*
X165174085Y-73603653D01*
X165160007Y-73605507D01*
X164875048Y-73681861D01*
X164875038Y-73681864D01*
X164602499Y-73794754D01*
X164602489Y-73794758D01*
X164347006Y-73942261D01*
X164112959Y-74121852D01*
X164112952Y-74121858D01*
X163904358Y-74330452D01*
X163904352Y-74330459D01*
X163724761Y-74564506D01*
X163577258Y-74819989D01*
X163577254Y-74819999D01*
X163464364Y-75092538D01*
X163464361Y-75092548D01*
X163390956Y-75366503D01*
X163388008Y-75377504D01*
X163388006Y-75377515D01*
X163349500Y-75669986D01*
X140800500Y-75669986D01*
X140800500Y-75149060D01*
X140800501Y-75149047D01*
X140800501Y-74980944D01*
X140799769Y-74978211D01*
X140759577Y-74828216D01*
X140754833Y-74819999D01*
X140680524Y-74691290D01*
X140680518Y-74691282D01*
X139434573Y-73445337D01*
X139401088Y-73384014D01*
X139400637Y-73381847D01*
X139369738Y-73226510D01*
X139369737Y-73226503D01*
X139369735Y-73226498D01*
X139309397Y-73080827D01*
X139309390Y-73080814D01*
X139221789Y-72949711D01*
X139221786Y-72949707D01*
X139110292Y-72838213D01*
X139110288Y-72838210D01*
X138979185Y-72750609D01*
X138979172Y-72750602D01*
X138833501Y-72690264D01*
X138833489Y-72690261D01*
X138678845Y-72659500D01*
X138678842Y-72659500D01*
X138521158Y-72659500D01*
X138521155Y-72659500D01*
X138366510Y-72690261D01*
X138366498Y-72690264D01*
X138220827Y-72750602D01*
X138220814Y-72750609D01*
X138089711Y-72838210D01*
X138089707Y-72838213D01*
X137978213Y-72949707D01*
X137978210Y-72949711D01*
X137890609Y-73080814D01*
X137890602Y-73080827D01*
X137830264Y-73226498D01*
X137830261Y-73226510D01*
X137799500Y-73381153D01*
X137799500Y-73538846D01*
X137830261Y-73693489D01*
X137830264Y-73693501D01*
X137890602Y-73839172D01*
X137890609Y-73839185D01*
X137978210Y-73970288D01*
X137978213Y-73970292D01*
X138089707Y-74081786D01*
X138089711Y-74081789D01*
X138220814Y-74169390D01*
X138220827Y-74169397D01*
X138366498Y-74229735D01*
X138366503Y-74229737D01*
X138431147Y-74242595D01*
X138521849Y-74260638D01*
X138583760Y-74293023D01*
X138585339Y-74294574D01*
X139563181Y-75272416D01*
X139596666Y-75333739D01*
X139599500Y-75360097D01*
X139599500Y-78515254D01*
X139579815Y-78582293D01*
X139527011Y-78628048D01*
X139457853Y-78637992D01*
X139394297Y-78608967D01*
X139387819Y-78602935D01*
X138836819Y-78051935D01*
X138803334Y-77990612D01*
X138800500Y-77964254D01*
X138800500Y-76179765D01*
X138820185Y-76112726D01*
X138821398Y-76110874D01*
X138909390Y-75979185D01*
X138909390Y-75979184D01*
X138909394Y-75979179D01*
X138969737Y-75833497D01*
X139000500Y-75678842D01*
X139000500Y-75521158D01*
X139000500Y-75521155D01*
X139000499Y-75521153D01*
X138971927Y-75377515D01*
X138969737Y-75366503D01*
X138945809Y-75308735D01*
X138909397Y-75220827D01*
X138909390Y-75220814D01*
X138821789Y-75089711D01*
X138821786Y-75089707D01*
X138710292Y-74978213D01*
X138710288Y-74978210D01*
X138579185Y-74890609D01*
X138579172Y-74890602D01*
X138433501Y-74830264D01*
X138433489Y-74830261D01*
X138278845Y-74799500D01*
X138278842Y-74799500D01*
X138121158Y-74799500D01*
X138121155Y-74799500D01*
X137966510Y-74830261D01*
X137966498Y-74830264D01*
X137820827Y-74890602D01*
X137820814Y-74890609D01*
X137689711Y-74978210D01*
X137689707Y-74978213D01*
X137578213Y-75089707D01*
X137578210Y-75089711D01*
X137490609Y-75220814D01*
X137490602Y-75220827D01*
X137430264Y-75366498D01*
X137430261Y-75366510D01*
X137399500Y-75521153D01*
X137399500Y-75678844D01*
X137400097Y-75684907D01*
X137398178Y-75685095D01*
X137392740Y-75745797D01*
X137349871Y-75800970D01*
X137283978Y-75824207D01*
X137277355Y-75824384D01*
X137161155Y-75824384D01*
X137006510Y-75855145D01*
X137006498Y-75855148D01*
X136860827Y-75915486D01*
X136860814Y-75915493D01*
X136729711Y-76003094D01*
X136729707Y-76003097D01*
X136618213Y-76114591D01*
X136618210Y-76114595D01*
X136530609Y-76245698D01*
X136530602Y-76245711D01*
X136470264Y-76391382D01*
X136470261Y-76391394D01*
X136439500Y-76546037D01*
X136439500Y-76703730D01*
X136470261Y-76858373D01*
X136470264Y-76858385D01*
X136530602Y-77004056D01*
X136530609Y-77004069D01*
X136618602Y-77135758D01*
X136639480Y-77202435D01*
X136639500Y-77204649D01*
X136639500Y-78603919D01*
X136639499Y-78603937D01*
X136639499Y-78769643D01*
X136639498Y-78769643D01*
X136664528Y-78863053D01*
X136680423Y-78922374D01*
X136701531Y-78958934D01*
X136709358Y-78972489D01*
X136709360Y-78972493D01*
X136747469Y-79038501D01*
X136763941Y-79106401D01*
X136741088Y-79172428D01*
X136686166Y-79215618D01*
X136640081Y-79224500D01*
X136614234Y-79224500D01*
X136467862Y-79263719D01*
X136446499Y-79276054D01*
X136378598Y-79292525D01*
X136312572Y-79269673D01*
X136269382Y-79214751D01*
X136260500Y-79168666D01*
X136260500Y-78621456D01*
X136222052Y-78428170D01*
X136222051Y-78428169D01*
X136222051Y-78428165D01*
X136222049Y-78428160D01*
X136146635Y-78246092D01*
X136146628Y-78246079D01*
X136037139Y-78082218D01*
X136037136Y-78082214D01*
X135897785Y-77942863D01*
X135897781Y-77942860D01*
X135733920Y-77833371D01*
X135733907Y-77833364D01*
X135551839Y-77757950D01*
X135551829Y-77757947D01*
X135358543Y-77719500D01*
X135358541Y-77719500D01*
X135161459Y-77719500D01*
X135161457Y-77719500D01*
X134968170Y-77757947D01*
X134968160Y-77757950D01*
X134786092Y-77833364D01*
X134786079Y-77833371D01*
X134622218Y-77942860D01*
X134622214Y-77942863D01*
X134482863Y-78082214D01*
X134482860Y-78082218D01*
X134373371Y-78246079D01*
X134373364Y-78246092D01*
X134297950Y-78428160D01*
X134297947Y-78428170D01*
X134259500Y-78621456D01*
X134259500Y-78621459D01*
X134259500Y-79918541D01*
X134259500Y-79918543D01*
X134259499Y-79918543D01*
X128559305Y-79918543D01*
X128322203Y-66451153D01*
X131433029Y-66451153D01*
X131433029Y-66608846D01*
X131463790Y-66763489D01*
X131463793Y-66763501D01*
X131524131Y-66909172D01*
X131524138Y-66909185D01*
X131612131Y-67040874D01*
X131633009Y-67107551D01*
X131633029Y-67109765D01*
X131633029Y-67773090D01*
X131625637Y-67810257D01*
X131627030Y-67810680D01*
X131625260Y-67816511D01*
X131594500Y-67971153D01*
X131594500Y-68128846D01*
X131625261Y-68283489D01*
X131625264Y-68283501D01*
X131685602Y-68429172D01*
X131685609Y-68429185D01*
X131773210Y-68560288D01*
X131773213Y-68560292D01*
X131884707Y-68671786D01*
X131884711Y-68671789D01*
X132015814Y-68759390D01*
X132015827Y-68759397D01*
X132161498Y-68819735D01*
X132161503Y-68819737D01*
X132316153Y-68850499D01*
X132316156Y-68850500D01*
X132316158Y-68850500D01*
X132473844Y-68850500D01*
X132473845Y-68850499D01*
X132628497Y-68819737D01*
X132774179Y-68759394D01*
X132806109Y-68738058D01*
X132872785Y-68717180D01*
X132940165Y-68735664D01*
X132943870Y-68738045D01*
X132975821Y-68759394D01*
X132975823Y-68759395D01*
X132975825Y-68759396D01*
X133121498Y-68819735D01*
X133121503Y-68819737D01*
X133276153Y-68850499D01*
X133276156Y-68850500D01*
X133276158Y-68850500D01*
X133433844Y-68850500D01*
X133433845Y-68850499D01*
X133588497Y-68819737D01*
X133734179Y-68759394D01*
X133865289Y-68671789D01*
X133976789Y-68560289D01*
X134064394Y-68429179D01*
X134099428Y-68344598D01*
X134143267Y-68290197D01*
X134209561Y-68268131D01*
X134261440Y-68277491D01*
X134321724Y-68302461D01*
X134342984Y-68311267D01*
X134497634Y-68342029D01*
X134497637Y-68342030D01*
X134497639Y-68342030D01*
X134655325Y-68342030D01*
X134655326Y-68342029D01*
X134809978Y-68311267D01*
X134955660Y-68250924D01*
X135078476Y-68168860D01*
X135145152Y-68147983D01*
X135212532Y-68166467D01*
X135235047Y-68184282D01*
X139115425Y-72064660D01*
X139148910Y-72125983D01*
X139149361Y-72128149D01*
X139180261Y-72283491D01*
X139180264Y-72283501D01*
X139240602Y-72429172D01*
X139240609Y-72429185D01*
X139328210Y-72560288D01*
X139328213Y-72560292D01*
X139439707Y-72671786D01*
X139439711Y-72671789D01*
X139570814Y-72759390D01*
X139570827Y-72759397D01*
X139716498Y-72819735D01*
X139716503Y-72819737D01*
X139871153Y-72850499D01*
X139871156Y-72850500D01*
X139871158Y-72850500D01*
X140028844Y-72850500D01*
X140028845Y-72850499D01*
X140183497Y-72819737D01*
X140329179Y-72759394D01*
X140460289Y-72671789D01*
X140571789Y-72560289D01*
X140659394Y-72429179D01*
X140719737Y-72283497D01*
X140750500Y-72128842D01*
X140750500Y-71971158D01*
X140750500Y-71971155D01*
X140750499Y-71971153D01*
X140719738Y-71816510D01*
X140719737Y-71816503D01*
X140719735Y-71816498D01*
X140659397Y-71670827D01*
X140659390Y-71670814D01*
X140571789Y-71539711D01*
X140571786Y-71539707D01*
X140460292Y-71428213D01*
X140460288Y-71428210D01*
X140329185Y-71340609D01*
X140329172Y-71340602D01*
X140183501Y-71280264D01*
X140183491Y-71280261D01*
X140028149Y-71249361D01*
X139966238Y-71216976D01*
X139964660Y-71215425D01*
X136911416Y-68162181D01*
X136877931Y-68100858D01*
X136882915Y-68031166D01*
X136924787Y-67975233D01*
X136990251Y-67950816D01*
X136999097Y-67950500D01*
X137028844Y-67950500D01*
X137028845Y-67950499D01*
X137183497Y-67919737D01*
X137296166Y-67873067D01*
X137329172Y-67859397D01*
X137329172Y-67859396D01*
X137329179Y-67859394D01*
X137342807Y-67850288D01*
X137460875Y-67771398D01*
X137527553Y-67750520D01*
X137529766Y-67750500D01*
X140411860Y-67750500D01*
X140411876Y-67750501D01*
X140419472Y-67750501D01*
X140577583Y-67750501D01*
X140577586Y-67750501D01*
X140730314Y-67709577D01*
X140809063Y-67664111D01*
X140867245Y-67630520D01*
X140979049Y-67518716D01*
X140979049Y-67518714D01*
X140989253Y-67508511D01*
X140989256Y-67508506D01*
X141880520Y-66617245D01*
X141959577Y-66480313D01*
X142000501Y-66327586D01*
X142000501Y-66169471D01*
X142000501Y-66161876D01*
X142000500Y-66161858D01*
X142000500Y-65161153D01*
X143649500Y-65161153D01*
X143649500Y-65318846D01*
X143680261Y-65473489D01*
X143680264Y-65473501D01*
X143740602Y-65619172D01*
X143740609Y-65619185D01*
X143828210Y-65750288D01*
X143828213Y-65750292D01*
X143930240Y-65852319D01*
X143963725Y-65913642D01*
X143958741Y-65983334D01*
X143930240Y-66027681D01*
X143828213Y-66129707D01*
X143828210Y-66129711D01*
X143740609Y-66260814D01*
X143740602Y-66260827D01*
X143680264Y-66406498D01*
X143680261Y-66406510D01*
X143649500Y-66561153D01*
X143649500Y-66718846D01*
X143680261Y-66873489D01*
X143680264Y-66873501D01*
X143740602Y-67019172D01*
X143740609Y-67019185D01*
X143828210Y-67150288D01*
X143828213Y-67150292D01*
X143939707Y-67261786D01*
X143939711Y-67261789D01*
X144070814Y-67349390D01*
X144070827Y-67349397D01*
X144180082Y-67394651D01*
X144216503Y-67409737D01*
X144271831Y-67420742D01*
X144333740Y-67453126D01*
X144368315Y-67513841D01*
X144369256Y-67518166D01*
X144380261Y-67573492D01*
X144380264Y-67573501D01*
X144440602Y-67719172D01*
X144440609Y-67719185D01*
X144528210Y-67850288D01*
X144528213Y-67850292D01*
X144639707Y-67961786D01*
X144639711Y-67961789D01*
X144770814Y-68049390D01*
X144770827Y-68049397D01*
X144895067Y-68100858D01*
X144916503Y-68109737D01*
X145071153Y-68140499D01*
X145071156Y-68140500D01*
X145071158Y-68140500D01*
X145228844Y-68140500D01*
X145228845Y-68140499D01*
X145383497Y-68109737D01*
X145529179Y-68049394D01*
X145660289Y-67961789D01*
X145702343Y-67919735D01*
X145762319Y-67859760D01*
X145823642Y-67826275D01*
X145893334Y-67831259D01*
X145937681Y-67859760D01*
X146039707Y-67961786D01*
X146039711Y-67961789D01*
X146170814Y-68049390D01*
X146170827Y-68049397D01*
X146295067Y-68100858D01*
X146316503Y-68109737D01*
X146471153Y-68140499D01*
X146471156Y-68140500D01*
X146471158Y-68140500D01*
X146628844Y-68140500D01*
X146628845Y-68140499D01*
X146783497Y-68109737D01*
X146929179Y-68049394D01*
X147060289Y-67961789D01*
X147171789Y-67850289D01*
X147259394Y-67719179D01*
X147282205Y-67664108D01*
X171319499Y-67664108D01*
X171346597Y-67835197D01*
X171346598Y-67835201D01*
X171400127Y-67999945D01*
X171478768Y-68154288D01*
X171580586Y-68294428D01*
X171703072Y-68416914D01*
X171843212Y-68518732D01*
X171997555Y-68597373D01*
X172162299Y-68650902D01*
X172333389Y-68678000D01*
X172333390Y-68678000D01*
X172506610Y-68678000D01*
X172506611Y-68678000D01*
X172677701Y-68650902D01*
X172842445Y-68597373D01*
X172996788Y-68518732D01*
X173136928Y-68416914D01*
X173259414Y-68294428D01*
X173361232Y-68154288D01*
X173439873Y-67999945D01*
X173493402Y-67835201D01*
X173520500Y-67664111D01*
X173520500Y-67490889D01*
X173510854Y-67429986D01*
X175249500Y-67429986D01*
X175249500Y-67725013D01*
X175270712Y-67886127D01*
X175288007Y-68017493D01*
X175362212Y-68294430D01*
X175364361Y-68302451D01*
X175364364Y-68302461D01*
X175477254Y-68575000D01*
X175477258Y-68575010D01*
X175624761Y-68830493D01*
X175804352Y-69064540D01*
X175804358Y-69064547D01*
X176012952Y-69273141D01*
X176012959Y-69273147D01*
X176247006Y-69452738D01*
X176502489Y-69600241D01*
X176502490Y-69600241D01*
X176502493Y-69600243D01*
X176775048Y-69713139D01*
X177060007Y-69789493D01*
X177352494Y-69828000D01*
X177352501Y-69828000D01*
X177647499Y-69828000D01*
X177647506Y-69828000D01*
X177939993Y-69789493D01*
X178224952Y-69713139D01*
X178497507Y-69600243D01*
X178752994Y-69452738D01*
X178987042Y-69273146D01*
X179195646Y-69064542D01*
X179375238Y-68830494D01*
X179522743Y-68575007D01*
X179635639Y-68302452D01*
X179711993Y-68017493D01*
X179750500Y-67725006D01*
X179750500Y-67664108D01*
X181479499Y-67664108D01*
X181506597Y-67835197D01*
X181506598Y-67835201D01*
X181560127Y-67999945D01*
X181638768Y-68154288D01*
X181740586Y-68294428D01*
X181863072Y-68416914D01*
X182003212Y-68518732D01*
X182157555Y-68597373D01*
X182322299Y-68650902D01*
X182493389Y-68678000D01*
X182493390Y-68678000D01*
X182666610Y-68678000D01*
X182666611Y-68678000D01*
X182837701Y-68650902D01*
X183002445Y-68597373D01*
X183156788Y-68518732D01*
X183296928Y-68416914D01*
X183419414Y-68294428D01*
X183521232Y-68154288D01*
X183599873Y-67999945D01*
X183653402Y-67835201D01*
X183680500Y-67664111D01*
X183680500Y-67490889D01*
X183653402Y-67319799D01*
X183599873Y-67155055D01*
X183521232Y-67000712D01*
X183419414Y-66860572D01*
X183296928Y-66738086D01*
X183156788Y-66636268D01*
X183002445Y-66557627D01*
X182837701Y-66504098D01*
X182837699Y-66504097D01*
X182837698Y-66504097D01*
X182687566Y-66480319D01*
X182666611Y-66477000D01*
X182493389Y-66477000D01*
X182472434Y-66480319D01*
X182322302Y-66504097D01*
X182157552Y-66557628D01*
X182003211Y-66636268D01*
X181946289Y-66677625D01*
X181863072Y-66738086D01*
X181863070Y-66738088D01*
X181863069Y-66738088D01*
X181740588Y-66860569D01*
X181740588Y-66860570D01*
X181740586Y-66860572D01*
X181697597Y-66919741D01*
X181638768Y-67000711D01*
X181560128Y-67155052D01*
X181506597Y-67319802D01*
X181479500Y-67490889D01*
X181479500Y-67664108D01*
X181479499Y-67664108D01*
X179750500Y-67664108D01*
X179750500Y-67429994D01*
X179711993Y-67137507D01*
X179635639Y-66852548D01*
X179627182Y-66832132D01*
X179602188Y-66771791D01*
X179522743Y-66579993D01*
X179467309Y-66483979D01*
X179375238Y-66324506D01*
X179195647Y-66090459D01*
X179195641Y-66090452D01*
X178987047Y-65881858D01*
X178987040Y-65881852D01*
X178752993Y-65702261D01*
X178497510Y-65554758D01*
X178497500Y-65554754D01*
X178224961Y-65441864D01*
X178224954Y-65441862D01*
X178224952Y-65441861D01*
X177939993Y-65365507D01*
X177891113Y-65359071D01*
X177647513Y-65327000D01*
X177647506Y-65327000D01*
X177352494Y-65327000D01*
X177352486Y-65327000D01*
X177074085Y-65363653D01*
X177060007Y-65365507D01*
X176885428Y-65412285D01*
X176775048Y-65441861D01*
X176775038Y-65441864D01*
X176502499Y-65554754D01*
X176502489Y-65554758D01*
X176247006Y-65702261D01*
X176012959Y-65881852D01*
X176012952Y-65881858D01*
X175804358Y-66090452D01*
X175804352Y-66090459D01*
X175624761Y-66324506D01*
X175477258Y-66579989D01*
X175477254Y-66579999D01*
X175364364Y-66852538D01*
X175364361Y-66852548D01*
X175295441Y-67109765D01*
X175288008Y-67137504D01*
X175288006Y-67137515D01*
X175249500Y-67429986D01*
X173510854Y-67429986D01*
X173493402Y-67319799D01*
X173439873Y-67155055D01*
X173361232Y-67000712D01*
X173259414Y-66860572D01*
X173207482Y-66808640D01*
X173173997Y-66747317D01*
X173178981Y-66677625D01*
X173220853Y-66621692D01*
X173286317Y-66597275D01*
X173314561Y-66598486D01*
X173315212Y-66598589D01*
X173315215Y-66598590D01*
X173564038Y-66638000D01*
X173564039Y-66638000D01*
X173815961Y-66638000D01*
X173815962Y-66638000D01*
X174064785Y-66598590D01*
X174304379Y-66520741D01*
X174528845Y-66406370D01*
X174732656Y-66258293D01*
X174910793Y-66080156D01*
X175058870Y-65876345D01*
X175173241Y-65651879D01*
X175251090Y-65412285D01*
X175290500Y-65163462D01*
X175290500Y-64911538D01*
X175251090Y-64662715D01*
X175173241Y-64423121D01*
X175173239Y-64423118D01*
X175173239Y-64423116D01*
X175113821Y-64306503D01*
X175058870Y-64198655D01*
X174994671Y-64110292D01*
X174910798Y-63994850D01*
X174910794Y-63994845D01*
X174732654Y-63816705D01*
X174732649Y-63816701D01*
X174528848Y-63668632D01*
X174528847Y-63668631D01*
X174528845Y-63668630D01*
X174458747Y-63632913D01*
X174304383Y-63554260D01*
X174064785Y-63476410D01*
X173815962Y-63437000D01*
X173564038Y-63437000D01*
X173439626Y-63456705D01*
X173315214Y-63476410D01*
X173075616Y-63554260D01*
X172851151Y-63668632D01*
X172647350Y-63816701D01*
X172647345Y-63816705D01*
X172469205Y-63994845D01*
X172469201Y-63994850D01*
X172321132Y-64198651D01*
X172206760Y-64423116D01*
X172130665Y-64657314D01*
X172128910Y-64662715D01*
X172089500Y-64911538D01*
X172089500Y-65163462D01*
X172128910Y-65412285D01*
X172206760Y-65651883D01*
X172258674Y-65753769D01*
X172313713Y-65861789D01*
X172321132Y-65876348D01*
X172469201Y-66080149D01*
X172469205Y-66080154D01*
X172469207Y-66080156D01*
X172647344Y-66258293D01*
X172647345Y-66258294D01*
X172647344Y-66258294D01*
X172653661Y-66262883D01*
X172696327Y-66318214D01*
X172702305Y-66387827D01*
X172669699Y-66449622D01*
X172608860Y-66483979D01*
X172561378Y-66485674D01*
X172506611Y-66477000D01*
X172333389Y-66477000D01*
X172312434Y-66480319D01*
X172162302Y-66504097D01*
X171997552Y-66557628D01*
X171843211Y-66636268D01*
X171786289Y-66677625D01*
X171703072Y-66738086D01*
X171703070Y-66738088D01*
X171703069Y-66738088D01*
X171580588Y-66860569D01*
X171580588Y-66860570D01*
X171580586Y-66860572D01*
X171537597Y-66919741D01*
X171478768Y-67000711D01*
X171400128Y-67155052D01*
X171346597Y-67319802D01*
X171319500Y-67490889D01*
X171319500Y-67664108D01*
X171319499Y-67664108D01*
X147282205Y-67664108D01*
X147319737Y-67573497D01*
X147330743Y-67518166D01*
X147336561Y-67507041D01*
X147337942Y-67494559D01*
X147352449Y-67476668D01*
X147363125Y-67456258D01*
X147375094Y-67448740D01*
X147381948Y-67440289D01*
X147402171Y-67431735D01*
X147413557Y-67424586D01*
X147420736Y-67422220D01*
X147483497Y-67409737D01*
X147629179Y-67349394D01*
X147760289Y-67261789D01*
X147871789Y-67150289D01*
X147959394Y-67019179D01*
X148019737Y-66873497D01*
X148050500Y-66718842D01*
X148050500Y-66561158D01*
X148050500Y-66561155D01*
X148050499Y-66561153D01*
X148049798Y-66557627D01*
X148019737Y-66406503D01*
X147974172Y-66296498D01*
X147959397Y-66260827D01*
X147959390Y-66260814D01*
X147871789Y-66129711D01*
X147871786Y-66129707D01*
X147769760Y-66027681D01*
X147736275Y-65966358D01*
X147741259Y-65896666D01*
X147769760Y-65852319D01*
X147871786Y-65750292D01*
X147871789Y-65750289D01*
X147959394Y-65619179D01*
X148019737Y-65473497D01*
X148050500Y-65318842D01*
X148050500Y-65161158D01*
X148050500Y-65161155D01*
X148050499Y-65161153D01*
X148019738Y-65006510D01*
X148019737Y-65006503D01*
X147983517Y-64919059D01*
X147959397Y-64860827D01*
X147959390Y-64860814D01*
X147871789Y-64729711D01*
X147871786Y-64729707D01*
X147760292Y-64618213D01*
X147760288Y-64618210D01*
X147629181Y-64530607D01*
X147629172Y-64530602D01*
X147483501Y-64470264D01*
X147483492Y-64470261D01*
X147428166Y-64459256D01*
X147366256Y-64426870D01*
X147331682Y-64366154D01*
X147330750Y-64361874D01*
X147319737Y-64306503D01*
X147304651Y-64270082D01*
X147259397Y-64160827D01*
X147259390Y-64160814D01*
X147171789Y-64029711D01*
X147171786Y-64029707D01*
X147060292Y-63918213D01*
X147060288Y-63918210D01*
X146929185Y-63830609D01*
X146929172Y-63830602D01*
X146783501Y-63770264D01*
X146783489Y-63770261D01*
X146628845Y-63739500D01*
X146628842Y-63739500D01*
X146471158Y-63739500D01*
X146471155Y-63739500D01*
X146316510Y-63770261D01*
X146316498Y-63770264D01*
X146170827Y-63830602D01*
X146170814Y-63830609D01*
X146039711Y-63918210D01*
X146039707Y-63918213D01*
X145937681Y-64020240D01*
X145876358Y-64053725D01*
X145806666Y-64048741D01*
X145762319Y-64020240D01*
X145660292Y-63918213D01*
X145660288Y-63918210D01*
X145529185Y-63830609D01*
X145529172Y-63830602D01*
X145383501Y-63770264D01*
X145383489Y-63770261D01*
X145228845Y-63739500D01*
X145228842Y-63739500D01*
X145071158Y-63739500D01*
X145071155Y-63739500D01*
X144916510Y-63770261D01*
X144916498Y-63770264D01*
X144770827Y-63830602D01*
X144770814Y-63830609D01*
X144639711Y-63918210D01*
X144639707Y-63918213D01*
X144528213Y-64029707D01*
X144528210Y-64029711D01*
X144440609Y-64160814D01*
X144440602Y-64160827D01*
X144380264Y-64306498D01*
X144380262Y-64306505D01*
X144369256Y-64361833D01*
X144336870Y-64423743D01*
X144276153Y-64458316D01*
X144271833Y-64459256D01*
X144216505Y-64470262D01*
X144216498Y-64470264D01*
X144070827Y-64530602D01*
X144070819Y-64530607D01*
X143939711Y-64618210D01*
X143939707Y-64618213D01*
X143828213Y-64729707D01*
X143828210Y-64729711D01*
X143740609Y-64860814D01*
X143740602Y-64860827D01*
X143680264Y-65006498D01*
X143680261Y-65006510D01*
X143649500Y-65161153D01*
X142000500Y-65161153D01*
X142000500Y-64919059D01*
X142000501Y-64919046D01*
X142000501Y-64750945D01*
X142000501Y-64750943D01*
X141959577Y-64598215D01*
X141920543Y-64530606D01*
X141880520Y-64461284D01*
X141768716Y-64349480D01*
X141768715Y-64349479D01*
X141764385Y-64345149D01*
X141764374Y-64345139D01*
X139790773Y-62371538D01*
X178439500Y-62371538D01*
X178439500Y-62623462D01*
X178472292Y-62830500D01*
X178478910Y-62872285D01*
X178556760Y-63111883D01*
X178671132Y-63336348D01*
X178819201Y-63540149D01*
X178819205Y-63540154D01*
X178997345Y-63718294D01*
X178997350Y-63718298D01*
X179175117Y-63847452D01*
X179201155Y-63866370D01*
X179302897Y-63918210D01*
X179425616Y-63980739D01*
X179425618Y-63980739D01*
X179425621Y-63980741D01*
X179665215Y-64058590D01*
X179914038Y-64098000D01*
X179914039Y-64098000D01*
X180165961Y-64098000D01*
X180165962Y-64098000D01*
X180414785Y-64058590D01*
X180654379Y-63980741D01*
X180878845Y-63866370D01*
X181082656Y-63718293D01*
X181260793Y-63540156D01*
X181408870Y-63336345D01*
X181523241Y-63111879D01*
X181601090Y-62872285D01*
X181640500Y-62623462D01*
X181640500Y-62371538D01*
X181601090Y-62122715D01*
X181523241Y-61883121D01*
X181523239Y-61883118D01*
X181523239Y-61883116D01*
X181455762Y-61750686D01*
X181408870Y-61658655D01*
X181389952Y-61632617D01*
X181260798Y-61454850D01*
X181260794Y-61454845D01*
X181082654Y-61276705D01*
X181082649Y-61276701D01*
X180878848Y-61128632D01*
X180878847Y-61128631D01*
X180878845Y-61128630D01*
X180808747Y-61092913D01*
X180654383Y-61014260D01*
X180414785Y-60936410D01*
X180340359Y-60924622D01*
X180165962Y-60897000D01*
X179914038Y-60897000D01*
X179789626Y-60916705D01*
X179665214Y-60936410D01*
X179425616Y-61014260D01*
X179201151Y-61128632D01*
X178997350Y-61276701D01*
X178997345Y-61276705D01*
X178819205Y-61454845D01*
X178819201Y-61454850D01*
X178671132Y-61658651D01*
X178556760Y-61883116D01*
X178478910Y-62122714D01*
X178447117Y-62323444D01*
X178439500Y-62371538D01*
X139790773Y-62371538D01*
X139434574Y-62015339D01*
X139401089Y-61954016D01*
X139400638Y-61951849D01*
X139369738Y-61796510D01*
X139369737Y-61796503D01*
X139312639Y-61658655D01*
X139309397Y-61650827D01*
X139309390Y-61650814D01*
X139221789Y-61519711D01*
X139221786Y-61519707D01*
X139110292Y-61408213D01*
X139110288Y-61408210D01*
X138979185Y-61320609D01*
X138979172Y-61320602D01*
X138833501Y-61260264D01*
X138833489Y-61260261D01*
X138678845Y-61229500D01*
X138678842Y-61229500D01*
X138521158Y-61229500D01*
X138521155Y-61229500D01*
X138366510Y-61260261D01*
X138366498Y-61260264D01*
X138220827Y-61320602D01*
X138220814Y-61320609D01*
X138089711Y-61408210D01*
X138089707Y-61408213D01*
X137978213Y-61519707D01*
X137978210Y-61519711D01*
X137890609Y-61650814D01*
X137890602Y-61650827D01*
X137830264Y-61796498D01*
X137830261Y-61796510D01*
X137799500Y-61951153D01*
X137799500Y-62108846D01*
X137830261Y-62263489D01*
X137830264Y-62263501D01*
X137890602Y-62409172D01*
X137890609Y-62409185D01*
X137978210Y-62540288D01*
X137978213Y-62540292D01*
X138089707Y-62651786D01*
X138089711Y-62651789D01*
X138220814Y-62739390D01*
X138220827Y-62739397D01*
X138365931Y-62799500D01*
X138366503Y-62799737D01*
X138431147Y-62812595D01*
X138521849Y-62830638D01*
X138583760Y-62863023D01*
X138585339Y-62864574D01*
X140723191Y-65002426D01*
X140756676Y-65063749D01*
X140751692Y-65133441D01*
X140709820Y-65189374D01*
X140659702Y-65211724D01*
X140566508Y-65230261D01*
X140566498Y-65230264D01*
X140420827Y-65290602D01*
X140420814Y-65290609D01*
X140289711Y-65378210D01*
X140289707Y-65378213D01*
X140178213Y-65489707D01*
X140178210Y-65489711D01*
X140090609Y-65620814D01*
X140090602Y-65620827D01*
X140030264Y-65766498D01*
X140030261Y-65766508D01*
X140013715Y-65849692D01*
X139981330Y-65911603D01*
X139920614Y-65946177D01*
X139892098Y-65949500D01*
X136379766Y-65949500D01*
X136312727Y-65929815D01*
X136310875Y-65928602D01*
X136179185Y-65840609D01*
X136179172Y-65840602D01*
X136033501Y-65780264D01*
X136033491Y-65780261D01*
X135900308Y-65753769D01*
X135838397Y-65721384D01*
X135803823Y-65660668D01*
X135800500Y-65632152D01*
X135800500Y-62668450D01*
X135820185Y-62601411D01*
X135850431Y-62570622D01*
X135849850Y-62569914D01*
X135854548Y-62566057D01*
X135854554Y-62566054D01*
X135966054Y-62454554D01*
X136053659Y-62323444D01*
X136114002Y-62177762D01*
X136144765Y-62023107D01*
X136144765Y-61865423D01*
X136144765Y-61865420D01*
X136144764Y-61865418D01*
X136114003Y-61710775D01*
X136114002Y-61710768D01*
X136089174Y-61650827D01*
X136053662Y-61565092D01*
X136053655Y-61565079D01*
X135966054Y-61433976D01*
X135966051Y-61433972D01*
X135854557Y-61322478D01*
X135854553Y-61322475D01*
X135723450Y-61234874D01*
X135723437Y-61234867D01*
X135577766Y-61174529D01*
X135577754Y-61174526D01*
X135423110Y-61143765D01*
X135423107Y-61143765D01*
X135265423Y-61143765D01*
X135265420Y-61143765D01*
X135110775Y-61174526D01*
X135110763Y-61174529D01*
X134965092Y-61234867D01*
X134965079Y-61234874D01*
X134833976Y-61322475D01*
X134833972Y-61322478D01*
X134722478Y-61433972D01*
X134722475Y-61433976D01*
X134634874Y-61565079D01*
X134634867Y-61565092D01*
X134574529Y-61710763D01*
X134574526Y-61710775D01*
X134543765Y-61865418D01*
X134543765Y-62023111D01*
X134574526Y-62177754D01*
X134574528Y-62177762D01*
X134590061Y-62215261D01*
X134599500Y-62262714D01*
X134599500Y-66619004D01*
X134579815Y-66686043D01*
X134527011Y-66731798D01*
X134499692Y-66740621D01*
X134342989Y-66771791D01*
X134342979Y-66771794D01*
X134197308Y-66832132D01*
X134197295Y-66832139D01*
X134065606Y-66920132D01*
X133998928Y-66941010D01*
X133996715Y-66941030D01*
X133784413Y-66941030D01*
X133631683Y-66981953D01*
X133599194Y-67000712D01*
X133599193Y-67000712D01*
X133494757Y-67061007D01*
X133494752Y-67061011D01*
X133382950Y-67172814D01*
X133382949Y-67172815D01*
X133340336Y-67215427D01*
X133279013Y-67248912D01*
X133279010Y-67248911D01*
X133276848Y-67249362D01*
X133121508Y-67280261D01*
X133121498Y-67280264D01*
X133005481Y-67328320D01*
X132972855Y-67331827D01*
X132940382Y-67336497D01*
X132938294Y-67335543D01*
X132936012Y-67335789D01*
X132906668Y-67321100D01*
X132876826Y-67307472D01*
X132875585Y-67305541D01*
X132873533Y-67304514D01*
X132856795Y-67276304D01*
X132839052Y-67248694D01*
X132838616Y-67245663D01*
X132837881Y-67244424D01*
X132834029Y-67213759D01*
X132834029Y-67109765D01*
X132853714Y-67042726D01*
X132854927Y-67040874D01*
X132881763Y-67000712D01*
X132942923Y-66909179D01*
X133003266Y-66763497D01*
X133034029Y-66608842D01*
X133034029Y-66451158D01*
X133034029Y-66451155D01*
X133034028Y-66451153D01*
X133025148Y-66406510D01*
X133003266Y-66296503D01*
X132987441Y-66258298D01*
X132942926Y-66150827D01*
X132942919Y-66150814D01*
X132855318Y-66019711D01*
X132855315Y-66019707D01*
X132743821Y-65908213D01*
X132743817Y-65908210D01*
X132612714Y-65820609D01*
X132612701Y-65820602D01*
X132467030Y-65760264D01*
X132467018Y-65760261D01*
X132312374Y-65729500D01*
X132312371Y-65729500D01*
X132154687Y-65729500D01*
X132154684Y-65729500D01*
X132000039Y-65760261D01*
X132000027Y-65760264D01*
X131854356Y-65820602D01*
X131854343Y-65820609D01*
X131723240Y-65908210D01*
X131723236Y-65908213D01*
X131611742Y-66019707D01*
X131611739Y-66019711D01*
X131524138Y-66150814D01*
X131524131Y-66150827D01*
X131463793Y-66296498D01*
X131463790Y-66296510D01*
X131433029Y-66451153D01*
X128322203Y-66451153D01*
X128283756Y-64267355D01*
X128302257Y-64199984D01*
X128354247Y-64153307D01*
X128423220Y-64142148D01*
X128487277Y-64170049D01*
X128495417Y-64177496D01*
X128539707Y-64221786D01*
X128539711Y-64221789D01*
X128670814Y-64309390D01*
X128670827Y-64309397D01*
X128768853Y-64350000D01*
X128816503Y-64369737D01*
X128971153Y-64400499D01*
X128971156Y-64400500D01*
X128971158Y-64400500D01*
X129128844Y-64400500D01*
X129128845Y-64400499D01*
X129283497Y-64369737D01*
X129429179Y-64309394D01*
X129560289Y-64221789D01*
X129671789Y-64110289D01*
X129759394Y-63979179D01*
X129819737Y-63833497D01*
X129850500Y-63678842D01*
X129850500Y-63521158D01*
X129850500Y-63521155D01*
X129850499Y-63521153D01*
X129819738Y-63366510D01*
X129819737Y-63366503D01*
X129819735Y-63366498D01*
X129759397Y-63220827D01*
X129759390Y-63220814D01*
X129671789Y-63089711D01*
X129671786Y-63089707D01*
X129560292Y-62978213D01*
X129560288Y-62978210D01*
X129429185Y-62890609D01*
X129429172Y-62890602D01*
X129283501Y-62830264D01*
X129283489Y-62830261D01*
X129128845Y-62799500D01*
X129128842Y-62799500D01*
X128971158Y-62799500D01*
X128971155Y-62799500D01*
X128816510Y-62830261D01*
X128816498Y-62830264D01*
X128670827Y-62890602D01*
X128670814Y-62890609D01*
X128539711Y-62978210D01*
X128472401Y-63045520D01*
X128411077Y-63079004D01*
X128341386Y-63074019D01*
X128285452Y-63032148D01*
X128261036Y-62966683D01*
X128260740Y-62960050D01*
X128251287Y-62423150D01*
X128252162Y-62417716D01*
X128251429Y-62414649D01*
X128258225Y-62380024D01*
X128265567Y-62359041D01*
X128302270Y-62305545D01*
X130470980Y-60461128D01*
X163824500Y-60461128D01*
X163824500Y-60693872D01*
X163854879Y-60924626D01*
X163913597Y-61143765D01*
X163915120Y-61149447D01*
X164004180Y-61364460D01*
X164004188Y-61364476D01*
X164120553Y-61566024D01*
X164120564Y-61566040D01*
X164262242Y-61750679D01*
X164262248Y-61750686D01*
X164426813Y-61915251D01*
X164426819Y-61915256D01*
X164611468Y-62056942D01*
X164611475Y-62056946D01*
X164813023Y-62173311D01*
X164813039Y-62173319D01*
X165028052Y-62262379D01*
X165028054Y-62262379D01*
X165028060Y-62262382D01*
X165252874Y-62322621D01*
X165483628Y-62353000D01*
X165483635Y-62353000D01*
X165716365Y-62353000D01*
X165716372Y-62353000D01*
X165947126Y-62322621D01*
X166171940Y-62262382D01*
X166174798Y-62261197D01*
X166196753Y-62252105D01*
X166386960Y-62173319D01*
X166386963Y-62173317D01*
X166386969Y-62173315D01*
X166588532Y-62056942D01*
X166773181Y-61915256D01*
X166937756Y-61750681D01*
X167079442Y-61566032D01*
X167195815Y-61364469D01*
X167213210Y-61322475D01*
X167284879Y-61149447D01*
X167284878Y-61149447D01*
X167284882Y-61149440D01*
X167345121Y-60924626D01*
X167375500Y-60693872D01*
X167375500Y-60461128D01*
X187624500Y-60461128D01*
X187624500Y-60693872D01*
X187654879Y-60924626D01*
X187713597Y-61143765D01*
X187715120Y-61149447D01*
X187804180Y-61364460D01*
X187804188Y-61364476D01*
X187920553Y-61566024D01*
X187920564Y-61566040D01*
X188062242Y-61750679D01*
X188062248Y-61750686D01*
X188226813Y-61915251D01*
X188226819Y-61915256D01*
X188411468Y-62056942D01*
X188411475Y-62056946D01*
X188613023Y-62173311D01*
X188613039Y-62173319D01*
X188828052Y-62262379D01*
X188828054Y-62262379D01*
X188828060Y-62262382D01*
X189052874Y-62322621D01*
X189283628Y-62353000D01*
X189283635Y-62353000D01*
X189516365Y-62353000D01*
X189516372Y-62353000D01*
X189747126Y-62322621D01*
X189971940Y-62262382D01*
X190030683Y-62238050D01*
X190186960Y-62173319D01*
X190186963Y-62173317D01*
X190186969Y-62173315D01*
X190388532Y-62056942D01*
X190573181Y-61915256D01*
X190737756Y-61750681D01*
X190879442Y-61566032D01*
X190995815Y-61364469D01*
X191013210Y-61322475D01*
X191084879Y-61149447D01*
X191084878Y-61149447D01*
X191084882Y-61149440D01*
X191145121Y-60924626D01*
X191175500Y-60693872D01*
X191175500Y-60461128D01*
X191145121Y-60230374D01*
X191084882Y-60005560D01*
X191062076Y-59950500D01*
X190995819Y-59790539D01*
X190995811Y-59790523D01*
X190879446Y-59588975D01*
X190879442Y-59588968D01*
X190737756Y-59404319D01*
X190737751Y-59404313D01*
X190573186Y-59239748D01*
X190573179Y-59239742D01*
X190388540Y-59098064D01*
X190388538Y-59098062D01*
X190388532Y-59098058D01*
X190388527Y-59098055D01*
X190388524Y-59098053D01*
X190186976Y-58981688D01*
X190186960Y-58981680D01*
X189971947Y-58892620D01*
X189747122Y-58832378D01*
X189516382Y-58802001D01*
X189516377Y-58802000D01*
X189516372Y-58802000D01*
X189283628Y-58802000D01*
X189283622Y-58802000D01*
X189283617Y-58802001D01*
X189052877Y-58832378D01*
X188828052Y-58892620D01*
X188613039Y-58981680D01*
X188613023Y-58981688D01*
X188411475Y-59098053D01*
X188411459Y-59098064D01*
X188226820Y-59239742D01*
X188226813Y-59239748D01*
X188062248Y-59404313D01*
X188062242Y-59404320D01*
X187920564Y-59588959D01*
X187920553Y-59588975D01*
X187804188Y-59790523D01*
X187804180Y-59790539D01*
X187715120Y-60005552D01*
X187654878Y-60230377D01*
X187624501Y-60461117D01*
X187624500Y-60461128D01*
X167375500Y-60461128D01*
X167345121Y-60230374D01*
X167284882Y-60005560D01*
X167262076Y-59950500D01*
X167195819Y-59790539D01*
X167195811Y-59790523D01*
X167079446Y-59588975D01*
X167079442Y-59588968D01*
X166937756Y-59404319D01*
X166937751Y-59404313D01*
X166773186Y-59239748D01*
X166773179Y-59239742D01*
X166588540Y-59098064D01*
X166588538Y-59098062D01*
X166588532Y-59098058D01*
X166588527Y-59098055D01*
X166588524Y-59098053D01*
X166386976Y-58981688D01*
X166386960Y-58981680D01*
X166171947Y-58892620D01*
X165947122Y-58832378D01*
X165716382Y-58802001D01*
X165716377Y-58802000D01*
X165716372Y-58802000D01*
X165483628Y-58802000D01*
X165483622Y-58802000D01*
X165483617Y-58802001D01*
X165252877Y-58832378D01*
X165028052Y-58892620D01*
X164813039Y-58981680D01*
X164813023Y-58981688D01*
X164611475Y-59098053D01*
X164611459Y-59098064D01*
X164426820Y-59239742D01*
X164426813Y-59239748D01*
X164262248Y-59404313D01*
X164262242Y-59404320D01*
X164120564Y-59588959D01*
X164120553Y-59588975D01*
X164004188Y-59790523D01*
X164004180Y-59790539D01*
X163915120Y-60005552D01*
X163854878Y-60230377D01*
X163824501Y-60461117D01*
X163824500Y-60461128D01*
X130470980Y-60461128D01*
X133422454Y-57950996D01*
X133486272Y-57922561D01*
X133488846Y-57922243D01*
X133959695Y-57869191D01*
X133968915Y-57868500D01*
X134410526Y-57851977D01*
X134447676Y-57850587D01*
X134452312Y-57850500D01*
X134515892Y-57850500D01*
X140422650Y-57850500D01*
X140489689Y-57870185D01*
G37*
%TD.AperFunction*%
M02*
