%TF.GenerationSoftware,KiCad,Pcbnew,10.0.1*%
%TF.CreationDate,2026-06-01T14:02:53+02:00*%
%TF.ProjectId,lora,6c6f7261-2e6b-4696-9361-645f70636258,rev?*%
%TF.SameCoordinates,Original*%
%TF.FileFunction,Copper,L1,Top*%
%TF.FilePolarity,Positive*%
%FSLAX46Y46*%
G04 Gerber Fmt 4.6, Leading zero omitted, Abs format (unit mm)*
G04 Created by KiCad (PCBNEW 10.0.1) date 2026-06-01 14:02:53*
%MOMM*%
%LPD*%
G01*
G04 APERTURE LIST*
G04 Aperture macros list*
%AMRoundRect*
0 Rectangle with rounded corners*
0 $1 Rounding radius*
0 $2 $3 $4 $5 $6 $7 $8 $9 X,Y pos of 4 corners*
0 Add a 4 corners polygon primitive as box body*
4,1,4,$2,$3,$4,$5,$6,$7,$8,$9,$2,$3,0*
0 Add four circle primitives for the rounded corners*
1,1,$1+$1,$2,$3*
1,1,$1+$1,$4,$5*
1,1,$1+$1,$6,$7*
1,1,$1+$1,$8,$9*
0 Add four rect primitives between the rounded corners*
20,1,$1+$1,$2,$3,$4,$5,0*
20,1,$1+$1,$4,$5,$6,$7,0*
20,1,$1+$1,$6,$7,$8,$9,0*
20,1,$1+$1,$8,$9,$2,$3,0*%
G04 Aperture macros list end*
%TA.AperFunction,SMDPad,CuDef*%
%ADD10RoundRect,0.135000X-0.185000X0.135000X-0.185000X-0.135000X0.185000X-0.135000X0.185000X0.135000X0*%
%TD*%
%TA.AperFunction,SMDPad,CuDef*%
%ADD11R,1.500000X2.400000*%
%TD*%
%TA.AperFunction,SMDPad,CuDef*%
%ADD12R,1.500000X0.900000*%
%TD*%
%TA.AperFunction,SMDPad,CuDef*%
%ADD13R,0.900000X1.500000*%
%TD*%
%TA.AperFunction,HeatsinkPad*%
%ADD14C,0.600000*%
%TD*%
%TA.AperFunction,HeatsinkPad*%
%ADD15R,3.900000X3.900000*%
%TD*%
%TA.AperFunction,SMDPad,CuDef*%
%ADD16RoundRect,0.150000X-0.150000X-0.575000X0.150000X-0.575000X0.150000X0.575000X-0.150000X0.575000X0*%
%TD*%
%TA.AperFunction,SMDPad,CuDef*%
%ADD17RoundRect,0.075000X-0.075000X-0.650000X0.075000X-0.650000X0.075000X0.650000X-0.075000X0.650000X0*%
%TD*%
%TA.AperFunction,ComponentPad*%
%ADD18O,1.000000X2.100000*%
%TD*%
%TA.AperFunction,ComponentPad*%
%ADD19O,1.000000X1.600000*%
%TD*%
%TA.AperFunction,SMDPad,CuDef*%
%ADD20RoundRect,0.140000X-0.140000X-0.170000X0.140000X-0.170000X0.140000X0.170000X-0.140000X0.170000X0*%
%TD*%
%TA.AperFunction,SMDPad,CuDef*%
%ADD21RoundRect,0.135000X0.185000X-0.135000X0.185000X0.135000X-0.185000X0.135000X-0.185000X-0.135000X0*%
%TD*%
%TA.AperFunction,ComponentPad*%
%ADD22C,2.200000*%
%TD*%
%TA.AperFunction,SMDPad,CuDef*%
%ADD23RoundRect,0.140000X0.140000X0.170000X-0.140000X0.170000X-0.140000X-0.170000X0.140000X-0.170000X0*%
%TD*%
%TA.AperFunction,SMDPad,CuDef*%
%ADD24RoundRect,0.375000X-0.625000X-0.375000X0.625000X-0.375000X0.625000X0.375000X-0.625000X0.375000X0*%
%TD*%
%TA.AperFunction,SMDPad,CuDef*%
%ADD25RoundRect,0.500000X-0.500000X-1.400000X0.500000X-1.400000X0.500000X1.400000X-0.500000X1.400000X0*%
%TD*%
%TA.AperFunction,SMDPad,CuDef*%
%ADD26RoundRect,0.100000X-0.130000X-0.100000X0.130000X-0.100000X0.130000X0.100000X-0.130000X0.100000X0*%
%TD*%
%TA.AperFunction,SMDPad,CuDef*%
%ADD27RoundRect,0.140000X0.170000X-0.140000X0.170000X0.140000X-0.170000X0.140000X-0.170000X-0.140000X0*%
%TD*%
%TA.AperFunction,SMDPad,CuDef*%
%ADD28R,0.840000X0.260000*%
%TD*%
%TA.AperFunction,SMDPad,CuDef*%
%ADD29R,0.260000X0.840000*%
%TD*%
%TA.AperFunction,SMDPad,CuDef*%
%ADD30R,2.600000X2.600000*%
%TD*%
%TA.AperFunction,ViaPad*%
%ADD31C,0.600000*%
%TD*%
%TA.AperFunction,Conductor*%
%ADD32C,0.200000*%
%TD*%
G04 APERTURE END LIST*
D10*
%TO.P,R3,1*%
%TO.N,+3V3*%
X136750000Y-59690000D03*
%TO.P,R3,2*%
%TO.N,Net-(U1-EN)*%
X136750000Y-60710000D03*
%TD*%
D11*
%TO.P,L1,1,1_1*%
%TO.N,+3V3*%
X130845000Y-72400000D03*
%TO.P,L1,2,2_2*%
%TO.N,Net-(U3-DCC_SW)*%
X136345000Y-72400000D03*
%TD*%
D12*
%TO.P,U1,1,GND_1*%
%TO.N,+3V3*%
X138600000Y-58220000D03*
%TO.P,U1,2,3V3_2*%
X138600000Y-59490000D03*
%TO.P,U1,3,EN_3*%
%TO.N,Net-(U1-EN)*%
X138600000Y-60760000D03*
%TO.P,U1,4,IO4_4*%
%TO.N,BUSY*%
X138600000Y-62030000D03*
%TO.P,U1,5,IO5_5*%
%TO.N,SCK*%
X138600000Y-63300000D03*
%TO.P,U1,6,IO6_6*%
%TO.N,MOSI*%
X138600000Y-64570000D03*
%TO.P,U1,7,IO7_7*%
%TO.N,MISO*%
X138600000Y-65840000D03*
%TO.P,U1,8,IO15_8*%
%TO.N,unconnected-(U1-IO15-Pad8)*%
X138600000Y-67110000D03*
%TO.P,U1,9,IO16_9*%
%TO.N,unconnected-(U1-IO16-Pad9)*%
X138600000Y-68380000D03*
%TO.P,U1,10,IO17_10*%
%TO.N,unconnected-(U1-IO17-Pad10)*%
X138600000Y-69650000D03*
%TO.P,U1,11,IO18_11*%
%TO.N,unconnected-(U1-IO18-Pad11)*%
X138600000Y-70920000D03*
%TO.P,U1,12,IO8_12*%
%TO.N,NSS*%
X138600000Y-72190000D03*
%TO.P,U1,13,USB_D-_13*%
%TO.N,minus*%
X138600000Y-73460000D03*
%TO.P,U1,14,USB_D+_14*%
%TO.N,plus*%
X138600000Y-74730000D03*
D13*
%TO.P,U1,15,IO3_15*%
%TO.N,RESET*%
X140365000Y-75980000D03*
%TO.P,U1,16,IO46_16*%
%TO.N,unconnected-(U1-IO46-Pad16)*%
X141635000Y-75980000D03*
%TO.P,U1,17,IO9_17*%
%TO.N,DIO1*%
X142905000Y-75980000D03*
%TO.P,U1,18,IO10_18*%
%TO.N,unconnected-(U1-IO10-Pad18)*%
X144175000Y-75980000D03*
%TO.P,U1,19,IO11_19*%
%TO.N,unconnected-(U1-IO11-Pad19)*%
X145445000Y-75980000D03*
%TO.P,U1,20,IO12_20*%
%TO.N,unconnected-(U1-IO12-Pad20)*%
X146715000Y-75980000D03*
%TO.P,U1,21,IO13_21*%
%TO.N,unconnected-(U1-IO13-Pad21)*%
X147985000Y-75980000D03*
%TO.P,U1,22,IO14_22*%
%TO.N,unconnected-(U1-IO14-Pad22)*%
X149255000Y-75980000D03*
%TO.P,U1,23,IO21_23*%
%TO.N,unconnected-(U1-IO21-Pad23)*%
X150525000Y-75980000D03*
%TO.P,U1,24,IO47_24*%
%TO.N,unconnected-(U1-IO47-Pad24)*%
X151795000Y-75980000D03*
%TO.P,U1,25,IO48_25*%
%TO.N,unconnected-(U1-IO48-Pad25)*%
X153065000Y-75980000D03*
%TO.P,U1,26,IO45_26*%
%TO.N,unconnected-(U1-IO45-Pad26)*%
X154335000Y-75980000D03*
D12*
%TO.P,U1,27,IO0_27*%
%TO.N,Net-(U1-IO0)*%
X156100000Y-74730000D03*
%TO.P,U1,28,IO35_28*%
%TO.N,unconnected-(U1-IO35-Pad28)*%
X156100000Y-73460000D03*
%TO.P,U1,29,IO36_29*%
%TO.N,unconnected-(U1-IO36-Pad29)*%
X156100000Y-72190000D03*
%TO.P,U1,30,IO37_30*%
%TO.N,unconnected-(U1-IO37-Pad30)*%
X156100000Y-70920000D03*
%TO.P,U1,31,IO38_31*%
%TO.N,unconnected-(U1-IO38-Pad31)*%
X156100000Y-69650000D03*
%TO.P,U1,32,IO39_32*%
%TO.N,unconnected-(U1-IO39-Pad32)*%
X156100000Y-68380000D03*
%TO.P,U1,33,IO40_33*%
%TO.N,unconnected-(U1-IO40-Pad33)*%
X156100000Y-67110000D03*
%TO.P,U1,34,IO41_34*%
%TO.N,unconnected-(U1-IO41-Pad34)*%
X156100000Y-65840000D03*
%TO.P,U1,35,IO42_35*%
%TO.N,unconnected-(U1-IO42-Pad35)*%
X156100000Y-64570000D03*
%TO.P,U1,36,RXD0_36*%
%TO.N,unconnected-(U1-RXD0-Pad36)*%
X156100000Y-63300000D03*
%TO.P,U1,37,TXD0_37*%
%TO.N,unconnected-(U1-TXD0-Pad37)*%
X156100000Y-62030000D03*
%TO.P,U1,38,IO2_38*%
%TO.N,unconnected-(U1-IO2-Pad38)*%
X156100000Y-60760000D03*
%TO.P,U1,39,IO1_39*%
%TO.N,unconnected-(U1-IO1-Pad39)*%
X156100000Y-59490000D03*
%TO.P,U1,40,GND_40*%
%TO.N,+3V3*%
X156100000Y-58220000D03*
D14*
%TO.P,U1,41,GND_41*%
X144450000Y-65240000D03*
X144450000Y-66640000D03*
X145150000Y-64540000D03*
X145150000Y-65940000D03*
X145150000Y-67340000D03*
X145850000Y-65240000D03*
D15*
X145850000Y-65940000D03*
D14*
X145850000Y-66640000D03*
X146550000Y-64540000D03*
X146550000Y-65940000D03*
X146550000Y-67340000D03*
X147250000Y-65240000D03*
X147250000Y-66640000D03*
%TD*%
D16*
%TO.P,J1,A1,GND_A1*%
%TO.N,+3V3*%
X136330000Y-78355000D03*
%TO.P,J1,A4,VBUS_A4*%
X137130000Y-78355000D03*
D17*
%TO.P,J1,A5,CC1_A5*%
%TO.N,Net-(J1-CC1)*%
X138330000Y-78355000D03*
%TO.P,J1,A6,D+_A6*%
%TO.N,plus*%
X139330000Y-78355000D03*
%TO.P,J1,A7,D-_A7*%
%TO.N,unconnected-(J1-D--PadA7)*%
X139830000Y-78355000D03*
%TO.P,J1,A8*%
%TO.N,N/C*%
X140830000Y-78355000D03*
D16*
%TO.P,J1,A9,VBUS_A9*%
%TO.N,+3V3*%
X142030000Y-78355000D03*
%TO.P,J1,A12,GND_A12*%
X142830000Y-78355000D03*
%TO.P,J1,B1,GND_B1*%
X142830000Y-78355000D03*
%TO.P,J1,B4,VBUS_B4*%
X142030000Y-78355000D03*
D17*
%TO.P,J1,B5,CC2_B5*%
%TO.N,Net-(J1-CC2)*%
X141330000Y-78355000D03*
%TO.P,J1,B6,D+_B6*%
%TO.N,unconnected-(J1-D+-PadB6)*%
X140330000Y-78355000D03*
%TO.P,J1,B7,D-_B7*%
%TO.N,minus*%
X138830000Y-78355000D03*
%TO.P,J1,B8*%
%TO.N,N/C*%
X137830000Y-78355000D03*
D16*
%TO.P,J1,B9,VBUS_B9*%
%TO.N,+3V3*%
X137130000Y-78355000D03*
%TO.P,J1,B12,GND_B12*%
X136330000Y-78355000D03*
D18*
%TO.P,J1,SH,SHIELD_SH*%
%TO.N,unconnected-(J1-SHIELD-PadSH)*%
X135260000Y-79270000D03*
D19*
X135260000Y-83450000D03*
D18*
X143900000Y-79270000D03*
D19*
X143900000Y-83450000D03*
%TD*%
D20*
%TO.P,C5,1*%
%TO.N,+3V3*%
X131640000Y-61450000D03*
%TO.P,C5,2*%
%TO.N,Net-(U3-VR_PA)*%
X132600000Y-61450000D03*
%TD*%
D21*
%TO.P,R4,1*%
%TO.N,+3V3*%
X154750000Y-78550000D03*
%TO.P,R4,2*%
%TO.N,Net-(U1-IO0)*%
X154750000Y-77530000D03*
%TD*%
D22*
%TO.P,SW1,1,1_1*%
%TO.N,+3V3*%
X180040000Y-62497500D03*
%TO.P,SW1,2,2_2*%
X173690000Y-65037500D03*
%TD*%
%TO.P,SW2,1,1_1*%
%TO.N,+3V3*%
X180040000Y-82262500D03*
%TO.P,SW2,2,2_2*%
X173690000Y-84802500D03*
%TD*%
D23*
%TO.P,C4,1*%
%TO.N,+3V3*%
X133355000Y-68050000D03*
%TO.P,C4,2*%
%TO.N,Net-(U3-VREG)*%
X132395000Y-68050000D03*
%TD*%
D24*
%TO.P,U2,1,GND_1*%
%TO.N,+3V3*%
X146450000Y-79300000D03*
%TO.P,U2,2,VO_2*%
%TO.N,Net-(U2-VO)*%
X146450000Y-81600000D03*
D25*
X152750000Y-81600000D03*
D24*
%TO.P,U2,3,VI_3*%
%TO.N,Net-(U2-VI)*%
X146450000Y-83900000D03*
%TD*%
D26*
%TO.P,R1,1*%
%TO.N,+3V3*%
X136510000Y-76600000D03*
%TO.P,R1,2*%
%TO.N,Net-(J1-CC1)*%
X137150000Y-76600000D03*
%TD*%
D20*
%TO.P,C7,1*%
%TO.N,+3V3*%
X150950000Y-86900000D03*
%TO.P,C7,2*%
%TO.N,Net-(U2-VO)*%
X151910000Y-86900000D03*
%TD*%
D27*
%TO.P,C1,1*%
%TO.N,Net-(C1-Pad1)*%
X130800000Y-68030000D03*
%TO.P,C1,2*%
%TO.N,+3V3*%
X130800000Y-67070000D03*
%TD*%
D20*
%TO.P,C3,1*%
%TO.N,+3V3*%
X134585000Y-68200000D03*
%TO.P,C3,2*%
%TO.N,Net-(U3-VBAT_IO)*%
X135545000Y-68200000D03*
%TD*%
D23*
%TO.P,C2,1*%
%TO.N,+3V3*%
X132600000Y-77650000D03*
%TO.P,C2,2*%
%TO.N,Net-(C1-Pad1)*%
X131640000Y-77650000D03*
%TD*%
%TO.P,C6,1*%
%TO.N,+3V3*%
X148500000Y-86900000D03*
%TO.P,C6,2*%
%TO.N,Net-(U2-VI)*%
X147540000Y-86900000D03*
%TD*%
D28*
%TO.P,U3,1,VDD_IN_1*%
%TO.N,+3V3*%
X131905000Y-63400000D03*
%TO.P,U3,2,GND_2*%
X131905000Y-63900000D03*
%TO.P,U3,3,XTA_3*%
%TO.N,unconnected-(U3-XTA-Pad3)*%
X131905000Y-64400000D03*
%TO.P,U3,4,XTB_4*%
%TO.N,unconnected-(U3-XTB-Pad4)*%
X131905000Y-64900000D03*
%TO.P,U3,5,GND_5*%
%TO.N,+3V3*%
X131905000Y-65400000D03*
%TO.P,U3,6,DIO3_6*%
%TO.N,unconnected-(U3-DIO3-Pad6)*%
X131905000Y-65900000D03*
D29*
%TO.P,U3,7,VREG_7*%
%TO.N,Net-(U3-VREG)*%
X132600000Y-66595000D03*
%TO.P,U3,8,GND_8*%
%TO.N,+3V3*%
X133100000Y-66595000D03*
%TO.P,U3,9,DCC_SW_9*%
%TO.N,Net-(U3-DCC_SW)*%
X133600000Y-66595000D03*
%TO.P,U3,10,VBAT_10*%
%TO.N,+3V3*%
X134100000Y-66595000D03*
%TO.P,U3,11,VBAT_IO_11*%
%TO.N,Net-(U3-VBAT_IO)*%
X134600000Y-66595000D03*
%TO.P,U3,12,DIO2_12*%
%TO.N,unconnected-(U3-DIO2-Pad12)*%
X135100000Y-66595000D03*
D28*
%TO.P,U3,13,DIO1_13*%
%TO.N,DIO1*%
X135795000Y-65900000D03*
%TO.P,U3,14,BUSY_14*%
%TO.N,BUSY*%
X135795000Y-65400000D03*
%TO.P,U3,15,~{NRESET}_15*%
%TO.N,RESET*%
X135795000Y-64900000D03*
%TO.P,U3,16,MISO_16*%
%TO.N,MISO*%
X135795000Y-64400000D03*
%TO.P,U3,17,MOSI_17*%
%TO.N,MOSI*%
X135795000Y-63900000D03*
%TO.P,U3,18,SCK_18*%
%TO.N,SCK*%
X135795000Y-63400000D03*
D29*
%TO.P,U3,19,NSS_19*%
%TO.N,NSS*%
X135100000Y-62705000D03*
%TO.P,U3,20,GND_20*%
%TO.N,+3V3*%
X134600000Y-62705000D03*
%TO.P,U3,21,RFI_P_21*%
%TO.N,unconnected-(U3-RFI_P-Pad21)*%
X134100000Y-62705000D03*
%TO.P,U3,22,RFI_N_22*%
%TO.N,unconnected-(U3-RFI_N-Pad22)*%
X133600000Y-62705000D03*
%TO.P,U3,23,RFO_23*%
%TO.N,unconnected-(U3-RFO-Pad23)*%
X133100000Y-62705000D03*
%TO.P,U3,24,VR_PA_24*%
%TO.N,Net-(U3-VR_PA)*%
X132600000Y-62705000D03*
D30*
%TO.P,U3,25,EXP_25*%
%TO.N,unconnected-(U3-EXP-Pad25)*%
X133850000Y-64650000D03*
%TD*%
D26*
%TO.P,R2,1*%
%TO.N,+3V3*%
X145580000Y-77500000D03*
%TO.P,R2,2*%
%TO.N,Net-(J1-CC2)*%
X146220000Y-77500000D03*
%TD*%
D31*
%TO.N,*%
X129700000Y-86100000D03*
X129050000Y-63600000D03*
X141150000Y-58550000D03*
X160600000Y-59150000D03*
X194950000Y-66550000D03*
X194500000Y-85700000D03*
X193500000Y-94500000D03*
X143150000Y-90400000D03*
X155200000Y-91450000D03*
%TO.N,+3V3*%
X134576481Y-67541530D03*
X133355000Y-68050000D03*
%TO.N,BUSY*%
X136950000Y-67150000D03*
X138600000Y-62030000D03*
%TO.N,NSS*%
X135344265Y-61944265D03*
X139950000Y-72050000D03*
%TO.N,minus*%
X138600000Y-73460000D03*
X138848749Y-79875000D03*
%TO.N,plus*%
X138200000Y-75600000D03*
X139600000Y-79600000D03*
%TO.N,DIO1*%
X135800000Y-66550000D03*
X140800000Y-66000000D03*
%TO.N,Net-(J1-CC1)*%
X138112188Y-79562777D03*
X137240000Y-76624884D03*
%TO.N,Net-(J1-CC2)*%
X146700000Y-77400000D03*
X141400000Y-79650000D03*
%TO.N,Net-(U3-VREG)*%
X132233529Y-66530000D03*
X132395000Y-68050000D03*
%TD*%
%TO.N,*%
D32*
X141150000Y-58550000D02*
X141150000Y-58650000D01*
%TO.N,+3V3*%
X133355000Y-68050000D02*
X133355000Y-69890000D01*
X138600000Y-59490000D02*
X139550000Y-59490000D01*
X136750000Y-59690000D02*
X138400000Y-59690000D01*
X180040000Y-66794098D02*
X178283402Y-65037500D01*
X142030000Y-77630001D02*
X142030000Y-78355000D01*
X178283402Y-65037500D02*
X177500000Y-65037500D01*
X134600000Y-61840000D02*
X136750000Y-59690000D01*
X130845000Y-72400000D02*
X130845000Y-75895000D01*
X142030000Y-78355000D02*
X142830000Y-78355000D01*
X133385000Y-60840000D02*
X134600000Y-62055000D01*
X131255000Y-63900000D02*
X131905000Y-63900000D01*
X146450000Y-79300000D02*
X145580000Y-78430000D01*
X176230000Y-82262500D02*
X173690000Y-84802500D01*
X131185000Y-63970000D02*
X131255000Y-63900000D01*
X145150000Y-80600000D02*
X145150000Y-85446134D01*
X145580000Y-78430000D02*
X145580000Y-77500000D01*
X130800000Y-65855000D02*
X131255000Y-65400000D01*
X131640000Y-61450000D02*
X131640000Y-63135000D01*
X131640000Y-63135000D02*
X131905000Y-63400000D01*
X131255000Y-65400000D02*
X131185000Y-65330000D01*
X136510000Y-76600000D02*
X136510000Y-78175000D01*
X133030000Y-67315000D02*
X133100000Y-67245000D01*
X131185000Y-65470000D02*
X131185000Y-66330000D01*
X137597590Y-77330000D02*
X141729999Y-77330000D01*
X137130000Y-78355000D02*
X137130000Y-77797590D01*
X173690000Y-65037500D02*
X177500000Y-65037500D01*
X133355000Y-67640000D02*
X133030000Y-67315000D01*
X131905000Y-63400000D02*
X131905000Y-61208866D01*
X145850000Y-65790000D02*
X145850000Y-65940000D01*
X133355000Y-69890000D02*
X130845000Y-72400000D01*
X134585000Y-68200000D02*
X134585000Y-67550049D01*
X135625000Y-77650000D02*
X132600000Y-77650000D01*
X131185000Y-65330000D02*
X131185000Y-63970000D01*
X150950000Y-86900000D02*
X148500000Y-86900000D01*
X131905000Y-63900000D02*
X131905000Y-63400000D01*
X131905000Y-65400000D02*
X131255000Y-65400000D01*
X130800000Y-67070000D02*
X130800000Y-65855000D01*
X156100000Y-58220000D02*
X154270000Y-58220000D01*
X146450000Y-79300000D02*
X145150000Y-80600000D01*
X136330000Y-78355000D02*
X135625000Y-77650000D01*
X156100000Y-58220000D02*
X166872500Y-58220000D01*
X133100000Y-67245000D02*
X133100000Y-66595000D01*
X134600000Y-62055000D02*
X134600000Y-61840000D01*
X166872500Y-58220000D02*
X173690000Y-65037500D01*
X132273866Y-60840000D02*
X133385000Y-60840000D01*
X134585000Y-67550049D02*
X134576481Y-67541530D01*
X137130000Y-77797590D02*
X137597590Y-77330000D01*
X139550000Y-59490000D02*
X145850000Y-65790000D01*
X136510000Y-78175000D02*
X136330000Y-78355000D01*
X177500000Y-65037500D02*
X180040000Y-62497500D01*
X180040000Y-82262500D02*
X180040000Y-66794098D01*
X138600000Y-59490000D02*
X138600000Y-58220000D01*
X147213866Y-87510000D02*
X147890000Y-87510000D01*
X134600000Y-62055000D02*
X134600000Y-62705000D01*
X154270000Y-58220000D02*
X147250000Y-65240000D01*
X141729999Y-77330000D02*
X142030000Y-77630001D01*
X138400000Y-59690000D02*
X138600000Y-59490000D01*
X130845000Y-75895000D02*
X132600000Y-77650000D01*
X133355000Y-68050000D02*
X133355000Y-67640000D01*
X132170000Y-67315000D02*
X133030000Y-67315000D01*
X147890000Y-87510000D02*
X148500000Y-86900000D01*
X131255000Y-65400000D02*
X131185000Y-65470000D01*
X131185000Y-66330000D02*
X132170000Y-67315000D01*
X146450000Y-79300000D02*
X154000000Y-79300000D01*
X154000000Y-79300000D02*
X154750000Y-78550000D01*
X145150000Y-85446134D02*
X147213866Y-87510000D01*
X136330000Y-78355000D02*
X137130000Y-78355000D01*
X180040000Y-82262500D02*
X176230000Y-82262500D01*
X131905000Y-61208866D02*
X132273866Y-60840000D01*
%TO.N,Net-(U3-DCC_SW)*%
X133600000Y-66595000D02*
X133600000Y-67319314D01*
X133600000Y-67319314D02*
X134005000Y-67724314D01*
X134005000Y-67724314D02*
X134005000Y-70060000D01*
X134005000Y-70060000D02*
X136345000Y-72400000D01*
%TO.N,BUSY*%
X136950000Y-65970686D02*
X136950000Y-67150000D01*
X136379314Y-65400000D02*
X136950000Y-65970686D01*
X135795000Y-65400000D02*
X136379314Y-65400000D01*
%TO.N,SCK*%
X138500000Y-63400000D02*
X138600000Y-63300000D01*
X135795000Y-63400000D02*
X138500000Y-63400000D01*
%TO.N,MOSI*%
X135795000Y-63900000D02*
X137550000Y-63900000D01*
X137550000Y-63900000D02*
X138220000Y-64570000D01*
X138220000Y-64570000D02*
X138600000Y-64570000D01*
%TO.N,MISO*%
X138070000Y-65840000D02*
X138600000Y-65840000D01*
X135795000Y-64400000D02*
X136630000Y-64400000D01*
X136630000Y-64400000D02*
X138070000Y-65840000D01*
%TO.N,NSS*%
X135100000Y-62188530D02*
X135344265Y-61944265D01*
X139950000Y-72050000D02*
X138740000Y-72050000D01*
X138740000Y-72050000D02*
X138600000Y-72190000D01*
X135100000Y-62705000D02*
X135100000Y-62188530D01*
%TO.N,minus*%
X138830000Y-79856251D02*
X138848749Y-79875000D01*
X138830000Y-78355000D02*
X138830000Y-79856251D01*
%TO.N,plus*%
X139330000Y-79330000D02*
X139600000Y-79600000D01*
X139330000Y-78355000D02*
X139330000Y-79330000D01*
X138600000Y-74730000D02*
X138600000Y-75200000D01*
X138600000Y-75200000D02*
X138200000Y-75600000D01*
%TO.N,RESET*%
X140365000Y-75980000D02*
X140145000Y-76200000D01*
X140145000Y-76200000D02*
X137951471Y-76200000D01*
X137550000Y-66005000D02*
X136445000Y-64900000D01*
X137550000Y-75798529D02*
X137550000Y-66005000D01*
X136445000Y-64900000D02*
X135795000Y-64900000D01*
X137951471Y-76200000D02*
X137550000Y-75798529D01*
%TO.N,DIO1*%
X142905000Y-68105000D02*
X140800000Y-66000000D01*
X135800000Y-66550000D02*
X135800000Y-65905000D01*
X142905000Y-75980000D02*
X142905000Y-68105000D01*
X135800000Y-65905000D02*
X135795000Y-65900000D01*
%TO.N,Net-(U1-IO0)*%
X154750000Y-77530000D02*
X156100000Y-76180000D01*
X156100000Y-76180000D02*
X156100000Y-74730000D01*
%TO.N,Net-(J1-CC1)*%
X138330000Y-78355000D02*
X138330000Y-79344965D01*
X138330000Y-79344965D02*
X138112188Y-79562777D01*
%TO.N,Net-(J1-CC2)*%
X146600000Y-77500000D02*
X146700000Y-77400000D01*
X141400000Y-79650000D02*
X141400000Y-78425000D01*
X146220000Y-77500000D02*
X146600000Y-77500000D01*
X141400000Y-78425000D02*
X141330000Y-78355000D01*
%TO.N,unconnected-(J1-SHIELD-PadSH)*%
X143900000Y-81850000D02*
X143900000Y-83450000D01*
X142749594Y-80475000D02*
X142749594Y-80699594D01*
X136410406Y-80475000D02*
X135260000Y-79324594D01*
X143900000Y-79324594D02*
X142749594Y-80475000D01*
X135260000Y-79324594D02*
X135260000Y-79270000D01*
X142749594Y-80699594D02*
X143900000Y-81850000D01*
X143900000Y-79270000D02*
X143900000Y-79324594D01*
X135260000Y-81625406D02*
X135260000Y-83450000D01*
X136410406Y-80475000D02*
X135260000Y-81625406D01*
X142749594Y-80475000D02*
X136410406Y-80475000D01*
%TO.N,Net-(U3-VR_PA)*%
X132600000Y-61450000D02*
X132600000Y-62705000D01*
%TO.N,Net-(U3-VREG)*%
X132298529Y-66595000D02*
X132233529Y-66530000D01*
X132600000Y-66595000D02*
X132298529Y-66595000D01*
%TO.N,Net-(U2-VO)*%
X151910000Y-86900000D02*
X151910000Y-82440000D01*
X152750000Y-81600000D02*
X146450000Y-81600000D01*
X151910000Y-82440000D02*
X152750000Y-81600000D01*
%TO.N,Net-(U2-VI)*%
X147540000Y-84990000D02*
X146450000Y-83900000D01*
X147540000Y-86900000D02*
X147540000Y-84990000D01*
%TO.N,Net-(C1-Pad1)*%
X130800000Y-68030000D02*
X129795000Y-69035000D01*
X129795000Y-69035000D02*
X129795000Y-75805000D01*
X129795000Y-75805000D02*
X131640000Y-77650000D01*
%TD*%
%TA.AperFunction,NonConductor*%
G36*
X136208559Y-61372518D02*
G01*
X136310607Y-61432869D01*
X136329418Y-61438334D01*
X136464791Y-61477664D01*
X136464794Y-61477664D01*
X136464796Y-61477665D01*
X136500819Y-61480500D01*
X136999180Y-61480499D01*
X137035204Y-61477665D01*
X137147280Y-61445103D01*
X137190905Y-61432430D01*
X137260775Y-61432629D01*
X137319445Y-61470571D01*
X137348288Y-61534210D01*
X137349500Y-61551506D01*
X137349500Y-62527870D01*
X137349501Y-62527876D01*
X137355908Y-62587483D01*
X137368658Y-62621667D01*
X137370542Y-62648017D01*
X137376161Y-62673838D01*
X137373322Y-62686889D01*
X137373642Y-62691359D01*
X137368660Y-62708326D01*
X137364744Y-62718827D01*
X137322876Y-62774763D01*
X137257413Y-62799184D01*
X137248560Y-62799500D01*
X136408106Y-62799500D01*
X136364773Y-62791682D01*
X136322482Y-62775908D01*
X136322483Y-62775908D01*
X136262883Y-62769501D01*
X136262881Y-62769500D01*
X136262873Y-62769500D01*
X136262865Y-62769500D01*
X135950471Y-62769500D01*
X135883432Y-62749815D01*
X135837677Y-62697011D01*
X135827733Y-62627853D01*
X135856758Y-62564297D01*
X135862790Y-62557819D01*
X135966051Y-62454557D01*
X135966054Y-62454554D01*
X136053659Y-62323444D01*
X136114002Y-62177762D01*
X136144765Y-62023107D01*
X136144765Y-61865423D01*
X136144765Y-61865420D01*
X136144764Y-61865418D01*
X136114002Y-61710768D01*
X136092415Y-61658651D01*
X136053662Y-61565092D01*
X136053655Y-61565079D01*
X136042338Y-61548142D01*
X136021460Y-61481464D01*
X136039944Y-61414084D01*
X136091923Y-61367394D01*
X136160893Y-61356218D01*
X136208559Y-61372518D01*
G37*
%TD.AperFunction*%
%TA.AperFunction,NonConductor*%
G36*
X140489689Y-57870185D02*
G01*
X140535444Y-57922989D01*
X140545388Y-57992147D01*
X140525752Y-58043391D01*
X140440609Y-58170814D01*
X140440602Y-58170827D01*
X140380264Y-58316498D01*
X140380261Y-58316510D01*
X140349500Y-58471153D01*
X140349500Y-58628846D01*
X140380261Y-58783489D01*
X140380264Y-58783501D01*
X140440602Y-58929172D01*
X140440609Y-58929185D01*
X140528210Y-59060288D01*
X140528213Y-59060292D01*
X140639707Y-59171786D01*
X140639711Y-59171789D01*
X140770814Y-59259390D01*
X140770827Y-59259397D01*
X140870328Y-59300611D01*
X140916503Y-59319737D01*
X141071153Y-59350499D01*
X141071156Y-59350500D01*
X141071158Y-59350500D01*
X141228844Y-59350500D01*
X141228845Y-59350499D01*
X141383497Y-59319737D01*
X141529179Y-59259394D01*
X141660289Y-59171789D01*
X141771789Y-59060289D01*
X141859394Y-58929179D01*
X141919737Y-58783497D01*
X141950500Y-58628842D01*
X141950500Y-58471158D01*
X141950500Y-58471155D01*
X141950499Y-58471153D01*
X141919738Y-58316510D01*
X141919737Y-58316503D01*
X141912813Y-58299786D01*
X141859397Y-58170827D01*
X141859390Y-58170814D01*
X141774248Y-58043391D01*
X141753370Y-57976714D01*
X141771854Y-57909334D01*
X141823833Y-57862643D01*
X141877350Y-57850500D01*
X153490902Y-57850500D01*
X153557941Y-57870185D01*
X153603696Y-57922989D01*
X153613640Y-57992147D01*
X153584615Y-58055703D01*
X153578583Y-58062181D01*
X148136721Y-63504042D01*
X148075398Y-63537527D01*
X148005708Y-63532543D01*
X147907485Y-63495909D01*
X147907483Y-63495908D01*
X147847883Y-63489501D01*
X147847881Y-63489500D01*
X147847873Y-63489500D01*
X147847865Y-63489500D01*
X144450097Y-63489500D01*
X144383058Y-63469815D01*
X144362416Y-63453181D01*
X140039597Y-59130362D01*
X140030521Y-59121286D01*
X140030520Y-59121284D01*
X139918716Y-59009480D01*
X139887152Y-58991257D01*
X139877216Y-58982190D01*
X139865785Y-58963357D01*
X139850582Y-58947413D01*
X139844616Y-58933925D01*
X139831341Y-58898332D01*
X139826357Y-58828640D01*
X139831340Y-58811669D01*
X139844091Y-58777483D01*
X139850500Y-58717873D01*
X139850499Y-57974499D01*
X139870183Y-57907461D01*
X139922987Y-57861706D01*
X139974499Y-57850500D01*
X140422650Y-57850500D01*
X140489689Y-57870185D01*
G37*
%TD.AperFunction*%
%TA.AperFunction,NonConductor*%
G36*
X140055701Y-60845383D02*
G01*
X140062180Y-60851415D01*
X143363181Y-64152416D01*
X143396666Y-64213739D01*
X143399500Y-64240097D01*
X143399500Y-67450901D01*
X143379815Y-67517940D01*
X143327011Y-67563695D01*
X143257853Y-67573639D01*
X143194297Y-67544614D01*
X143187819Y-67538582D01*
X141634573Y-65985337D01*
X141601088Y-65924014D01*
X141600637Y-65921847D01*
X141591586Y-65876345D01*
X141569737Y-65766503D01*
X141569735Y-65766498D01*
X141509397Y-65620827D01*
X141509390Y-65620814D01*
X141421789Y-65489711D01*
X141421786Y-65489707D01*
X141310292Y-65378213D01*
X141310288Y-65378210D01*
X141179185Y-65290609D01*
X141179172Y-65290602D01*
X141033501Y-65230264D01*
X141033489Y-65230261D01*
X140878845Y-65199500D01*
X140878842Y-65199500D01*
X140721158Y-65199500D01*
X140721155Y-65199500D01*
X140566510Y-65230261D01*
X140566498Y-65230264D01*
X140420827Y-65290602D01*
X140420814Y-65290609D01*
X140289711Y-65378210D01*
X140289707Y-65378213D01*
X140178213Y-65489707D01*
X140178210Y-65489711D01*
X140090609Y-65620814D01*
X140090602Y-65620828D01*
X140089058Y-65624556D01*
X140045216Y-65678958D01*
X139978921Y-65701020D01*
X139911222Y-65683739D01*
X139863613Y-65632600D01*
X139850499Y-65577099D01*
X139850499Y-65342129D01*
X139850498Y-65342123D01*
X139850497Y-65342116D01*
X139844091Y-65282517D01*
X139831340Y-65248332D01*
X139826357Y-65178642D01*
X139831340Y-65161669D01*
X139844091Y-65127483D01*
X139850500Y-65067873D01*
X139850499Y-64072128D01*
X139844091Y-64012517D01*
X139831340Y-63978332D01*
X139826357Y-63908642D01*
X139831340Y-63891669D01*
X139844091Y-63857483D01*
X139850500Y-63797873D01*
X139850499Y-62802128D01*
X139844091Y-62742517D01*
X139831340Y-62708332D01*
X139826357Y-62638642D01*
X139831341Y-62621667D01*
X139844091Y-62587483D01*
X139850500Y-62527873D01*
X139850499Y-61532128D01*
X139844091Y-61472517D01*
X139831340Y-61438332D01*
X139826357Y-61368642D01*
X139831340Y-61351669D01*
X139844091Y-61317483D01*
X139850500Y-61257873D01*
X139850499Y-60939094D01*
X139870183Y-60872057D01*
X139922987Y-60826302D01*
X139992146Y-60816358D01*
X140055701Y-60845383D01*
G37*
%TD.AperFunction*%
%TA.AperFunction,NonConductor*%
G36*
X136469961Y-67807051D02*
G01*
X136483815Y-67807299D01*
X136515653Y-67822532D01*
X136570812Y-67859389D01*
X136570827Y-67859397D01*
X136716498Y-67919735D01*
X136716503Y-67919737D01*
X136817879Y-67939902D01*
X136849691Y-67946230D01*
X136911602Y-67978615D01*
X136946176Y-68039330D01*
X136949500Y-68067847D01*
X136949500Y-70575500D01*
X136929815Y-70642539D01*
X136877011Y-70688294D01*
X136825500Y-70699500D01*
X135545098Y-70699500D01*
X135478059Y-70679815D01*
X135457417Y-70663181D01*
X134641819Y-69847583D01*
X134608334Y-69786260D01*
X134605500Y-69759902D01*
X134605500Y-69134500D01*
X134625185Y-69067461D01*
X134677989Y-69021706D01*
X134729500Y-69010500D01*
X134789682Y-69010500D01*
X134789690Y-69010500D01*
X134825993Y-69007643D01*
X134825995Y-69007642D01*
X134825997Y-69007642D01*
X134912679Y-68982458D01*
X134981395Y-68962494D01*
X135001879Y-68950379D01*
X135069601Y-68933196D01*
X135128119Y-68950379D01*
X135148605Y-68962494D01*
X135148607Y-68962494D01*
X135148608Y-68962495D01*
X135304002Y-69007642D01*
X135304005Y-69007642D01*
X135304007Y-69007643D01*
X135340310Y-69010500D01*
X135340318Y-69010500D01*
X135749682Y-69010500D01*
X135749690Y-69010500D01*
X135785993Y-69007643D01*
X135785995Y-69007642D01*
X135785997Y-69007642D01*
X135872679Y-68982458D01*
X135941395Y-68962494D01*
X136080687Y-68880117D01*
X136195117Y-68765687D01*
X136277494Y-68626395D01*
X136322643Y-68470993D01*
X136325500Y-68434690D01*
X136325500Y-67965310D01*
X136323143Y-67935361D01*
X136326227Y-67920679D01*
X136324358Y-67905797D01*
X136333264Y-67887182D01*
X136337507Y-67866985D01*
X136348038Y-67856301D01*
X136354513Y-67842770D01*
X136372070Y-67831924D01*
X136386559Y-67817228D01*
X136401194Y-67813934D01*
X136413957Y-67806051D01*
X136434590Y-67806419D01*
X136454724Y-67801889D01*
X136469961Y-67807051D01*
G37*
%TD.AperFunction*%
%TA.AperFunction,NonConductor*%
G36*
X131675382Y-68513770D02*
G01*
X131704447Y-68547313D01*
X131744881Y-68615684D01*
X131744887Y-68615692D01*
X131859307Y-68730112D01*
X131859311Y-68730115D01*
X131859313Y-68730117D01*
X131998605Y-68812494D01*
X132035500Y-68823213D01*
X132154002Y-68857642D01*
X132154005Y-68857642D01*
X132154007Y-68857643D01*
X132190310Y-68860500D01*
X132190318Y-68860500D01*
X132599682Y-68860500D01*
X132599690Y-68860500D01*
X132620767Y-68858841D01*
X132689145Y-68873202D01*
X132738903Y-68922252D01*
X132754500Y-68982458D01*
X132754500Y-69589902D01*
X132734815Y-69656941D01*
X132718181Y-69677583D01*
X131732583Y-70663181D01*
X131671260Y-70696666D01*
X131644902Y-70699500D01*
X130519500Y-70699500D01*
X130452461Y-70679815D01*
X130406706Y-70627011D01*
X130395500Y-70575500D01*
X130395500Y-69335097D01*
X130415185Y-69268058D01*
X130431819Y-69247416D01*
X130832417Y-68846819D01*
X130893740Y-68813334D01*
X130920098Y-68810500D01*
X131034682Y-68810500D01*
X131034690Y-68810500D01*
X131070993Y-68807643D01*
X131070995Y-68807642D01*
X131070997Y-68807642D01*
X131111975Y-68795736D01*
X131226395Y-68762494D01*
X131365687Y-68680117D01*
X131480117Y-68565687D01*
X131490982Y-68547314D01*
X131542050Y-68499630D01*
X131610792Y-68487125D01*
X131675382Y-68513770D01*
G37*
%TD.AperFunction*%
%TA.AperFunction,NonConductor*%
G36*
X154796945Y-58840185D02*
G01*
X154842700Y-58892989D01*
X154853195Y-58957752D01*
X154849500Y-58992127D01*
X154849500Y-58992128D01*
X154849500Y-58992132D01*
X154849500Y-59987870D01*
X154849501Y-59987876D01*
X154855908Y-60047481D01*
X154868659Y-60081669D01*
X154873642Y-60151361D01*
X154868659Y-60168331D01*
X154855908Y-60202518D01*
X154849501Y-60262116D01*
X154849501Y-60262123D01*
X154849500Y-60262135D01*
X154849500Y-61257870D01*
X154849501Y-61257876D01*
X154855908Y-61317481D01*
X154868659Y-61351669D01*
X154873642Y-61421361D01*
X154868659Y-61438331D01*
X154855908Y-61472518D01*
X154849501Y-61532116D01*
X154849501Y-61532123D01*
X154849500Y-61532135D01*
X154849500Y-62527870D01*
X154849501Y-62527876D01*
X154855908Y-62587481D01*
X154868659Y-62621669D01*
X154873642Y-62691361D01*
X154868659Y-62708331D01*
X154855908Y-62742518D01*
X154850623Y-62791682D01*
X154849501Y-62802123D01*
X154849500Y-62802135D01*
X154849500Y-63797870D01*
X154849501Y-63797876D01*
X154855908Y-63857481D01*
X154868659Y-63891669D01*
X154873642Y-63961361D01*
X154868659Y-63978331D01*
X154855908Y-64012518D01*
X154850955Y-64058590D01*
X154849501Y-64072123D01*
X154849500Y-64072135D01*
X154849500Y-65067870D01*
X154849501Y-65067876D01*
X154855908Y-65127481D01*
X154868659Y-65161669D01*
X154873642Y-65231361D01*
X154868659Y-65248331D01*
X154855908Y-65282518D01*
X154849501Y-65342116D01*
X154849501Y-65342123D01*
X154849500Y-65342135D01*
X154849500Y-66337870D01*
X154849501Y-66337876D01*
X154855908Y-66397481D01*
X154868659Y-66431669D01*
X154873642Y-66501361D01*
X154868659Y-66518331D01*
X154855908Y-66552518D01*
X154850955Y-66598590D01*
X154849501Y-66612123D01*
X154849500Y-66612135D01*
X154849500Y-67607870D01*
X154849501Y-67607876D01*
X154855908Y-67667481D01*
X154868659Y-67701669D01*
X154873642Y-67771361D01*
X154868659Y-67788331D01*
X154855908Y-67822518D01*
X154851128Y-67866985D01*
X154849501Y-67882123D01*
X154849500Y-67882135D01*
X154849500Y-68877870D01*
X154849501Y-68877876D01*
X154855908Y-68937481D01*
X154868659Y-68971669D01*
X154873642Y-69041361D01*
X154868659Y-69058331D01*
X154855908Y-69092518D01*
X154851395Y-69134500D01*
X154849501Y-69152123D01*
X154849500Y-69152135D01*
X154849500Y-70147870D01*
X154849501Y-70147876D01*
X154855908Y-70207481D01*
X154868659Y-70241669D01*
X154873642Y-70311361D01*
X154868659Y-70328331D01*
X154855908Y-70362518D01*
X154849501Y-70422116D01*
X154849501Y-70422123D01*
X154849500Y-70422135D01*
X154849500Y-71417870D01*
X154849501Y-71417876D01*
X154855908Y-71477481D01*
X154868659Y-71511669D01*
X154873642Y-71581361D01*
X154868659Y-71598331D01*
X154855908Y-71632518D01*
X154851790Y-71670827D01*
X154849501Y-71692123D01*
X154849500Y-71692135D01*
X154849500Y-72687870D01*
X154849501Y-72687876D01*
X154855908Y-72747481D01*
X154868659Y-72781669D01*
X154873642Y-72851361D01*
X154868659Y-72868331D01*
X154855908Y-72902518D01*
X154855377Y-72907461D01*
X154849501Y-72962123D01*
X154849500Y-72962135D01*
X154849500Y-73957870D01*
X154849501Y-73957876D01*
X154855908Y-74017481D01*
X154868659Y-74051669D01*
X154873642Y-74121361D01*
X154868659Y-74138331D01*
X154855908Y-74172518D01*
X154855858Y-74172987D01*
X154849501Y-74232123D01*
X154849500Y-74232135D01*
X154849500Y-74605500D01*
X154829815Y-74672539D01*
X154777011Y-74718294D01*
X154725500Y-74729500D01*
X153837129Y-74729500D01*
X153837123Y-74729501D01*
X153777518Y-74735908D01*
X153743331Y-74748659D01*
X153673639Y-74753642D01*
X153656669Y-74748659D01*
X153622480Y-74735908D01*
X153622482Y-74735908D01*
X153562883Y-74729501D01*
X153562881Y-74729500D01*
X153562873Y-74729500D01*
X153562864Y-74729500D01*
X152567129Y-74729500D01*
X152567123Y-74729501D01*
X152507518Y-74735908D01*
X152473331Y-74748659D01*
X152403639Y-74753642D01*
X152386669Y-74748659D01*
X152352480Y-74735908D01*
X152352482Y-74735908D01*
X152292883Y-74729501D01*
X152292881Y-74729500D01*
X152292873Y-74729500D01*
X152292864Y-74729500D01*
X151297129Y-74729500D01*
X151297123Y-74729501D01*
X151237518Y-74735908D01*
X151203331Y-74748659D01*
X151133639Y-74753642D01*
X151116669Y-74748659D01*
X151082480Y-74735908D01*
X151082482Y-74735908D01*
X151022883Y-74729501D01*
X151022881Y-74729500D01*
X151022873Y-74729500D01*
X151022864Y-74729500D01*
X150027129Y-74729500D01*
X150027123Y-74729501D01*
X149967518Y-74735908D01*
X149933331Y-74748659D01*
X149863639Y-74753642D01*
X149846669Y-74748659D01*
X149812480Y-74735908D01*
X149812482Y-74735908D01*
X149752883Y-74729501D01*
X149752881Y-74729500D01*
X149752873Y-74729500D01*
X149752864Y-74729500D01*
X148757129Y-74729500D01*
X148757123Y-74729501D01*
X148697518Y-74735908D01*
X148663331Y-74748659D01*
X148593639Y-74753642D01*
X148576669Y-74748659D01*
X148542480Y-74735908D01*
X148542482Y-74735908D01*
X148482883Y-74729501D01*
X148482881Y-74729500D01*
X148482873Y-74729500D01*
X148482864Y-74729500D01*
X147487129Y-74729500D01*
X147487123Y-74729501D01*
X147427518Y-74735908D01*
X147393331Y-74748659D01*
X147323639Y-74753642D01*
X147306669Y-74748659D01*
X147272480Y-74735908D01*
X147272482Y-74735908D01*
X147212883Y-74729501D01*
X147212881Y-74729500D01*
X147212873Y-74729500D01*
X147212864Y-74729500D01*
X146217129Y-74729500D01*
X146217123Y-74729501D01*
X146157518Y-74735908D01*
X146123331Y-74748659D01*
X146053639Y-74753642D01*
X146036669Y-74748659D01*
X146002480Y-74735908D01*
X146002482Y-74735908D01*
X145942883Y-74729501D01*
X145942881Y-74729500D01*
X145942873Y-74729500D01*
X145942864Y-74729500D01*
X144947129Y-74729500D01*
X144947123Y-74729501D01*
X144887518Y-74735908D01*
X144853331Y-74748659D01*
X144783639Y-74753642D01*
X144766669Y-74748659D01*
X144732480Y-74735908D01*
X144732482Y-74735908D01*
X144672883Y-74729501D01*
X144672881Y-74729500D01*
X144672873Y-74729500D01*
X144672864Y-74729500D01*
X143677129Y-74729500D01*
X143677123Y-74729501D01*
X143642753Y-74733196D01*
X143573994Y-74720789D01*
X143522857Y-74673178D01*
X143505500Y-74609906D01*
X143505500Y-68455634D01*
X143525185Y-68388595D01*
X143577989Y-68342840D01*
X143647147Y-68332896D01*
X143672833Y-68339452D01*
X143792517Y-68384091D01*
X143792516Y-68384091D01*
X143799444Y-68384835D01*
X143852127Y-68390500D01*
X147847872Y-68390499D01*
X147907483Y-68384091D01*
X148042331Y-68333796D01*
X148157546Y-68247546D01*
X148243796Y-68132331D01*
X148294091Y-67997483D01*
X148300500Y-67937873D01*
X148300499Y-65090095D01*
X148320184Y-65023057D01*
X148336813Y-65002420D01*
X154482416Y-58856819D01*
X154509343Y-58842115D01*
X154535162Y-58825523D01*
X154541362Y-58824631D01*
X154543739Y-58823334D01*
X154570097Y-58820500D01*
X154729906Y-58820500D01*
X154796945Y-58840185D01*
G37*
%TD.AperFunction*%
%TA.AperFunction,NonConductor*%
G36*
X139974399Y-66287459D02*
G01*
X139998473Y-66286599D01*
X140008342Y-66292454D01*
X140019693Y-66294125D01*
X140037845Y-66309959D01*
X140058562Y-66322251D01*
X140067015Y-66335404D01*
X140072346Y-66340054D01*
X140074272Y-66346695D01*
X140082371Y-66359297D01*
X140090605Y-66379178D01*
X140090609Y-66379185D01*
X140178210Y-66510288D01*
X140178213Y-66510292D01*
X140289707Y-66621786D01*
X140289711Y-66621789D01*
X140420814Y-66709390D01*
X140420827Y-66709397D01*
X140566498Y-66769735D01*
X140566503Y-66769737D01*
X140631147Y-66782595D01*
X140721849Y-66800638D01*
X140783760Y-66833023D01*
X140785339Y-66834574D01*
X142268181Y-68317416D01*
X142301666Y-68378739D01*
X142304500Y-68405097D01*
X142304500Y-74609906D01*
X142284815Y-74676945D01*
X142232011Y-74722700D01*
X142167247Y-74733195D01*
X142132873Y-74729500D01*
X142132865Y-74729500D01*
X141137129Y-74729500D01*
X141137123Y-74729501D01*
X141077518Y-74735908D01*
X141043331Y-74748659D01*
X140973639Y-74753642D01*
X140956669Y-74748659D01*
X140922480Y-74735908D01*
X140922482Y-74735908D01*
X140862883Y-74729501D01*
X140862881Y-74729500D01*
X140862873Y-74729500D01*
X140862865Y-74729500D01*
X139974499Y-74729500D01*
X139907460Y-74709815D01*
X139861705Y-74657011D01*
X139850499Y-74605500D01*
X139850499Y-74232129D01*
X139850498Y-74232123D01*
X139850497Y-74232116D01*
X139844091Y-74172517D01*
X139831340Y-74138332D01*
X139826357Y-74068642D01*
X139831340Y-74051669D01*
X139844091Y-74017483D01*
X139850500Y-73957873D01*
X139850499Y-72974499D01*
X139870183Y-72907461D01*
X139922987Y-72861706D01*
X139974499Y-72850500D01*
X140028844Y-72850500D01*
X140028845Y-72850499D01*
X140183497Y-72819737D01*
X140329179Y-72759394D01*
X140460289Y-72671789D01*
X140571789Y-72560289D01*
X140659394Y-72429179D01*
X140719737Y-72283497D01*
X140750500Y-72128842D01*
X140750500Y-71971158D01*
X140750500Y-71971155D01*
X140750499Y-71971153D01*
X140719738Y-71816510D01*
X140719737Y-71816503D01*
X140719735Y-71816498D01*
X140659397Y-71670827D01*
X140659390Y-71670814D01*
X140571789Y-71539711D01*
X140571786Y-71539707D01*
X140460292Y-71428213D01*
X140460288Y-71428210D01*
X140329185Y-71340609D01*
X140329172Y-71340602D01*
X140183501Y-71280264D01*
X140183489Y-71280261D01*
X140028845Y-71249500D01*
X140028842Y-71249500D01*
X139974499Y-71249500D01*
X139907460Y-71229815D01*
X139861705Y-71177011D01*
X139850499Y-71125500D01*
X139850499Y-70422129D01*
X139850498Y-70422123D01*
X139850497Y-70422116D01*
X139844091Y-70362517D01*
X139831340Y-70328332D01*
X139826357Y-70258642D01*
X139831340Y-70241669D01*
X139844091Y-70207483D01*
X139850500Y-70147873D01*
X139850499Y-69152128D01*
X139844091Y-69092517D01*
X139831340Y-69058332D01*
X139826357Y-68988642D01*
X139831340Y-68971669D01*
X139844091Y-68937483D01*
X139850500Y-68877873D01*
X139850499Y-67882128D01*
X139844091Y-67822517D01*
X139831340Y-67788332D01*
X139826357Y-67718642D01*
X139831340Y-67701669D01*
X139844091Y-67667483D01*
X139850500Y-67607873D01*
X139850499Y-66612128D01*
X139844091Y-66552517D01*
X139831340Y-66518332D01*
X139829747Y-66496047D01*
X139823524Y-66474590D01*
X139826890Y-66456103D01*
X139826357Y-66448642D01*
X139828662Y-66439672D01*
X139829864Y-66435626D01*
X139844091Y-66397483D01*
X139845728Y-66382251D01*
X139848948Y-66371420D01*
X139862037Y-66351200D01*
X139871256Y-66328943D01*
X139880682Y-66322397D01*
X139886917Y-66312767D01*
X139908860Y-66302833D01*
X139928648Y-66289094D01*
X139940114Y-66288684D01*
X139950568Y-66283952D01*
X139974399Y-66287459D01*
G37*
%TD.AperFunction*%
%TA.AperFunction,NonConductor*%
G36*
X133638333Y-70558414D02*
G01*
X133682680Y-70586915D01*
X135058181Y-71962416D01*
X135091666Y-72023739D01*
X135094500Y-72050097D01*
X135094500Y-73647870D01*
X135094501Y-73647876D01*
X135100908Y-73707483D01*
X135151202Y-73842328D01*
X135151206Y-73842335D01*
X135237452Y-73957544D01*
X135237455Y-73957547D01*
X135352664Y-74043793D01*
X135352671Y-74043797D01*
X135487517Y-74094091D01*
X135487516Y-74094091D01*
X135494444Y-74094835D01*
X135547127Y-74100500D01*
X136825500Y-74100499D01*
X136892539Y-74120184D01*
X136938294Y-74172987D01*
X136949500Y-74224499D01*
X136949500Y-75719468D01*
X136949499Y-75719472D01*
X136949499Y-75794283D01*
X136929814Y-75861322D01*
X136877009Y-75907076D01*
X136825238Y-75914519D01*
X136807852Y-75917019D01*
X136807851Y-75917018D01*
X136807850Y-75917019D01*
X136807848Y-75917018D01*
X136799627Y-75915333D01*
X136679361Y-75899500D01*
X136340636Y-75899500D01*
X136223246Y-75914953D01*
X136223237Y-75914956D01*
X136077160Y-75975463D01*
X135951718Y-76071718D01*
X135855463Y-76197160D01*
X135794956Y-76343237D01*
X135794955Y-76343239D01*
X135779500Y-76460638D01*
X135779500Y-76739363D01*
X135794953Y-76856753D01*
X135794956Y-76856761D01*
X135803773Y-76878048D01*
X135807279Y-76910667D01*
X135811949Y-76943145D01*
X135810994Y-76945234D01*
X135811240Y-76947517D01*
X135796552Y-76976858D01*
X135782924Y-77006701D01*
X135780993Y-77007941D01*
X135779965Y-77009996D01*
X135751745Y-77026739D01*
X135724147Y-77044476D01*
X135721115Y-77044911D01*
X135719875Y-77045648D01*
X135689212Y-77049499D01*
X135545943Y-77049499D01*
X135545939Y-77049499D01*
X135538332Y-77049500D01*
X135538331Y-77049499D01*
X135538331Y-77049500D01*
X133266666Y-77049500D01*
X133199627Y-77029815D01*
X133178984Y-77013180D01*
X133135692Y-76969887D01*
X133135684Y-76969881D01*
X132996393Y-76887505D01*
X132996390Y-76887504D01*
X132840997Y-76842357D01*
X132840991Y-76842356D01*
X132804697Y-76839500D01*
X132804690Y-76839500D01*
X132690098Y-76839500D01*
X132623059Y-76819815D01*
X132602417Y-76803181D01*
X131481819Y-75682583D01*
X131448334Y-75621260D01*
X131445500Y-75594902D01*
X131445500Y-74224499D01*
X131465185Y-74157460D01*
X131517989Y-74111705D01*
X131569500Y-74100499D01*
X131642871Y-74100499D01*
X131642872Y-74100499D01*
X131702483Y-74094091D01*
X131837331Y-74043796D01*
X131952546Y-73957546D01*
X132038796Y-73842331D01*
X132089091Y-73707483D01*
X132095500Y-73647873D01*
X132095499Y-72050095D01*
X132115184Y-71983057D01*
X132131813Y-71962420D01*
X133507320Y-70586913D01*
X133568641Y-70553430D01*
X133638333Y-70558414D01*
G37*
%TD.AperFunction*%
%TA.AperFunction,NonConductor*%
G36*
X144781467Y-77238622D02*
G01*
X144832605Y-77286232D01*
X144849884Y-77353932D01*
X144849698Y-77357605D01*
X144849500Y-77360629D01*
X144849500Y-77639363D01*
X144864953Y-77756753D01*
X144864957Y-77756765D01*
X144925461Y-77902836D01*
X144925461Y-77902837D01*
X144925463Y-77902840D01*
X144925464Y-77902841D01*
X144953876Y-77939869D01*
X144962119Y-77961189D01*
X144974477Y-77980419D01*
X144977392Y-78000697D01*
X144979070Y-78005036D01*
X144979500Y-78015354D01*
X144979500Y-78125959D01*
X144959815Y-78192998D01*
X144907011Y-78238753D01*
X144837853Y-78248697D01*
X144774297Y-78219672D01*
X144752398Y-78194850D01*
X144677139Y-78082218D01*
X144677136Y-78082214D01*
X144537785Y-77942863D01*
X144537781Y-77942860D01*
X144373920Y-77833371D01*
X144373907Y-77833364D01*
X144191839Y-77757950D01*
X144191829Y-77757947D01*
X143998543Y-77719500D01*
X143998541Y-77719500D01*
X143801459Y-77719500D01*
X143801454Y-77719500D01*
X143760190Y-77727708D01*
X143690598Y-77721481D01*
X143635421Y-77678617D01*
X143616923Y-77640686D01*
X143581745Y-77519606D01*
X143581744Y-77519603D01*
X143581744Y-77519602D01*
X143518558Y-77412761D01*
X143501376Y-77345038D01*
X143523536Y-77278775D01*
X143578002Y-77235012D01*
X143638547Y-77226352D01*
X143677127Y-77230500D01*
X144672872Y-77230499D01*
X144681163Y-77229607D01*
X144712708Y-77226217D01*
X144781467Y-77238622D01*
G37*
%TD.AperFunction*%
%TA.AperFunction,NonConductor*%
G36*
X153725034Y-77206451D02*
G01*
X153726358Y-77206357D01*
X153727336Y-77206644D01*
X153727823Y-77206685D01*
X153735730Y-77208505D01*
X153777517Y-77224091D01*
X153826112Y-77229315D01*
X153833323Y-77230976D01*
X153857591Y-77244611D01*
X153883307Y-77255263D01*
X153887628Y-77261487D01*
X153894236Y-77265200D01*
X153907277Y-77289787D01*
X153923155Y-77312655D01*
X153923425Y-77320230D01*
X153926976Y-77326924D01*
X153929500Y-77351814D01*
X153929500Y-77729169D01*
X153929501Y-77729191D01*
X153932335Y-77765205D01*
X153977129Y-77919388D01*
X153977132Y-77919395D01*
X154011128Y-77976881D01*
X154028309Y-78044605D01*
X154011128Y-78103119D01*
X153977132Y-78160604D01*
X153977129Y-78160611D01*
X153932335Y-78314791D01*
X153932334Y-78314797D01*
X153929500Y-78350811D01*
X153929500Y-78469902D01*
X153920854Y-78499345D01*
X153914332Y-78529328D01*
X153910577Y-78534343D01*
X153909815Y-78536941D01*
X153893185Y-78557578D01*
X153787582Y-78663182D01*
X153726262Y-78696666D01*
X153699903Y-78699500D01*
X148016916Y-78699500D01*
X147949877Y-78679815D01*
X147904122Y-78627011D01*
X147902425Y-78622887D01*
X147817032Y-78450707D01*
X147817030Y-78450704D01*
X147697722Y-78302278D01*
X147697721Y-78302277D01*
X147549295Y-78182969D01*
X147549292Y-78182967D01*
X147372671Y-78095372D01*
X147373376Y-78093948D01*
X147323817Y-78057225D01*
X147299080Y-77991881D01*
X147313597Y-77923536D01*
X147319617Y-77913539D01*
X147321789Y-77910289D01*
X147409394Y-77779179D01*
X147469737Y-77633497D01*
X147500500Y-77478842D01*
X147500500Y-77354499D01*
X147520185Y-77287460D01*
X147572989Y-77241705D01*
X147624496Y-77230499D01*
X148482872Y-77230499D01*
X148542483Y-77224091D01*
X148576667Y-77211340D01*
X148646358Y-77206357D01*
X148663327Y-77211338D01*
X148697517Y-77224091D01*
X148757127Y-77230500D01*
X149752872Y-77230499D01*
X149812483Y-77224091D01*
X149846667Y-77211340D01*
X149916358Y-77206357D01*
X149933327Y-77211338D01*
X149967517Y-77224091D01*
X150027127Y-77230500D01*
X151022872Y-77230499D01*
X151082483Y-77224091D01*
X151116667Y-77211340D01*
X151186358Y-77206357D01*
X151203327Y-77211338D01*
X151237517Y-77224091D01*
X151297127Y-77230500D01*
X152292872Y-77230499D01*
X152352483Y-77224091D01*
X152386667Y-77211340D01*
X152456358Y-77206357D01*
X152473327Y-77211338D01*
X152507517Y-77224091D01*
X152567127Y-77230500D01*
X153562872Y-77230499D01*
X153622483Y-77224091D01*
X153656667Y-77211340D01*
X153675182Y-77210016D01*
X153692651Y-77203741D01*
X153725034Y-77206451D01*
G37*
%TD.AperFunction*%
%TA.AperFunction,NonConductor*%
G36*
X151149393Y-79904593D02*
G01*
X151163901Y-79903807D01*
X151182246Y-79914240D01*
X151202493Y-79920185D01*
X151212005Y-79931163D01*
X151224636Y-79938346D01*
X151234429Y-79957041D01*
X151248248Y-79972989D01*
X151250908Y-79988500D01*
X151257057Y-80000238D01*
X151258967Y-80035481D01*
X151249500Y-80141966D01*
X151249500Y-80875500D01*
X151229815Y-80942539D01*
X151177011Y-80988294D01*
X151125500Y-80999500D01*
X148016916Y-80999500D01*
X147949877Y-80979815D01*
X147904122Y-80927011D01*
X147902425Y-80922887D01*
X147817032Y-80750707D01*
X147817030Y-80750704D01*
X147697722Y-80602278D01*
X147697721Y-80602277D01*
X147628514Y-80546647D01*
X147588595Y-80489304D01*
X147586015Y-80419482D01*
X147621594Y-80359349D01*
X147628514Y-80353353D01*
X147637909Y-80345800D01*
X147697722Y-80297722D01*
X147817030Y-80149296D01*
X147879875Y-80022581D01*
X147904628Y-79972671D01*
X147906535Y-79973617D01*
X147942131Y-79925590D01*
X148007478Y-79900860D01*
X148016916Y-79900500D01*
X151135454Y-79900500D01*
X151149393Y-79904593D01*
G37*
%TD.AperFunction*%
%TA.AperFunction,NonConductor*%
G36*
X144509996Y-80728726D02*
G01*
X144545648Y-80788815D01*
X144549500Y-80819481D01*
X144549500Y-81350902D01*
X144529815Y-81417941D01*
X144477011Y-81463696D01*
X144407853Y-81473640D01*
X144344297Y-81444615D01*
X144337819Y-81438583D01*
X143930032Y-81030796D01*
X143896547Y-80969473D01*
X143901531Y-80899781D01*
X143943403Y-80843848D01*
X143993522Y-80821498D01*
X143998539Y-80820500D01*
X143998541Y-80820500D01*
X144191835Y-80782051D01*
X144320574Y-80728726D01*
X144378048Y-80704920D01*
X144447517Y-80697451D01*
X144509996Y-80728726D01*
G37*
%TD.AperFunction*%
%TA.AperFunction,NonConductor*%
G36*
X146866939Y-85170184D02*
G01*
X146887578Y-85186815D01*
X146903178Y-85202414D01*
X146936665Y-85263736D01*
X146939500Y-85290098D01*
X146939500Y-86087037D01*
X146919815Y-86154076D01*
X146867011Y-86199831D01*
X146797853Y-86209775D01*
X146734297Y-86180750D01*
X146727819Y-86174718D01*
X145915281Y-85362180D01*
X145881796Y-85300857D01*
X145886780Y-85231165D01*
X145928652Y-85175232D01*
X145994116Y-85150815D01*
X146002962Y-85150499D01*
X146799900Y-85150499D01*
X146866939Y-85170184D01*
G37*
%TD.AperFunction*%
%TA.AperFunction,NonConductor*%
G36*
X151192540Y-82220185D02*
G01*
X151238295Y-82272989D01*
X151249501Y-82324500D01*
X151249501Y-83058034D01*
X151260113Y-83177413D01*
X151260113Y-83177415D01*
X151260114Y-83177418D01*
X151300700Y-83319259D01*
X151304716Y-83333294D01*
X151309500Y-83367406D01*
X151309500Y-85967541D01*
X151289815Y-86034580D01*
X151237011Y-86080335D01*
X151175772Y-86091159D01*
X151154697Y-86089500D01*
X151154690Y-86089500D01*
X150745310Y-86089500D01*
X150745302Y-86089500D01*
X150709008Y-86092356D01*
X150709002Y-86092357D01*
X150553609Y-86137504D01*
X150553606Y-86137505D01*
X150414315Y-86219881D01*
X150414307Y-86219887D01*
X150371016Y-86263180D01*
X150309693Y-86296666D01*
X150283334Y-86299500D01*
X149166666Y-86299500D01*
X149099627Y-86279815D01*
X149078984Y-86263180D01*
X149035692Y-86219887D01*
X149035684Y-86219881D01*
X148896393Y-86137505D01*
X148896390Y-86137504D01*
X148740997Y-86092357D01*
X148740991Y-86092356D01*
X148704697Y-86089500D01*
X148704690Y-86089500D01*
X148295310Y-86089500D01*
X148295302Y-86089500D01*
X148274228Y-86091159D01*
X148205851Y-86076794D01*
X148156094Y-86027743D01*
X148140500Y-85967541D01*
X148140500Y-85079060D01*
X148140501Y-85079047D01*
X148140501Y-84910944D01*
X148099576Y-84758214D01*
X148099573Y-84758209D01*
X148020524Y-84621290D01*
X148020518Y-84621282D01*
X147966407Y-84567171D01*
X147932922Y-84505848D01*
X147933754Y-84449563D01*
X147947600Y-84393889D01*
X147950500Y-84351123D01*
X147950499Y-83448878D01*
X147947600Y-83406111D01*
X147901641Y-83221307D01*
X147820667Y-83058037D01*
X147817032Y-83050707D01*
X147817030Y-83050704D01*
X147697722Y-82902278D01*
X147697721Y-82902277D01*
X147628514Y-82846647D01*
X147588595Y-82789304D01*
X147586015Y-82719482D01*
X147621594Y-82659349D01*
X147628514Y-82653353D01*
X147648503Y-82637285D01*
X147697722Y-82597722D01*
X147817030Y-82449296D01*
X147865654Y-82351255D01*
X147904628Y-82272671D01*
X147906535Y-82273617D01*
X147942131Y-82225590D01*
X148007478Y-82200860D01*
X148016916Y-82200500D01*
X151125501Y-82200500D01*
X151192540Y-82220185D01*
G37*
%TD.AperFunction*%
%TA.AperFunction,NonConductor*%
G36*
X137292539Y-57870185D02*
G01*
X137338294Y-57922989D01*
X137349500Y-57974500D01*
X137349500Y-58717870D01*
X137349501Y-58717876D01*
X137355908Y-58777481D01*
X137368659Y-58811669D01*
X137370543Y-58838030D01*
X137376160Y-58863847D01*
X137373322Y-58876891D01*
X137373642Y-58881361D01*
X137368658Y-58898334D01*
X137367015Y-58902739D01*
X137325143Y-58958672D01*
X137259679Y-58983089D01*
X137196896Y-58969431D01*
X137196551Y-58970229D01*
X137192495Y-58968474D01*
X137191406Y-58968237D01*
X137189676Y-58967254D01*
X137189388Y-58967129D01*
X137035208Y-58922335D01*
X137035202Y-58922334D01*
X136999181Y-58919500D01*
X136500830Y-58919500D01*
X136500808Y-58919501D01*
X136464794Y-58922335D01*
X136310611Y-58967129D01*
X136310606Y-58967131D01*
X136172404Y-59048863D01*
X136172396Y-59048869D01*
X136058869Y-59162396D01*
X136058863Y-59162404D01*
X135977131Y-59300606D01*
X135977129Y-59300611D01*
X135932335Y-59454791D01*
X135932334Y-59454797D01*
X135929500Y-59490811D01*
X135929500Y-59609902D01*
X135909815Y-59676941D01*
X135893181Y-59697583D01*
X134580180Y-61010583D01*
X134518857Y-61044068D01*
X134449165Y-61039084D01*
X134404818Y-61010583D01*
X133872590Y-60478355D01*
X133872588Y-60478352D01*
X133753717Y-60359481D01*
X133753716Y-60359480D01*
X133666904Y-60309360D01*
X133666904Y-60309359D01*
X133666900Y-60309358D01*
X133616785Y-60280423D01*
X133464057Y-60239499D01*
X133305943Y-60239499D01*
X133298347Y-60239499D01*
X133298331Y-60239500D01*
X132352923Y-60239500D01*
X132194808Y-60239500D01*
X132042081Y-60280423D01*
X132042080Y-60280423D01*
X132042078Y-60280424D01*
X132042075Y-60280425D01*
X131991962Y-60309359D01*
X131991961Y-60309360D01*
X131948555Y-60334420D01*
X131905151Y-60359479D01*
X131905148Y-60359481D01*
X131661449Y-60603181D01*
X131600126Y-60636666D01*
X131573768Y-60639500D01*
X131435302Y-60639500D01*
X131399008Y-60642356D01*
X131399002Y-60642357D01*
X131243609Y-60687504D01*
X131243606Y-60687505D01*
X131104315Y-60769881D01*
X131104307Y-60769887D01*
X130989887Y-60884307D01*
X130989881Y-60884315D01*
X130907505Y-61023606D01*
X130907504Y-61023609D01*
X130862357Y-61179002D01*
X130862356Y-61179008D01*
X130859500Y-61215302D01*
X130859500Y-61684697D01*
X130862356Y-61720991D01*
X130862357Y-61720997D01*
X130907504Y-61876390D01*
X130907505Y-61876393D01*
X130907506Y-61876395D01*
X130989883Y-62015687D01*
X131003180Y-62028984D01*
X131036666Y-62090305D01*
X131039500Y-62116666D01*
X131039500Y-63009865D01*
X131031682Y-63053198D01*
X130990908Y-63162517D01*
X130984501Y-63222116D01*
X130984500Y-63222135D01*
X130984500Y-63291183D01*
X130964815Y-63358222D01*
X130922501Y-63398570D01*
X130886284Y-63419479D01*
X130704482Y-63601281D01*
X130704480Y-63601283D01*
X130704480Y-63601284D01*
X130661225Y-63676204D01*
X130625423Y-63738215D01*
X130584499Y-63890943D01*
X130584499Y-63890945D01*
X130584499Y-64059046D01*
X130584500Y-64059059D01*
X130584500Y-65169902D01*
X130564815Y-65236941D01*
X130548181Y-65257583D01*
X130319481Y-65486282D01*
X130319479Y-65486285D01*
X130275891Y-65561784D01*
X130275889Y-65561786D01*
X130240425Y-65623209D01*
X130240423Y-65623212D01*
X130217038Y-65710489D01*
X130199499Y-65775943D01*
X130199499Y-65775945D01*
X130199499Y-65944046D01*
X130199500Y-65944059D01*
X130199500Y-66403333D01*
X130179815Y-66470372D01*
X130163181Y-66491014D01*
X130119887Y-66534307D01*
X130119881Y-66534315D01*
X130037505Y-66673606D01*
X130037504Y-66673609D01*
X129992357Y-66829002D01*
X129992356Y-66829008D01*
X129989500Y-66865302D01*
X129989500Y-67274697D01*
X129992356Y-67310991D01*
X129992357Y-67310997D01*
X130037504Y-67466391D01*
X130037506Y-67466397D01*
X130049620Y-67486880D01*
X130066801Y-67554604D01*
X130049620Y-67613120D01*
X130037506Y-67633602D01*
X130037504Y-67633608D01*
X129992357Y-67789002D01*
X129992356Y-67789008D01*
X129989500Y-67825302D01*
X129989500Y-67939902D01*
X129969815Y-68006941D01*
X129953181Y-68027583D01*
X129314481Y-68666282D01*
X129314479Y-68666285D01*
X129264361Y-68753094D01*
X129264359Y-68753096D01*
X129235425Y-68803209D01*
X129235424Y-68803210D01*
X129230064Y-68823213D01*
X129194499Y-68955943D01*
X129194499Y-68955945D01*
X129194499Y-69124046D01*
X129194500Y-69124059D01*
X129194500Y-75718330D01*
X129194499Y-75718348D01*
X129194499Y-75884054D01*
X129194498Y-75884054D01*
X129235423Y-76036785D01*
X129242140Y-76048419D01*
X129314477Y-76173712D01*
X129314481Y-76173717D01*
X129433349Y-76292585D01*
X129433355Y-76292590D01*
X130823181Y-77682416D01*
X130856666Y-77743739D01*
X130859500Y-77770097D01*
X130859500Y-77884697D01*
X130862356Y-77920991D01*
X130862357Y-77920997D01*
X130907504Y-78076390D01*
X130907505Y-78076393D01*
X130907506Y-78076395D01*
X130923311Y-78103119D01*
X130989881Y-78215684D01*
X130989887Y-78215692D01*
X131104307Y-78330112D01*
X131104311Y-78330115D01*
X131104313Y-78330117D01*
X131243605Y-78412494D01*
X131276152Y-78421950D01*
X131399002Y-78457642D01*
X131399005Y-78457642D01*
X131399007Y-78457643D01*
X131435310Y-78460500D01*
X131435318Y-78460500D01*
X131844682Y-78460500D01*
X131844690Y-78460500D01*
X131880993Y-78457643D01*
X131880995Y-78457642D01*
X131880997Y-78457642D01*
X131921975Y-78445736D01*
X132036395Y-78412494D01*
X132056879Y-78400379D01*
X132124601Y-78383196D01*
X132183119Y-78400379D01*
X132203605Y-78412494D01*
X132203607Y-78412494D01*
X132203608Y-78412495D01*
X132359002Y-78457642D01*
X132359005Y-78457642D01*
X132359007Y-78457643D01*
X132395310Y-78460500D01*
X132395318Y-78460500D01*
X132804682Y-78460500D01*
X132804690Y-78460500D01*
X132840993Y-78457643D01*
X132840995Y-78457642D01*
X132840997Y-78457642D01*
X132881975Y-78445736D01*
X132996395Y-78412494D01*
X133135687Y-78330117D01*
X133178984Y-78286820D01*
X133240307Y-78253334D01*
X133266666Y-78250500D01*
X134185961Y-78250500D01*
X134253000Y-78270185D01*
X134298755Y-78322989D01*
X134308699Y-78392147D01*
X134300523Y-78421950D01*
X134297950Y-78428160D01*
X134297947Y-78428170D01*
X134259500Y-78621456D01*
X134259500Y-78621459D01*
X134259500Y-79918541D01*
X134259500Y-79918543D01*
X134259499Y-79918543D01*
X134297947Y-80111829D01*
X134297950Y-80111839D01*
X134373364Y-80293907D01*
X134373371Y-80293920D01*
X134482860Y-80457781D01*
X134482863Y-80457785D01*
X134622214Y-80597136D01*
X134622218Y-80597139D01*
X134786079Y-80706628D01*
X134786092Y-80706635D01*
X134922746Y-80763238D01*
X134968165Y-80782051D01*
X134968167Y-80782051D01*
X134968169Y-80782052D01*
X134972734Y-80782959D01*
X134979141Y-80784234D01*
X134988147Y-80788944D01*
X134998288Y-80789670D01*
X135018587Y-80804865D01*
X135041053Y-80816616D01*
X135046083Y-80825448D01*
X135054222Y-80831541D01*
X135063083Y-80855299D01*
X135075630Y-80877330D01*
X135075086Y-80887480D01*
X135078639Y-80897006D01*
X135073249Y-80921783D01*
X135071893Y-80947100D01*
X135065552Y-80957163D01*
X135063787Y-80965279D01*
X135042637Y-80993533D01*
X134891286Y-81144884D01*
X134891285Y-81144884D01*
X134891284Y-81144885D01*
X134779481Y-81256688D01*
X134779480Y-81256690D01*
X134736559Y-81331032D01*
X134700423Y-81393621D01*
X134659499Y-81546349D01*
X134659499Y-81546351D01*
X134659499Y-81714452D01*
X134659500Y-81714465D01*
X134659500Y-82284216D01*
X134639815Y-82351255D01*
X134623181Y-82371897D01*
X134482863Y-82512214D01*
X134482860Y-82512218D01*
X134373371Y-82676079D01*
X134373364Y-82676092D01*
X134297950Y-82858160D01*
X134297947Y-82858170D01*
X134259500Y-83051456D01*
X134259500Y-83051459D01*
X134259500Y-83848541D01*
X134259500Y-83848543D01*
X134259499Y-83848543D01*
X134297947Y-84041829D01*
X134297950Y-84041839D01*
X134373364Y-84223907D01*
X134373371Y-84223920D01*
X134482860Y-84387781D01*
X134482863Y-84387785D01*
X134622214Y-84527136D01*
X134622218Y-84527139D01*
X134786079Y-84636628D01*
X134786092Y-84636635D01*
X134882428Y-84676538D01*
X134968165Y-84712051D01*
X134968169Y-84712051D01*
X134968170Y-84712052D01*
X135161456Y-84750500D01*
X135161459Y-84750500D01*
X135358543Y-84750500D01*
X135517830Y-84718815D01*
X135551835Y-84712051D01*
X135733914Y-84636632D01*
X135897782Y-84527139D01*
X136037139Y-84387782D01*
X136146632Y-84223914D01*
X136222051Y-84041835D01*
X136260500Y-83848541D01*
X136260500Y-83051459D01*
X136260500Y-83051456D01*
X136222052Y-82858170D01*
X136222051Y-82858169D01*
X136222051Y-82858165D01*
X136193528Y-82789304D01*
X136146635Y-82676092D01*
X136146628Y-82676079D01*
X136037139Y-82512218D01*
X136037136Y-82512214D01*
X135896819Y-82371897D01*
X135863334Y-82310574D01*
X135860500Y-82284216D01*
X135860500Y-81925503D01*
X135880185Y-81858464D01*
X135896819Y-81837822D01*
X136622823Y-81111819D01*
X136684146Y-81078334D01*
X136710504Y-81075500D01*
X142224902Y-81075500D01*
X142254338Y-81084143D01*
X142284328Y-81090667D01*
X142289344Y-81094422D01*
X142291941Y-81095185D01*
X142312577Y-81111813D01*
X142380878Y-81180114D01*
X142380880Y-81180115D01*
X142387950Y-81187185D01*
X143263181Y-82062416D01*
X143296666Y-82123739D01*
X143299500Y-82150097D01*
X143299500Y-82284216D01*
X143279815Y-82351255D01*
X143263181Y-82371897D01*
X143122863Y-82512214D01*
X143122860Y-82512218D01*
X143013371Y-82676079D01*
X143013364Y-82676092D01*
X142937950Y-82858160D01*
X142937947Y-82858170D01*
X142899500Y-83051456D01*
X142899500Y-83051459D01*
X142899500Y-83848541D01*
X142899500Y-83848543D01*
X142899499Y-83848543D01*
X142937947Y-84041829D01*
X142937950Y-84041839D01*
X143013364Y-84223907D01*
X143013371Y-84223920D01*
X143122860Y-84387781D01*
X143122863Y-84387785D01*
X143262214Y-84527136D01*
X143262218Y-84527139D01*
X143426079Y-84636628D01*
X143426092Y-84636635D01*
X143522428Y-84676538D01*
X143608165Y-84712051D01*
X143608169Y-84712051D01*
X143608170Y-84712052D01*
X143801456Y-84750500D01*
X143801459Y-84750500D01*
X143998543Y-84750500D01*
X144157830Y-84718815D01*
X144191835Y-84712051D01*
X144320574Y-84658726D01*
X144378048Y-84634920D01*
X144447517Y-84627451D01*
X144509996Y-84658726D01*
X144545648Y-84718815D01*
X144549500Y-84749481D01*
X144549500Y-85359464D01*
X144549499Y-85359482D01*
X144549499Y-85525188D01*
X144549498Y-85525188D01*
X144580623Y-85641348D01*
X144590423Y-85677919D01*
X144615193Y-85720821D01*
X144669479Y-85814848D01*
X144669481Y-85814851D01*
X144788349Y-85933719D01*
X144788355Y-85933724D01*
X146729005Y-87874374D01*
X146729015Y-87874385D01*
X146733345Y-87878715D01*
X146733346Y-87878716D01*
X146845150Y-87990520D01*
X146931961Y-88040639D01*
X146931963Y-88040641D01*
X146978416Y-88067461D01*
X146982081Y-88069577D01*
X147134808Y-88110500D01*
X147134809Y-88110500D01*
X147803331Y-88110500D01*
X147803347Y-88110501D01*
X147810943Y-88110501D01*
X147969054Y-88110501D01*
X147969057Y-88110501D01*
X148121785Y-88069577D01*
X148171904Y-88040639D01*
X148258716Y-87990520D01*
X148370520Y-87878716D01*
X148370521Y-87878713D01*
X148502417Y-87746818D01*
X148563741Y-87713334D01*
X148590098Y-87710500D01*
X148704682Y-87710500D01*
X148704690Y-87710500D01*
X148740993Y-87707643D01*
X148740995Y-87707642D01*
X148740997Y-87707642D01*
X148781975Y-87695736D01*
X148896395Y-87662494D01*
X149035687Y-87580117D01*
X149078984Y-87536820D01*
X149140307Y-87503334D01*
X149166666Y-87500500D01*
X150283334Y-87500500D01*
X150350373Y-87520185D01*
X150371016Y-87536820D01*
X150414307Y-87580112D01*
X150414311Y-87580115D01*
X150414313Y-87580117D01*
X150553605Y-87662494D01*
X150594587Y-87674400D01*
X150709002Y-87707642D01*
X150709005Y-87707642D01*
X150709007Y-87707643D01*
X150745310Y-87710500D01*
X150745318Y-87710500D01*
X151154682Y-87710500D01*
X151154690Y-87710500D01*
X151190993Y-87707643D01*
X151190995Y-87707642D01*
X151190997Y-87707642D01*
X151231975Y-87695736D01*
X151346395Y-87662494D01*
X151366879Y-87650379D01*
X151434601Y-87633196D01*
X151493119Y-87650379D01*
X151513605Y-87662494D01*
X151513607Y-87662494D01*
X151513608Y-87662495D01*
X151669002Y-87707642D01*
X151669005Y-87707642D01*
X151669007Y-87707643D01*
X151705310Y-87710500D01*
X151705318Y-87710500D01*
X152114682Y-87710500D01*
X152114690Y-87710500D01*
X152150993Y-87707643D01*
X152150995Y-87707642D01*
X152150997Y-87707642D01*
X152191975Y-87695736D01*
X152306395Y-87662494D01*
X152445687Y-87580117D01*
X152560117Y-87465687D01*
X152642494Y-87326395D01*
X152687643Y-87170993D01*
X152690500Y-87134690D01*
X152690500Y-86665310D01*
X152687643Y-86629007D01*
X152686644Y-86625570D01*
X152642495Y-86473609D01*
X152642494Y-86473606D01*
X152642494Y-86473605D01*
X152560117Y-86334313D01*
X152560115Y-86334311D01*
X152560112Y-86334307D01*
X152546819Y-86321014D01*
X152513334Y-86259691D01*
X152510500Y-86233333D01*
X152510500Y-84124499D01*
X152530185Y-84057460D01*
X152582989Y-84011705D01*
X152634500Y-84000499D01*
X153308028Y-84000499D01*
X153308036Y-84000499D01*
X153427418Y-83989886D01*
X153623049Y-83933909D01*
X153803407Y-83839698D01*
X153961109Y-83711109D01*
X154089698Y-83553407D01*
X154183909Y-83373049D01*
X154239886Y-83177418D01*
X154250500Y-83058037D01*
X154250499Y-80226134D01*
X163824500Y-80226134D01*
X163824500Y-80458865D01*
X163824501Y-80458882D01*
X163853487Y-80679057D01*
X163854879Y-80689626D01*
X163909542Y-80893632D01*
X163915120Y-80914447D01*
X164004180Y-81129460D01*
X164004188Y-81129476D01*
X164120553Y-81331024D01*
X164120557Y-81331031D01*
X164120559Y-81331033D01*
X164262242Y-81515679D01*
X164262248Y-81515686D01*
X164426813Y-81680251D01*
X164426819Y-81680256D01*
X164611468Y-81821942D01*
X164611475Y-81821946D01*
X164813023Y-81938311D01*
X164813039Y-81938319D01*
X165028052Y-82027379D01*
X165028054Y-82027379D01*
X165028060Y-82027382D01*
X165252874Y-82087621D01*
X165483628Y-82118000D01*
X165483635Y-82118000D01*
X165716365Y-82118000D01*
X165716372Y-82118000D01*
X165947126Y-82087621D01*
X166171940Y-82027382D01*
X166229953Y-82003352D01*
X166386960Y-81938319D01*
X166386963Y-81938317D01*
X166386969Y-81938315D01*
X166588532Y-81821942D01*
X166773181Y-81680256D01*
X166937756Y-81515681D01*
X167079442Y-81331032D01*
X167195815Y-81129469D01*
X167214590Y-81084143D01*
X167284879Y-80914447D01*
X167284878Y-80914447D01*
X167284882Y-80914440D01*
X167345121Y-80689626D01*
X167375500Y-80458872D01*
X167375500Y-80226128D01*
X167345121Y-79995374D01*
X167284882Y-79770560D01*
X167267602Y-79728842D01*
X167195819Y-79555539D01*
X167195811Y-79555523D01*
X167079446Y-79353975D01*
X167079442Y-79353968D01*
X166937756Y-79169319D01*
X166937751Y-79169313D01*
X166773186Y-79004748D01*
X166773179Y-79004742D01*
X166588540Y-78863064D01*
X166588538Y-78863062D01*
X166588532Y-78863058D01*
X166588527Y-78863055D01*
X166588524Y-78863053D01*
X166386976Y-78746688D01*
X166386960Y-78746680D01*
X166171947Y-78657620D01*
X166057713Y-78627011D01*
X165947126Y-78597379D01*
X165947125Y-78597378D01*
X165947122Y-78597378D01*
X165716382Y-78567001D01*
X165716377Y-78567000D01*
X165716372Y-78567000D01*
X165483628Y-78567000D01*
X165483622Y-78567000D01*
X165483617Y-78567001D01*
X165252877Y-78597378D01*
X165028052Y-78657620D01*
X164813039Y-78746680D01*
X164813023Y-78746688D01*
X164611475Y-78863053D01*
X164611459Y-78863064D01*
X164426820Y-79004742D01*
X164426813Y-79004748D01*
X164262248Y-79169313D01*
X164262242Y-79169320D01*
X164120564Y-79353959D01*
X164120553Y-79353975D01*
X164004188Y-79555523D01*
X164004180Y-79555539D01*
X163915120Y-79770552D01*
X163854878Y-79995377D01*
X163824501Y-80226117D01*
X163824500Y-80226134D01*
X154250499Y-80226134D01*
X154250499Y-80141964D01*
X154239886Y-80022582D01*
X154225344Y-79971760D01*
X154225542Y-79942916D01*
X154222797Y-79914196D01*
X154225781Y-79908406D01*
X154225826Y-79901894D01*
X154241589Y-79877734D01*
X154254806Y-79852090D01*
X154262025Y-79846412D01*
X154264005Y-79843378D01*
X154282540Y-79830272D01*
X154288294Y-79826951D01*
X154368716Y-79780520D01*
X154480520Y-79668716D01*
X154480520Y-79668714D01*
X154490724Y-79658511D01*
X154490728Y-79658506D01*
X154792416Y-79356818D01*
X154853739Y-79323333D01*
X154880097Y-79320499D01*
X154999168Y-79320499D01*
X154999180Y-79320499D01*
X155035204Y-79317665D01*
X155189393Y-79272869D01*
X155327598Y-79191135D01*
X155441135Y-79077598D01*
X155522869Y-78939393D01*
X155567665Y-78785204D01*
X155570500Y-78749181D01*
X155570499Y-78350820D01*
X155567665Y-78314796D01*
X155522869Y-78160607D01*
X155488869Y-78103117D01*
X155471688Y-78035398D01*
X155488869Y-77976882D01*
X155522869Y-77919393D01*
X155563604Y-77779184D01*
X155567664Y-77765208D01*
X155567664Y-77765206D01*
X155567665Y-77765204D01*
X155570500Y-77729181D01*
X155570499Y-77610095D01*
X155590183Y-77543057D01*
X155606813Y-77522420D01*
X156458506Y-76670728D01*
X156458511Y-76670724D01*
X156468714Y-76660520D01*
X156468716Y-76660520D01*
X156580520Y-76548716D01*
X156648030Y-76431784D01*
X156659577Y-76411785D01*
X156700500Y-76259058D01*
X156700500Y-76100943D01*
X156700500Y-75804499D01*
X156720185Y-75737460D01*
X156772989Y-75691705D01*
X156824500Y-75680499D01*
X156897871Y-75680499D01*
X156897872Y-75680499D01*
X156957483Y-75674091D01*
X156968489Y-75669986D01*
X163349500Y-75669986D01*
X163349500Y-75965013D01*
X163380064Y-76197159D01*
X163388007Y-76257493D01*
X163464361Y-76542451D01*
X163464364Y-76542461D01*
X163577254Y-76815000D01*
X163577258Y-76815010D01*
X163724761Y-77070493D01*
X163904352Y-77304540D01*
X163904358Y-77304547D01*
X164112952Y-77513141D01*
X164112959Y-77513147D01*
X164347006Y-77692738D01*
X164602489Y-77840241D01*
X164602490Y-77840241D01*
X164602493Y-77840243D01*
X164793566Y-77919388D01*
X164850239Y-77942863D01*
X164875048Y-77953139D01*
X165160007Y-78029493D01*
X165452494Y-78068000D01*
X165452501Y-78068000D01*
X165747499Y-78068000D01*
X165747506Y-78068000D01*
X166039993Y-78029493D01*
X166324952Y-77953139D01*
X166597507Y-77840243D01*
X166852994Y-77692738D01*
X167087042Y-77513146D01*
X167295646Y-77304542D01*
X167475238Y-77070494D01*
X167622743Y-76815007D01*
X167735639Y-76542452D01*
X167811993Y-76257493D01*
X167850500Y-75965006D01*
X167850500Y-75669994D01*
X167811993Y-75377507D01*
X167735639Y-75092548D01*
X167622743Y-74819993D01*
X167584435Y-74753642D01*
X167475238Y-74564506D01*
X167295647Y-74330459D01*
X167295641Y-74330452D01*
X167087047Y-74121858D01*
X167087040Y-74121852D01*
X166852993Y-73942261D01*
X166597510Y-73794758D01*
X166597500Y-73794754D01*
X166324961Y-73681864D01*
X166324954Y-73681862D01*
X166324952Y-73681861D01*
X166039993Y-73605507D01*
X165991113Y-73599071D01*
X165747513Y-73567000D01*
X165747506Y-73567000D01*
X165452494Y-73567000D01*
X165452486Y-73567000D01*
X165174085Y-73603653D01*
X165160007Y-73605507D01*
X165001905Y-73647870D01*
X164875048Y-73681861D01*
X164875038Y-73681864D01*
X164602499Y-73794754D01*
X164602489Y-73794758D01*
X164347006Y-73942261D01*
X164112959Y-74121852D01*
X164112952Y-74121858D01*
X163904358Y-74330452D01*
X163904352Y-74330459D01*
X163724761Y-74564506D01*
X163577258Y-74819989D01*
X163577254Y-74819999D01*
X163464364Y-75092538D01*
X163464361Y-75092548D01*
X163428104Y-75227864D01*
X163388008Y-75377504D01*
X163388006Y-75377515D01*
X163349500Y-75669986D01*
X156968489Y-75669986D01*
X157092331Y-75623796D01*
X157207546Y-75537546D01*
X157293796Y-75422331D01*
X157344091Y-75287483D01*
X157350500Y-75227873D01*
X157350499Y-74232128D01*
X157344091Y-74172517D01*
X157331340Y-74138332D01*
X157326357Y-74068642D01*
X157331340Y-74051669D01*
X157344091Y-74017483D01*
X157350500Y-73957873D01*
X157350499Y-72962128D01*
X157344091Y-72902517D01*
X157331340Y-72868332D01*
X157326357Y-72798642D01*
X157331340Y-72781669D01*
X157344091Y-72747483D01*
X157350500Y-72687873D01*
X157350499Y-71692128D01*
X157344091Y-71632517D01*
X157331340Y-71598332D01*
X157326357Y-71528642D01*
X157331340Y-71511669D01*
X157344091Y-71477483D01*
X157350500Y-71417873D01*
X157350499Y-70422128D01*
X157344091Y-70362517D01*
X157331340Y-70328332D01*
X157326357Y-70258642D01*
X157331340Y-70241669D01*
X157344091Y-70207483D01*
X157350500Y-70147873D01*
X157350499Y-69152128D01*
X157344091Y-69092517D01*
X157331340Y-69058332D01*
X157326357Y-68988642D01*
X157331340Y-68971669D01*
X157344091Y-68937483D01*
X157350500Y-68877873D01*
X157350499Y-67882128D01*
X157344091Y-67822517D01*
X157331340Y-67788332D01*
X157326357Y-67718642D01*
X157331340Y-67701669D01*
X157344091Y-67667483D01*
X157350500Y-67607873D01*
X157350499Y-66612128D01*
X157344091Y-66552517D01*
X157331340Y-66518332D01*
X157326357Y-66448642D01*
X157331340Y-66431669D01*
X157344091Y-66397483D01*
X157350500Y-66337873D01*
X157350499Y-65342128D01*
X157344091Y-65282517D01*
X157331340Y-65248332D01*
X157326357Y-65178642D01*
X157331340Y-65161669D01*
X157344091Y-65127483D01*
X157350500Y-65067873D01*
X157350499Y-64072128D01*
X157344091Y-64012517D01*
X157331340Y-63978332D01*
X157326357Y-63908642D01*
X157331340Y-63891669D01*
X157344091Y-63857483D01*
X157350500Y-63797873D01*
X157350499Y-62802128D01*
X157344091Y-62742517D01*
X157331340Y-62708332D01*
X157326357Y-62638642D01*
X157331341Y-62621667D01*
X157344091Y-62587483D01*
X157350500Y-62527873D01*
X157350499Y-61532128D01*
X157344091Y-61472517D01*
X157331340Y-61438332D01*
X157326357Y-61368642D01*
X157331340Y-61351669D01*
X157344091Y-61317483D01*
X157350500Y-61257873D01*
X157350499Y-60262128D01*
X157344091Y-60202517D01*
X157331340Y-60168332D01*
X157326357Y-60098642D01*
X157331340Y-60081669D01*
X157344091Y-60047483D01*
X157350500Y-59987873D01*
X157350499Y-58992128D01*
X157346804Y-58957753D01*
X157359211Y-58888994D01*
X157406822Y-58837857D01*
X157470094Y-58820500D01*
X159698265Y-58820500D01*
X159765304Y-58840185D01*
X159811059Y-58892989D01*
X159821003Y-58962147D01*
X159819882Y-58968692D01*
X159799500Y-59071155D01*
X159799500Y-59228846D01*
X159830261Y-59383489D01*
X159830264Y-59383501D01*
X159890602Y-59529172D01*
X159890609Y-59529185D01*
X159978210Y-59660288D01*
X159978213Y-59660292D01*
X160089707Y-59771786D01*
X160089711Y-59771789D01*
X160220814Y-59859390D01*
X160220827Y-59859397D01*
X160366498Y-59919735D01*
X160366503Y-59919737D01*
X160521153Y-59950499D01*
X160521156Y-59950500D01*
X160521158Y-59950500D01*
X160678844Y-59950500D01*
X160678845Y-59950499D01*
X160833497Y-59919737D01*
X160979179Y-59859394D01*
X161110289Y-59771789D01*
X161221789Y-59660289D01*
X161309394Y-59529179D01*
X161369737Y-59383497D01*
X161400500Y-59228842D01*
X161400500Y-59071158D01*
X161400500Y-59071155D01*
X161380118Y-58968692D01*
X161386345Y-58899100D01*
X161429208Y-58843923D01*
X161495097Y-58820678D01*
X161501735Y-58820500D01*
X164629438Y-58820500D01*
X164696477Y-58840185D01*
X164742232Y-58892989D01*
X164752176Y-58962147D01*
X164723151Y-59025703D01*
X164691438Y-59051887D01*
X164611475Y-59098053D01*
X164611459Y-59098064D01*
X164426820Y-59239742D01*
X164426813Y-59239748D01*
X164262248Y-59404313D01*
X164262242Y-59404320D01*
X164120564Y-59588959D01*
X164120553Y-59588975D01*
X164004188Y-59790523D01*
X164004180Y-59790539D01*
X163915120Y-60005552D01*
X163854878Y-60230377D01*
X163824501Y-60461117D01*
X163824500Y-60461134D01*
X163824500Y-60693865D01*
X163824501Y-60693882D01*
X163849571Y-60884313D01*
X163854879Y-60924626D01*
X163909542Y-61128632D01*
X163915120Y-61149447D01*
X164004180Y-61364460D01*
X164004188Y-61364476D01*
X164120553Y-61566024D01*
X164120564Y-61566040D01*
X164262242Y-61750679D01*
X164262248Y-61750686D01*
X164426813Y-61915251D01*
X164426819Y-61915256D01*
X164611468Y-62056942D01*
X164611475Y-62056946D01*
X164813023Y-62173311D01*
X164813039Y-62173319D01*
X165028052Y-62262379D01*
X165028054Y-62262379D01*
X165028060Y-62262382D01*
X165252874Y-62322621D01*
X165483628Y-62353000D01*
X165483635Y-62353000D01*
X165716365Y-62353000D01*
X165716372Y-62353000D01*
X165947126Y-62322621D01*
X166171940Y-62262382D01*
X166229953Y-62238352D01*
X166386960Y-62173319D01*
X166386963Y-62173317D01*
X166386969Y-62173315D01*
X166588532Y-62056942D01*
X166773181Y-61915256D01*
X166937756Y-61750681D01*
X167079442Y-61566032D01*
X167195815Y-61364469D01*
X167239969Y-61257872D01*
X167284879Y-61149447D01*
X167284878Y-61149447D01*
X167284882Y-61149440D01*
X167345121Y-60924626D01*
X167375500Y-60693872D01*
X167375500Y-60461128D01*
X167345121Y-60230374D01*
X167284882Y-60005560D01*
X167277556Y-59987873D01*
X167195819Y-59790539D01*
X167195814Y-59790530D01*
X167184994Y-59771789D01*
X167123097Y-59664581D01*
X167106625Y-59596683D01*
X167129477Y-59530655D01*
X167184398Y-59487465D01*
X167253952Y-59480823D01*
X167316054Y-59512839D01*
X167318166Y-59514901D01*
X172157841Y-64354576D01*
X172191326Y-64415899D01*
X172188091Y-64480574D01*
X172162896Y-64558117D01*
X172134407Y-64645798D01*
X172128910Y-64662715D01*
X172089500Y-64911538D01*
X172089500Y-65163462D01*
X172128910Y-65412285D01*
X172206760Y-65651883D01*
X172269974Y-65775945D01*
X172312993Y-65860376D01*
X172321132Y-65876348D01*
X172469201Y-66080149D01*
X172469205Y-66080154D01*
X172469207Y-66080156D01*
X172647344Y-66258293D01*
X172647345Y-66258294D01*
X172647344Y-66258294D01*
X172653661Y-66262883D01*
X172696327Y-66318214D01*
X172702305Y-66387827D01*
X172669699Y-66449622D01*
X172608860Y-66483979D01*
X172561378Y-66485674D01*
X172506611Y-66477000D01*
X172333389Y-66477000D01*
X172293728Y-66483281D01*
X172162302Y-66504097D01*
X171997552Y-66557628D01*
X171843211Y-66636268D01*
X171786289Y-66677625D01*
X171703072Y-66738086D01*
X171703070Y-66738088D01*
X171703069Y-66738088D01*
X171580588Y-66860569D01*
X171580588Y-66860570D01*
X171580586Y-66860572D01*
X171536859Y-66920756D01*
X171478768Y-67000711D01*
X171400128Y-67155052D01*
X171346597Y-67319802D01*
X171319500Y-67490889D01*
X171319500Y-67664110D01*
X171343447Y-67815310D01*
X171346598Y-67835201D01*
X171400127Y-67999945D01*
X171478768Y-68154288D01*
X171580586Y-68294428D01*
X171703072Y-68416914D01*
X171843212Y-68518732D01*
X171997555Y-68597373D01*
X172162299Y-68650902D01*
X172333389Y-68678000D01*
X172333390Y-68678000D01*
X172506610Y-68678000D01*
X172506611Y-68678000D01*
X172677701Y-68650902D01*
X172842445Y-68597373D01*
X172996788Y-68518732D01*
X173136928Y-68416914D01*
X173259414Y-68294428D01*
X173361232Y-68154288D01*
X173439873Y-67999945D01*
X173493402Y-67835201D01*
X173520500Y-67664111D01*
X173520500Y-67490889D01*
X173493402Y-67319799D01*
X173439873Y-67155055D01*
X173361232Y-67000712D01*
X173259414Y-66860572D01*
X173207482Y-66808640D01*
X173173997Y-66747317D01*
X173178981Y-66677625D01*
X173220853Y-66621692D01*
X173286317Y-66597275D01*
X173314561Y-66598486D01*
X173315212Y-66598589D01*
X173315215Y-66598590D01*
X173564038Y-66638000D01*
X173564039Y-66638000D01*
X173815961Y-66638000D01*
X173815962Y-66638000D01*
X174064785Y-66598590D01*
X174304379Y-66520741D01*
X174528845Y-66406370D01*
X174732656Y-66258293D01*
X174910793Y-66080156D01*
X175058870Y-65876345D01*
X175145815Y-65705704D01*
X175193789Y-65654909D01*
X175256300Y-65638000D01*
X175965462Y-65638000D01*
X176032501Y-65657685D01*
X176078256Y-65710489D01*
X176088200Y-65779647D01*
X176059175Y-65843203D01*
X176040948Y-65860376D01*
X176012959Y-65881852D01*
X176012952Y-65881858D01*
X175804358Y-66090452D01*
X175804352Y-66090459D01*
X175624761Y-66324506D01*
X175477258Y-66579989D01*
X175477254Y-66579999D01*
X175364364Y-66852538D01*
X175364361Y-66852548D01*
X175288008Y-67137504D01*
X175288006Y-67137515D01*
X175249500Y-67429986D01*
X175249500Y-67725013D01*
X175277525Y-67937873D01*
X175288007Y-68017493D01*
X175362212Y-68294430D01*
X175364361Y-68302451D01*
X175364364Y-68302461D01*
X175477254Y-68575000D01*
X175477258Y-68575010D01*
X175624761Y-68830493D01*
X175804352Y-69064540D01*
X175804358Y-69064547D01*
X176012952Y-69273141D01*
X176012959Y-69273147D01*
X176247006Y-69452738D01*
X176502489Y-69600241D01*
X176502490Y-69600241D01*
X176502493Y-69600243D01*
X176775048Y-69713139D01*
X177060007Y-69789493D01*
X177352494Y-69828000D01*
X177352501Y-69828000D01*
X177647499Y-69828000D01*
X177647506Y-69828000D01*
X177939993Y-69789493D01*
X178224952Y-69713139D01*
X178497507Y-69600243D01*
X178752994Y-69452738D01*
X178987042Y-69273146D01*
X179195646Y-69064542D01*
X179207434Y-69049179D01*
X179217124Y-69036552D01*
X179273552Y-68995349D01*
X179343298Y-68991194D01*
X179404218Y-69025406D01*
X179436971Y-69087124D01*
X179439500Y-69112038D01*
X179439500Y-80696199D01*
X179419815Y-80763238D01*
X179371795Y-80806684D01*
X179201151Y-80893632D01*
X178997350Y-81041701D01*
X178997345Y-81041705D01*
X178819205Y-81219845D01*
X178819201Y-81219850D01*
X178671132Y-81423651D01*
X178671130Y-81423655D01*
X178608614Y-81546351D01*
X178584185Y-81594295D01*
X178536211Y-81645091D01*
X178473700Y-81662000D01*
X176150940Y-81662000D01*
X176110019Y-81672964D01*
X176110019Y-81672965D01*
X176072751Y-81682951D01*
X175998214Y-81702923D01*
X175998209Y-81702926D01*
X175861290Y-81781975D01*
X175861282Y-81781981D01*
X175749478Y-81893786D01*
X174372923Y-83270340D01*
X174311600Y-83303825D01*
X174246924Y-83300590D01*
X174064787Y-83241410D01*
X173898903Y-83215136D01*
X173815962Y-83202000D01*
X173564038Y-83202000D01*
X173442165Y-83221303D01*
X173315214Y-83241410D01*
X173075616Y-83319260D01*
X172851151Y-83433632D01*
X172647350Y-83581701D01*
X172647345Y-83581705D01*
X172469205Y-83759845D01*
X172469201Y-83759850D01*
X172321132Y-83963651D01*
X172206760Y-84188116D01*
X172128910Y-84427714D01*
X172089500Y-84676538D01*
X172089500Y-84928461D01*
X172128910Y-85177285D01*
X172206760Y-85416883D01*
X172321132Y-85641348D01*
X172469201Y-85845149D01*
X172469205Y-85845154D01*
X172469207Y-85845156D01*
X172647344Y-86023293D01*
X172647345Y-86023294D01*
X172647344Y-86023294D01*
X172653661Y-86027883D01*
X172696327Y-86083214D01*
X172702305Y-86152827D01*
X172669699Y-86214622D01*
X172608860Y-86248979D01*
X172561378Y-86250674D01*
X172506611Y-86242000D01*
X172333389Y-86242000D01*
X172293728Y-86248281D01*
X172162302Y-86269097D01*
X171997552Y-86322628D01*
X171843211Y-86401268D01*
X171786289Y-86442625D01*
X171703072Y-86503086D01*
X171703070Y-86503088D01*
X171703069Y-86503088D01*
X171580588Y-86625569D01*
X171580588Y-86625570D01*
X171580586Y-86625572D01*
X171536859Y-86685756D01*
X171478768Y-86765711D01*
X171400128Y-86920052D01*
X171346597Y-87084802D01*
X171319500Y-87255889D01*
X171319500Y-87429111D01*
X171346598Y-87600201D01*
X171400127Y-87764945D01*
X171478768Y-87919288D01*
X171580586Y-88059428D01*
X171703072Y-88181914D01*
X171843212Y-88283732D01*
X171997555Y-88362373D01*
X172162299Y-88415902D01*
X172333389Y-88443000D01*
X172333390Y-88443000D01*
X172506610Y-88443000D01*
X172506611Y-88443000D01*
X172677701Y-88415902D01*
X172842445Y-88362373D01*
X172996788Y-88283732D01*
X173136928Y-88181914D01*
X173259414Y-88059428D01*
X173361232Y-87919288D01*
X173439873Y-87764945D01*
X173493402Y-87600201D01*
X173520500Y-87429111D01*
X173520500Y-87255889D01*
X173510854Y-87194986D01*
X175249500Y-87194986D01*
X175249500Y-87490013D01*
X175278153Y-87707643D01*
X175288007Y-87782493D01*
X175362212Y-88059430D01*
X175364361Y-88067451D01*
X175364364Y-88067461D01*
X175477254Y-88340000D01*
X175477258Y-88340010D01*
X175624761Y-88595493D01*
X175804352Y-88829540D01*
X175804358Y-88829547D01*
X176012952Y-89038141D01*
X176012959Y-89038147D01*
X176247006Y-89217738D01*
X176502489Y-89365241D01*
X176502490Y-89365241D01*
X176502493Y-89365243D01*
X176775048Y-89478139D01*
X177060007Y-89554493D01*
X177352494Y-89593000D01*
X177352501Y-89593000D01*
X177647499Y-89593000D01*
X177647506Y-89593000D01*
X177939993Y-89554493D01*
X178224952Y-89478139D01*
X178497507Y-89365243D01*
X178752994Y-89217738D01*
X178987042Y-89038146D01*
X179195646Y-88829542D01*
X179375238Y-88595494D01*
X179522743Y-88340007D01*
X179635639Y-88067452D01*
X179711993Y-87782493D01*
X179750500Y-87490006D01*
X179750500Y-87255889D01*
X181479500Y-87255889D01*
X181479500Y-87429111D01*
X181506598Y-87600201D01*
X181560127Y-87764945D01*
X181638768Y-87919288D01*
X181740586Y-88059428D01*
X181863072Y-88181914D01*
X182003212Y-88283732D01*
X182157555Y-88362373D01*
X182322299Y-88415902D01*
X182493389Y-88443000D01*
X182493390Y-88443000D01*
X182666610Y-88443000D01*
X182666611Y-88443000D01*
X182837701Y-88415902D01*
X183002445Y-88362373D01*
X183156788Y-88283732D01*
X183296928Y-88181914D01*
X183419414Y-88059428D01*
X183521232Y-87919288D01*
X183599873Y-87764945D01*
X183653402Y-87600201D01*
X183680500Y-87429111D01*
X183680500Y-87255889D01*
X183653402Y-87084799D01*
X183599873Y-86920055D01*
X183521232Y-86765712D01*
X183419414Y-86625572D01*
X183296928Y-86503086D01*
X183156788Y-86401268D01*
X183025380Y-86334313D01*
X183002447Y-86322628D01*
X183002446Y-86322627D01*
X183002445Y-86322627D01*
X182837701Y-86269098D01*
X182837699Y-86269097D01*
X182837698Y-86269097D01*
X182706271Y-86248281D01*
X182666611Y-86242000D01*
X182493389Y-86242000D01*
X182453728Y-86248281D01*
X182322302Y-86269097D01*
X182157552Y-86322628D01*
X182003211Y-86401268D01*
X181946289Y-86442625D01*
X181863072Y-86503086D01*
X181863070Y-86503088D01*
X181863069Y-86503088D01*
X181740588Y-86625569D01*
X181740588Y-86625570D01*
X181740586Y-86625572D01*
X181696859Y-86685756D01*
X181638768Y-86765711D01*
X181560128Y-86920052D01*
X181506597Y-87084802D01*
X181479500Y-87255889D01*
X179750500Y-87255889D01*
X179750500Y-87194994D01*
X179711993Y-86902507D01*
X179635639Y-86617548D01*
X179632633Y-86610292D01*
X179578327Y-86479185D01*
X179522743Y-86344993D01*
X179517472Y-86335864D01*
X179375237Y-86089504D01*
X179375234Y-86089500D01*
X179195647Y-85855459D01*
X179195641Y-85855452D01*
X178987047Y-85646858D01*
X178987040Y-85646852D01*
X178752993Y-85467261D01*
X178497510Y-85319758D01*
X178497500Y-85319754D01*
X178224961Y-85206864D01*
X178224954Y-85206862D01*
X178224952Y-85206861D01*
X177939993Y-85130507D01*
X177891113Y-85124071D01*
X177647513Y-85092000D01*
X177647506Y-85092000D01*
X177352494Y-85092000D01*
X177352486Y-85092000D01*
X177074085Y-85128653D01*
X177060007Y-85130507D01*
X176893090Y-85175232D01*
X176775048Y-85206861D01*
X176775038Y-85206864D01*
X176502499Y-85319754D01*
X176502489Y-85319758D01*
X176247006Y-85467261D01*
X176012959Y-85646852D01*
X176012952Y-85646858D01*
X175804358Y-85855452D01*
X175804352Y-85855459D01*
X175624766Y-86089500D01*
X175624762Y-86089504D01*
X175477258Y-86344989D01*
X175477254Y-86344999D01*
X175364364Y-86617538D01*
X175364361Y-86617548D01*
X175296788Y-86869738D01*
X175288008Y-86902504D01*
X175288006Y-86902515D01*
X175249500Y-87194986D01*
X173510854Y-87194986D01*
X173493402Y-87084799D01*
X173439873Y-86920055D01*
X173361232Y-86765712D01*
X173259414Y-86625572D01*
X173207482Y-86573640D01*
X173173997Y-86512317D01*
X173178981Y-86442625D01*
X173220853Y-86386692D01*
X173286317Y-86362275D01*
X173314561Y-86363486D01*
X173315212Y-86363589D01*
X173315215Y-86363590D01*
X173564038Y-86403000D01*
X173564039Y-86403000D01*
X173815961Y-86403000D01*
X173815962Y-86403000D01*
X174064785Y-86363590D01*
X174304379Y-86285741D01*
X174528845Y-86171370D01*
X174732656Y-86023293D01*
X174910793Y-85845156D01*
X175058870Y-85641345D01*
X175173241Y-85416879D01*
X175251090Y-85177285D01*
X175290500Y-84928462D01*
X175290500Y-84676538D01*
X175251090Y-84427715D01*
X175251089Y-84427711D01*
X175251089Y-84427710D01*
X175191909Y-84245573D01*
X175189914Y-84175732D01*
X175222157Y-84119576D01*
X176442416Y-82899319D01*
X176503739Y-82865834D01*
X176530097Y-82863000D01*
X178473700Y-82863000D01*
X178540739Y-82882685D01*
X178584184Y-82930704D01*
X178649063Y-83058037D01*
X178671132Y-83101348D01*
X178819201Y-83305149D01*
X178819205Y-83305154D01*
X178997345Y-83483294D01*
X178997350Y-83483298D01*
X179175117Y-83612452D01*
X179201155Y-83631370D01*
X179344184Y-83704247D01*
X179425616Y-83745739D01*
X179425618Y-83745739D01*
X179425621Y-83745741D01*
X179665215Y-83823590D01*
X179914038Y-83863000D01*
X179914039Y-83863000D01*
X180165961Y-83863000D01*
X180165962Y-83863000D01*
X180414785Y-83823590D01*
X180654379Y-83745741D01*
X180878845Y-83631370D01*
X181082656Y-83483293D01*
X181260793Y-83305156D01*
X181408870Y-83101345D01*
X181523241Y-82876879D01*
X181601090Y-82637285D01*
X181640500Y-82388462D01*
X181640500Y-82136538D01*
X181601090Y-81887715D01*
X181523241Y-81648121D01*
X181523239Y-81648118D01*
X181523239Y-81648116D01*
X181455762Y-81515686D01*
X181408870Y-81423655D01*
X181356012Y-81350902D01*
X181260798Y-81219850D01*
X181260794Y-81219845D01*
X181082654Y-81041705D01*
X181082649Y-81041701D01*
X180878848Y-80893632D01*
X180878847Y-80893631D01*
X180878845Y-80893630D01*
X180803616Y-80855299D01*
X180708205Y-80806684D01*
X180657409Y-80758709D01*
X180640500Y-80696199D01*
X180640500Y-80226134D01*
X187624500Y-80226134D01*
X187624500Y-80458865D01*
X187624501Y-80458882D01*
X187653487Y-80679057D01*
X187654879Y-80689626D01*
X187709542Y-80893632D01*
X187715120Y-80914447D01*
X187804180Y-81129460D01*
X187804188Y-81129476D01*
X187920553Y-81331024D01*
X187920557Y-81331031D01*
X187920559Y-81331033D01*
X188062242Y-81515679D01*
X188062248Y-81515686D01*
X188226813Y-81680251D01*
X188226819Y-81680256D01*
X188411468Y-81821942D01*
X188411475Y-81821946D01*
X188613023Y-81938311D01*
X188613039Y-81938319D01*
X188828052Y-82027379D01*
X188828054Y-82027379D01*
X188828060Y-82027382D01*
X189052874Y-82087621D01*
X189283628Y-82118000D01*
X189283635Y-82118000D01*
X189516365Y-82118000D01*
X189516372Y-82118000D01*
X189747126Y-82087621D01*
X189971940Y-82027382D01*
X190029953Y-82003352D01*
X190186960Y-81938319D01*
X190186963Y-81938317D01*
X190186969Y-81938315D01*
X190388532Y-81821942D01*
X190573181Y-81680256D01*
X190737756Y-81515681D01*
X190879442Y-81331032D01*
X190995815Y-81129469D01*
X191014590Y-81084143D01*
X191084879Y-80914447D01*
X191084878Y-80914447D01*
X191084882Y-80914440D01*
X191145121Y-80689626D01*
X191175500Y-80458872D01*
X191175500Y-80226128D01*
X191145121Y-79995374D01*
X191084882Y-79770560D01*
X191067602Y-79728842D01*
X190995819Y-79555539D01*
X190995811Y-79555523D01*
X190879446Y-79353975D01*
X190879442Y-79353968D01*
X190737756Y-79169319D01*
X190737751Y-79169313D01*
X190573186Y-79004748D01*
X190573179Y-79004742D01*
X190388540Y-78863064D01*
X190388538Y-78863062D01*
X190388532Y-78863058D01*
X190388527Y-78863055D01*
X190388524Y-78863053D01*
X190186976Y-78746688D01*
X190186960Y-78746680D01*
X189971947Y-78657620D01*
X189857713Y-78627011D01*
X189747126Y-78597379D01*
X189747125Y-78597378D01*
X189747122Y-78597378D01*
X189516382Y-78567001D01*
X189516377Y-78567000D01*
X189516372Y-78567000D01*
X189283628Y-78567000D01*
X189283622Y-78567000D01*
X189283617Y-78567001D01*
X189052877Y-78597378D01*
X188828052Y-78657620D01*
X188613039Y-78746680D01*
X188613023Y-78746688D01*
X188411475Y-78863053D01*
X188411459Y-78863064D01*
X188226820Y-79004742D01*
X188226813Y-79004748D01*
X188062248Y-79169313D01*
X188062242Y-79169320D01*
X187920564Y-79353959D01*
X187920553Y-79353975D01*
X187804188Y-79555523D01*
X187804180Y-79555539D01*
X187715120Y-79770552D01*
X187654878Y-79995377D01*
X187624501Y-80226117D01*
X187624500Y-80226134D01*
X180640500Y-80226134D01*
X180640500Y-75669986D01*
X187149500Y-75669986D01*
X187149500Y-75965013D01*
X187180064Y-76197159D01*
X187188007Y-76257493D01*
X187264361Y-76542451D01*
X187264364Y-76542461D01*
X187377254Y-76815000D01*
X187377258Y-76815010D01*
X187524761Y-77070493D01*
X187704352Y-77304540D01*
X187704358Y-77304547D01*
X187912952Y-77513141D01*
X187912959Y-77513147D01*
X188147006Y-77692738D01*
X188402489Y-77840241D01*
X188402490Y-77840241D01*
X188402493Y-77840243D01*
X188593566Y-77919388D01*
X188650239Y-77942863D01*
X188675048Y-77953139D01*
X188960007Y-78029493D01*
X189252494Y-78068000D01*
X189252501Y-78068000D01*
X189547499Y-78068000D01*
X189547506Y-78068000D01*
X189839993Y-78029493D01*
X190124952Y-77953139D01*
X190397507Y-77840243D01*
X190652994Y-77692738D01*
X190887042Y-77513146D01*
X191095646Y-77304542D01*
X191275238Y-77070494D01*
X191422743Y-76815007D01*
X191535639Y-76542452D01*
X191611993Y-76257493D01*
X191650500Y-75965006D01*
X191650500Y-75669994D01*
X191611993Y-75377507D01*
X191535639Y-75092548D01*
X191422743Y-74819993D01*
X191384435Y-74753642D01*
X191275238Y-74564506D01*
X191095647Y-74330459D01*
X191095641Y-74330452D01*
X190887047Y-74121858D01*
X190887040Y-74121852D01*
X190652993Y-73942261D01*
X190397510Y-73794758D01*
X190397500Y-73794754D01*
X190124961Y-73681864D01*
X190124954Y-73681862D01*
X190124952Y-73681861D01*
X189839993Y-73605507D01*
X189791113Y-73599071D01*
X189547513Y-73567000D01*
X189547506Y-73567000D01*
X189252494Y-73567000D01*
X189252486Y-73567000D01*
X188974085Y-73603653D01*
X188960007Y-73605507D01*
X188801905Y-73647870D01*
X188675048Y-73681861D01*
X188675038Y-73681864D01*
X188402499Y-73794754D01*
X188402489Y-73794758D01*
X188147006Y-73942261D01*
X187912959Y-74121852D01*
X187912952Y-74121858D01*
X187704358Y-74330452D01*
X187704352Y-74330459D01*
X187524761Y-74564506D01*
X187377258Y-74819989D01*
X187377254Y-74819999D01*
X187264364Y-75092538D01*
X187264361Y-75092548D01*
X187228104Y-75227864D01*
X187188008Y-75377504D01*
X187188006Y-75377515D01*
X187149500Y-75669986D01*
X180640500Y-75669986D01*
X180640500Y-67490889D01*
X181479500Y-67490889D01*
X181479500Y-67664110D01*
X181503447Y-67815310D01*
X181506598Y-67835201D01*
X181560127Y-67999945D01*
X181638768Y-68154288D01*
X181740586Y-68294428D01*
X181863072Y-68416914D01*
X182003212Y-68518732D01*
X182157555Y-68597373D01*
X182322299Y-68650902D01*
X182493389Y-68678000D01*
X182493390Y-68678000D01*
X182666610Y-68678000D01*
X182666611Y-68678000D01*
X182837701Y-68650902D01*
X183002445Y-68597373D01*
X183156788Y-68518732D01*
X183296928Y-68416914D01*
X183419414Y-68294428D01*
X183521232Y-68154288D01*
X183599873Y-67999945D01*
X183653402Y-67835201D01*
X183680500Y-67664111D01*
X183680500Y-67490889D01*
X183653402Y-67319799D01*
X183599873Y-67155055D01*
X183521232Y-67000712D01*
X183419414Y-66860572D01*
X183296928Y-66738086D01*
X183156788Y-66636268D01*
X183002445Y-66557627D01*
X182837701Y-66504098D01*
X182837699Y-66504097D01*
X182837698Y-66504097D01*
X182706271Y-66483281D01*
X182666611Y-66477000D01*
X182493389Y-66477000D01*
X182453728Y-66483281D01*
X182322302Y-66504097D01*
X182157552Y-66557628D01*
X182003211Y-66636268D01*
X181946289Y-66677625D01*
X181863072Y-66738086D01*
X181863070Y-66738088D01*
X181863069Y-66738088D01*
X181740588Y-66860569D01*
X181740588Y-66860570D01*
X181740586Y-66860572D01*
X181696859Y-66920756D01*
X181638768Y-67000711D01*
X181560128Y-67155052D01*
X181506597Y-67319802D01*
X181479500Y-67490889D01*
X180640500Y-67490889D01*
X180640500Y-66883158D01*
X180640501Y-66883145D01*
X180640501Y-66715042D01*
X180640501Y-66715041D01*
X180599577Y-66562314D01*
X180575574Y-66520739D01*
X180520524Y-66425388D01*
X180520518Y-66425380D01*
X179715952Y-65620814D01*
X178828615Y-64733478D01*
X178795131Y-64672156D01*
X178800115Y-64602464D01*
X178828614Y-64558119D01*
X179357076Y-64029657D01*
X179418397Y-63996174D01*
X179483073Y-63999409D01*
X179658580Y-64056434D01*
X179665215Y-64058590D01*
X179914038Y-64098000D01*
X179914039Y-64098000D01*
X180165961Y-64098000D01*
X180165962Y-64098000D01*
X180414785Y-64058590D01*
X180654379Y-63980741D01*
X180878845Y-63866370D01*
X181082656Y-63718293D01*
X181260793Y-63540156D01*
X181408870Y-63336345D01*
X181523241Y-63111879D01*
X181601090Y-62872285D01*
X181640500Y-62623462D01*
X181640500Y-62371538D01*
X181601090Y-62122715D01*
X181523241Y-61883121D01*
X181523239Y-61883118D01*
X181523239Y-61883116D01*
X181455762Y-61750686D01*
X181408870Y-61658655D01*
X181389952Y-61632617D01*
X181260798Y-61454850D01*
X181260794Y-61454845D01*
X181082654Y-61276705D01*
X181082649Y-61276701D01*
X180878848Y-61128632D01*
X180878847Y-61128631D01*
X180878845Y-61128630D01*
X180808747Y-61092913D01*
X180654383Y-61014260D01*
X180414785Y-60936410D01*
X180340359Y-60924622D01*
X180165962Y-60897000D01*
X179914038Y-60897000D01*
X179789626Y-60916705D01*
X179665214Y-60936410D01*
X179425616Y-61014260D01*
X179201151Y-61128632D01*
X178997350Y-61276701D01*
X178997345Y-61276705D01*
X178819205Y-61454845D01*
X178819201Y-61454850D01*
X178671132Y-61658651D01*
X178556760Y-61883116D01*
X178478910Y-62122714D01*
X178447117Y-62323444D01*
X178439500Y-62371538D01*
X178439500Y-62623462D01*
X178441904Y-62638642D01*
X178478910Y-62872286D01*
X178478910Y-62872289D01*
X178538090Y-63054424D01*
X178540085Y-63124265D01*
X178507840Y-63180423D01*
X177287584Y-64400681D01*
X177226261Y-64434166D01*
X177199903Y-64437000D01*
X175256300Y-64437000D01*
X175189261Y-64417315D01*
X175145815Y-64369295D01*
X175058870Y-64198655D01*
X175025923Y-64153307D01*
X174910798Y-63994850D01*
X174910794Y-63994845D01*
X174732654Y-63816705D01*
X174732649Y-63816701D01*
X174528848Y-63668632D01*
X174528847Y-63668631D01*
X174528845Y-63668630D01*
X174458747Y-63632913D01*
X174304383Y-63554260D01*
X174064785Y-63476410D01*
X174023146Y-63469815D01*
X173815962Y-63437000D01*
X173564038Y-63437000D01*
X173461876Y-63453181D01*
X173315214Y-63476410D01*
X173274928Y-63489500D01*
X173133074Y-63535591D01*
X173063234Y-63537586D01*
X173007076Y-63505341D01*
X169962869Y-60461134D01*
X187624500Y-60461134D01*
X187624500Y-60693865D01*
X187624501Y-60693882D01*
X187649571Y-60884313D01*
X187654879Y-60924626D01*
X187709542Y-61128632D01*
X187715120Y-61149447D01*
X187804180Y-61364460D01*
X187804188Y-61364476D01*
X187920553Y-61566024D01*
X187920564Y-61566040D01*
X188062242Y-61750679D01*
X188062248Y-61750686D01*
X188226813Y-61915251D01*
X188226819Y-61915256D01*
X188411468Y-62056942D01*
X188411475Y-62056946D01*
X188613023Y-62173311D01*
X188613039Y-62173319D01*
X188828052Y-62262379D01*
X188828054Y-62262379D01*
X188828060Y-62262382D01*
X189052874Y-62322621D01*
X189283628Y-62353000D01*
X189283635Y-62353000D01*
X189516365Y-62353000D01*
X189516372Y-62353000D01*
X189747126Y-62322621D01*
X189971940Y-62262382D01*
X190029953Y-62238352D01*
X190186960Y-62173319D01*
X190186963Y-62173317D01*
X190186969Y-62173315D01*
X190388532Y-62056942D01*
X190573181Y-61915256D01*
X190737756Y-61750681D01*
X190879442Y-61566032D01*
X190995815Y-61364469D01*
X191039969Y-61257872D01*
X191084879Y-61149447D01*
X191084878Y-61149447D01*
X191084882Y-61149440D01*
X191145121Y-60924626D01*
X191175500Y-60693872D01*
X191175500Y-60461128D01*
X191145121Y-60230374D01*
X191084882Y-60005560D01*
X191077556Y-59987873D01*
X190995819Y-59790539D01*
X190995811Y-59790523D01*
X190879446Y-59588975D01*
X190879442Y-59588968D01*
X190776488Y-59454796D01*
X190737757Y-59404320D01*
X190737751Y-59404313D01*
X190573186Y-59239748D01*
X190573179Y-59239742D01*
X190388540Y-59098064D01*
X190388538Y-59098062D01*
X190388532Y-59098058D01*
X190388527Y-59098055D01*
X190388524Y-59098053D01*
X190186976Y-58981688D01*
X190186960Y-58981680D01*
X189971947Y-58892620D01*
X189864565Y-58863847D01*
X189747126Y-58832379D01*
X189747125Y-58832378D01*
X189747122Y-58832378D01*
X189516382Y-58802001D01*
X189516377Y-58802000D01*
X189516372Y-58802000D01*
X189283628Y-58802000D01*
X189283622Y-58802000D01*
X189283617Y-58802001D01*
X189052877Y-58832378D01*
X188828052Y-58892620D01*
X188613039Y-58981680D01*
X188613023Y-58981688D01*
X188411475Y-59098053D01*
X188411459Y-59098064D01*
X188226820Y-59239742D01*
X188226813Y-59239748D01*
X188062248Y-59404313D01*
X188062242Y-59404320D01*
X187920564Y-59588959D01*
X187920553Y-59588975D01*
X187804188Y-59790523D01*
X187804180Y-59790539D01*
X187715120Y-60005552D01*
X187654878Y-60230377D01*
X187624501Y-60461117D01*
X187624500Y-60461134D01*
X169962869Y-60461134D01*
X167563916Y-58062181D01*
X167530431Y-58000858D01*
X167535415Y-57931166D01*
X167577287Y-57875233D01*
X167642751Y-57850816D01*
X167651597Y-57850500D01*
X190590093Y-57850500D01*
X190657132Y-57870185D01*
X190696421Y-57910702D01*
X190852496Y-58170827D01*
X193131744Y-61969574D01*
X193149397Y-62035475D01*
X192551276Y-97274820D01*
X192530457Y-97341516D01*
X192482748Y-97383625D01*
X191794785Y-97727606D01*
X191753215Y-97739917D01*
X191390318Y-97780806D01*
X191381071Y-97781499D01*
X190902325Y-97799413D01*
X190897688Y-97799500D01*
X190523818Y-97799500D01*
X190456779Y-97779815D01*
X190411024Y-97727011D01*
X190401080Y-97657853D01*
X190430105Y-97594297D01*
X190461818Y-97568113D01*
X190652994Y-97457738D01*
X190887042Y-97278146D01*
X191095646Y-97069542D01*
X191275238Y-96835494D01*
X191422743Y-96580007D01*
X191535639Y-96307452D01*
X191611993Y-96022493D01*
X191650500Y-95730006D01*
X191650500Y-95434994D01*
X191611993Y-95142507D01*
X191535639Y-94857548D01*
X191422743Y-94584993D01*
X191275238Y-94329506D01*
X191095646Y-94095458D01*
X191095641Y-94095452D01*
X190887047Y-93886858D01*
X190887040Y-93886852D01*
X190652993Y-93707261D01*
X190397510Y-93559758D01*
X190397500Y-93559754D01*
X190124961Y-93446864D01*
X190124954Y-93446862D01*
X190124952Y-93446861D01*
X189839993Y-93370507D01*
X189791113Y-93364071D01*
X189547513Y-93332000D01*
X189547506Y-93332000D01*
X189252494Y-93332000D01*
X189252486Y-93332000D01*
X188974085Y-93368653D01*
X188960007Y-93370507D01*
X188675048Y-93446861D01*
X188675038Y-93446864D01*
X188402499Y-93559754D01*
X188402489Y-93559758D01*
X188147006Y-93707261D01*
X187912959Y-93886852D01*
X187912952Y-93886858D01*
X187704358Y-94095452D01*
X187704352Y-94095459D01*
X187524761Y-94329506D01*
X187377258Y-94584989D01*
X187377254Y-94584999D01*
X187264364Y-94857538D01*
X187264361Y-94857548D01*
X187193559Y-95121789D01*
X187188008Y-95142504D01*
X187188006Y-95142515D01*
X187149500Y-95434986D01*
X187149500Y-95730013D01*
X187181571Y-95973613D01*
X187188007Y-96022493D01*
X187188008Y-96022495D01*
X187264361Y-96307451D01*
X187264364Y-96307461D01*
X187377254Y-96580000D01*
X187377258Y-96580010D01*
X187524761Y-96835493D01*
X187704352Y-97069540D01*
X187704358Y-97069547D01*
X187912952Y-97278141D01*
X187912959Y-97278147D01*
X188147006Y-97457738D01*
X188338182Y-97568113D01*
X188386397Y-97618680D01*
X188399621Y-97687287D01*
X188373653Y-97752151D01*
X188316739Y-97792680D01*
X188276182Y-97799500D01*
X166723818Y-97799500D01*
X166656779Y-97779815D01*
X166611024Y-97727011D01*
X166601080Y-97657853D01*
X166630105Y-97594297D01*
X166661818Y-97568113D01*
X166852994Y-97457738D01*
X167087042Y-97278146D01*
X167295646Y-97069542D01*
X167475238Y-96835494D01*
X167622743Y-96580007D01*
X167735639Y-96307452D01*
X167811993Y-96022493D01*
X167850500Y-95730006D01*
X167850500Y-95434994D01*
X167811993Y-95142507D01*
X167735639Y-94857548D01*
X167622743Y-94584993D01*
X167475238Y-94329506D01*
X167295646Y-94095458D01*
X167295641Y-94095452D01*
X167087047Y-93886858D01*
X167087040Y-93886852D01*
X166852993Y-93707261D01*
X166597510Y-93559758D01*
X166597500Y-93559754D01*
X166324961Y-93446864D01*
X166324954Y-93446862D01*
X166324952Y-93446861D01*
X166039993Y-93370507D01*
X165991113Y-93364071D01*
X165747513Y-93332000D01*
X165747506Y-93332000D01*
X165452494Y-93332000D01*
X165452486Y-93332000D01*
X165174085Y-93368653D01*
X165160007Y-93370507D01*
X164875048Y-93446861D01*
X164875038Y-93446864D01*
X164602499Y-93559754D01*
X164602489Y-93559758D01*
X164347006Y-93707261D01*
X164112959Y-93886852D01*
X164112952Y-93886858D01*
X163904358Y-94095452D01*
X163904352Y-94095459D01*
X163724761Y-94329506D01*
X163577258Y-94584989D01*
X163577254Y-94584999D01*
X163464364Y-94857538D01*
X163464361Y-94857548D01*
X163393559Y-95121789D01*
X163388008Y-95142504D01*
X163388006Y-95142515D01*
X163349500Y-95434986D01*
X163349500Y-95730013D01*
X163381571Y-95973613D01*
X163388007Y-96022493D01*
X163388008Y-96022495D01*
X163464361Y-96307451D01*
X163464364Y-96307461D01*
X163577254Y-96580000D01*
X163577258Y-96580010D01*
X163724761Y-96835493D01*
X163904352Y-97069540D01*
X163904358Y-97069547D01*
X164112952Y-97278141D01*
X164112959Y-97278147D01*
X164347006Y-97457738D01*
X164538182Y-97568113D01*
X164586397Y-97618680D01*
X164599621Y-97687287D01*
X164573653Y-97752151D01*
X164516739Y-97792680D01*
X164476182Y-97799500D01*
X162972234Y-97799500D01*
X162968180Y-97799434D01*
X162810923Y-97794290D01*
X162802835Y-97793760D01*
X162648286Y-97778553D01*
X162640248Y-97777496D01*
X162485026Y-97751893D01*
X162481037Y-97751168D01*
X158850564Y-97029711D01*
X158847744Y-97029116D01*
X154263630Y-96006878D01*
X132324590Y-91486515D01*
X131764694Y-91371153D01*
X154399500Y-91371153D01*
X154399500Y-91528846D01*
X154430261Y-91683489D01*
X154430264Y-91683501D01*
X154490602Y-91829172D01*
X154490609Y-91829185D01*
X154578210Y-91960288D01*
X154578213Y-91960292D01*
X154689707Y-92071786D01*
X154689711Y-92071789D01*
X154820814Y-92159390D01*
X154820827Y-92159397D01*
X154966498Y-92219735D01*
X154966503Y-92219737D01*
X155121153Y-92250499D01*
X155121156Y-92250500D01*
X155121158Y-92250500D01*
X155278844Y-92250500D01*
X155278845Y-92250499D01*
X155433497Y-92219737D01*
X155579179Y-92159394D01*
X155710289Y-92071789D01*
X155821789Y-91960289D01*
X155909394Y-91829179D01*
X155969737Y-91683497D01*
X156000500Y-91528842D01*
X156000500Y-91371158D01*
X156000500Y-91371155D01*
X156000499Y-91371153D01*
X155969738Y-91216510D01*
X155969737Y-91216503D01*
X155969735Y-91216498D01*
X155909397Y-91070827D01*
X155909390Y-91070814D01*
X155821789Y-90939711D01*
X155821786Y-90939707D01*
X155710292Y-90828213D01*
X155710288Y-90828210D01*
X155579185Y-90740609D01*
X155579172Y-90740602D01*
X155433501Y-90680264D01*
X155433489Y-90680261D01*
X155278845Y-90649500D01*
X155278842Y-90649500D01*
X155121158Y-90649500D01*
X155121155Y-90649500D01*
X154966510Y-90680261D01*
X154966498Y-90680264D01*
X154820827Y-90740602D01*
X154820814Y-90740609D01*
X154689711Y-90828210D01*
X154689707Y-90828213D01*
X154578213Y-90939707D01*
X154578210Y-90939711D01*
X154490609Y-91070814D01*
X154490602Y-91070827D01*
X154430264Y-91216498D01*
X154430261Y-91216510D01*
X154399500Y-91371153D01*
X131764694Y-91371153D01*
X128908597Y-90782677D01*
X128894841Y-90775905D01*
X128882374Y-90774143D01*
X128852638Y-90755131D01*
X128790530Y-90701568D01*
X128752618Y-90642878D01*
X128747532Y-90609851D01*
X128742449Y-90321153D01*
X142349500Y-90321153D01*
X142349500Y-90478846D01*
X142380261Y-90633489D01*
X142380264Y-90633501D01*
X142440602Y-90779172D01*
X142440609Y-90779185D01*
X142528210Y-90910288D01*
X142528213Y-90910292D01*
X142639707Y-91021786D01*
X142639711Y-91021789D01*
X142770814Y-91109390D01*
X142770827Y-91109397D01*
X142916498Y-91169735D01*
X142916503Y-91169737D01*
X143071153Y-91200499D01*
X143071156Y-91200500D01*
X143071158Y-91200500D01*
X143228844Y-91200500D01*
X143228845Y-91200499D01*
X143383497Y-91169737D01*
X143496166Y-91123067D01*
X143529172Y-91109397D01*
X143529172Y-91109396D01*
X143529179Y-91109394D01*
X143660289Y-91021789D01*
X143771789Y-90910289D01*
X143859394Y-90779179D01*
X143919737Y-90633497D01*
X143950500Y-90478842D01*
X143950500Y-90321158D01*
X143950500Y-90321155D01*
X143950499Y-90321153D01*
X143919738Y-90166510D01*
X143919737Y-90166503D01*
X143919735Y-90166498D01*
X143859397Y-90020827D01*
X143859390Y-90020814D01*
X143771789Y-89889711D01*
X143771786Y-89889707D01*
X143660292Y-89778213D01*
X143660288Y-89778210D01*
X143529185Y-89690609D01*
X143529172Y-89690602D01*
X143383501Y-89630264D01*
X143383489Y-89630261D01*
X143228845Y-89599500D01*
X143228842Y-89599500D01*
X143071158Y-89599500D01*
X143071155Y-89599500D01*
X142916510Y-89630261D01*
X142916498Y-89630264D01*
X142770827Y-89690602D01*
X142770814Y-89690609D01*
X142639711Y-89778210D01*
X142639707Y-89778213D01*
X142528213Y-89889707D01*
X142528210Y-89889711D01*
X142440609Y-90020814D01*
X142440602Y-90020827D01*
X142380264Y-90166498D01*
X142380261Y-90166510D01*
X142349500Y-90321153D01*
X128742449Y-90321153D01*
X128671547Y-86293925D01*
X128690049Y-86226553D01*
X128742039Y-86179876D01*
X128811012Y-86168717D01*
X128875069Y-86196618D01*
X128913872Y-86254722D01*
X128917145Y-86267553D01*
X128930262Y-86333492D01*
X128930264Y-86333501D01*
X128990602Y-86479172D01*
X128990609Y-86479185D01*
X129078210Y-86610288D01*
X129078213Y-86610292D01*
X129189707Y-86721786D01*
X129189711Y-86721789D01*
X129320814Y-86809390D01*
X129320827Y-86809397D01*
X129466498Y-86869735D01*
X129466503Y-86869737D01*
X129621153Y-86900499D01*
X129621156Y-86900500D01*
X129621158Y-86900500D01*
X129778844Y-86900500D01*
X129778845Y-86900499D01*
X129933497Y-86869737D01*
X130079179Y-86809394D01*
X130210289Y-86721789D01*
X130321789Y-86610289D01*
X130409394Y-86479179D01*
X130469737Y-86333497D01*
X130500500Y-86178842D01*
X130500500Y-86021158D01*
X130500500Y-86021155D01*
X130500499Y-86021153D01*
X130486443Y-85950488D01*
X130469737Y-85866503D01*
X130469735Y-85866498D01*
X130409395Y-85720823D01*
X130409390Y-85720814D01*
X130321789Y-85589711D01*
X130321786Y-85589707D01*
X130210292Y-85478213D01*
X130210288Y-85478210D01*
X130079185Y-85390609D01*
X130079172Y-85390602D01*
X129933501Y-85330264D01*
X129933489Y-85330261D01*
X129778845Y-85299500D01*
X129778842Y-85299500D01*
X129621158Y-85299500D01*
X129621155Y-85299500D01*
X129466510Y-85330261D01*
X129466498Y-85330264D01*
X129320827Y-85390602D01*
X129320814Y-85390609D01*
X129189711Y-85478210D01*
X129189707Y-85478213D01*
X129078213Y-85589707D01*
X129078210Y-85589711D01*
X128990609Y-85720814D01*
X128990605Y-85720823D01*
X128930264Y-85866498D01*
X128930261Y-85866508D01*
X128910943Y-85963628D01*
X128878558Y-86025539D01*
X128817842Y-86060113D01*
X128748073Y-86056373D01*
X128691401Y-86015506D01*
X128665820Y-85950488D01*
X128665345Y-85941619D01*
X128664023Y-85866508D01*
X128283756Y-64267355D01*
X128302257Y-64199984D01*
X128354247Y-64153307D01*
X128423220Y-64142148D01*
X128487277Y-64170049D01*
X128495417Y-64177496D01*
X128539707Y-64221786D01*
X128539711Y-64221789D01*
X128670814Y-64309390D01*
X128670827Y-64309397D01*
X128815436Y-64369295D01*
X128816503Y-64369737D01*
X128971153Y-64400499D01*
X128971156Y-64400500D01*
X128971158Y-64400500D01*
X129128844Y-64400500D01*
X129128845Y-64400499D01*
X129283497Y-64369737D01*
X129429179Y-64309394D01*
X129560289Y-64221789D01*
X129671789Y-64110289D01*
X129759394Y-63979179D01*
X129819737Y-63833497D01*
X129850500Y-63678842D01*
X129850500Y-63521158D01*
X129850500Y-63521155D01*
X129850499Y-63521153D01*
X129830275Y-63419480D01*
X129819737Y-63366503D01*
X129816307Y-63358222D01*
X129759397Y-63220827D01*
X129759390Y-63220814D01*
X129671789Y-63089711D01*
X129671786Y-63089707D01*
X129560292Y-62978213D01*
X129560288Y-62978210D01*
X129429185Y-62890609D01*
X129429172Y-62890602D01*
X129283501Y-62830264D01*
X129283489Y-62830261D01*
X129128845Y-62799500D01*
X129128842Y-62799500D01*
X128971158Y-62799500D01*
X128971155Y-62799500D01*
X128816510Y-62830261D01*
X128816498Y-62830264D01*
X128670827Y-62890602D01*
X128670814Y-62890609D01*
X128539711Y-62978210D01*
X128472401Y-63045520D01*
X128411077Y-63079004D01*
X128341386Y-63074019D01*
X128285452Y-63032148D01*
X128261036Y-62966683D01*
X128260740Y-62960050D01*
X128251287Y-62423150D01*
X128252162Y-62417716D01*
X128251429Y-62414649D01*
X128258225Y-62380024D01*
X128265567Y-62359041D01*
X128302270Y-62305545D01*
X133422454Y-57950996D01*
X133486272Y-57922561D01*
X133488846Y-57922243D01*
X133959695Y-57869191D01*
X133968915Y-57868500D01*
X134428994Y-57851286D01*
X134447676Y-57850587D01*
X134452312Y-57850500D01*
X134515892Y-57850500D01*
X137225500Y-57850500D01*
X137292539Y-57870185D01*
G37*
%TD.AperFunction*%
M02*
