%TF.GenerationSoftware,KiCad,Pcbnew,10.0.1*%
%TF.CreationDate,2026-06-01T14:02:53+02:00*%
%TF.ProjectId,lora,6c6f7261-2e6b-4696-9361-645f70636258,rev?*%
%TF.SameCoordinates,Original*%
%TF.FileFunction,Soldermask,Top*%
%TF.FilePolarity,Negative*%
%FSLAX46Y46*%
G04 Gerber Fmt 4.6, Leading zero omitted, Abs format (unit mm)*
G04 Created by KiCad (PCBNEW 10.0.1) date 2026-06-01 14:02:53*
%MOMM*%
%LPD*%
G01*
G04 APERTURE LIST*
G04 Aperture macros list*
%AMRoundRect*
0 Rectangle with rounded corners*
0 $1 Rounding radius*
0 $2 $3 $4 $5 $6 $7 $8 $9 X,Y pos of 4 corners*
0 Add a 4 corners polygon primitive as box body*
4,1,4,$2,$3,$4,$5,$6,$7,$8,$9,$2,$3,0*
0 Add four circle primitives for the rounded corners*
1,1,$1+$1,$2,$3*
1,1,$1+$1,$4,$5*
1,1,$1+$1,$6,$7*
1,1,$1+$1,$8,$9*
0 Add four rect primitives between the rounded corners*
20,1,$1+$1,$2,$3,$4,$5,0*
20,1,$1+$1,$4,$5,$6,$7,0*
20,1,$1+$1,$6,$7,$8,$9,0*
20,1,$1+$1,$8,$9,$2,$3,0*%
G04 Aperture macros list end*
%ADD10RoundRect,0.135000X-0.185000X0.135000X-0.185000X-0.135000X0.185000X-0.135000X0.185000X0.135000X0*%
%ADD11R,1.500000X2.400000*%
%ADD12R,1.500000X0.900000*%
%ADD13R,0.900000X1.500000*%
%ADD14C,0.600000*%
%ADD15R,3.900000X3.900000*%
%ADD16C,0.650000*%
%ADD17RoundRect,0.150000X-0.150000X-0.575000X0.150000X-0.575000X0.150000X0.575000X-0.150000X0.575000X0*%
%ADD18RoundRect,0.075000X-0.075000X-0.650000X0.075000X-0.650000X0.075000X0.650000X-0.075000X0.650000X0*%
%ADD19O,1.000000X2.100000*%
%ADD20O,1.000000X1.600000*%
%ADD21RoundRect,0.140000X-0.140000X-0.170000X0.140000X-0.170000X0.140000X0.170000X-0.140000X0.170000X0*%
%ADD22RoundRect,0.135000X0.185000X-0.135000X0.185000X0.135000X-0.185000X0.135000X-0.185000X-0.135000X0*%
%ADD23C,3.050000*%
%ADD24C,4.000000*%
%ADD25C,1.700000*%
%ADD26C,2.200000*%
%ADD27RoundRect,0.140000X0.140000X0.170000X-0.140000X0.170000X-0.140000X-0.170000X0.140000X-0.170000X0*%
%ADD28RoundRect,0.375000X-0.625000X-0.375000X0.625000X-0.375000X0.625000X0.375000X-0.625000X0.375000X0*%
%ADD29RoundRect,0.500000X-0.500000X-1.400000X0.500000X-1.400000X0.500000X1.400000X-0.500000X1.400000X0*%
%ADD30RoundRect,0.100000X-0.130000X-0.100000X0.130000X-0.100000X0.130000X0.100000X-0.130000X0.100000X0*%
%ADD31RoundRect,0.140000X0.170000X-0.140000X0.170000X0.140000X-0.170000X0.140000X-0.170000X-0.140000X0*%
%ADD32RoundRect,0.102000X-0.420000X-0.130000X0.420000X-0.130000X0.420000X0.130000X-0.420000X0.130000X0*%
%ADD33RoundRect,0.102000X-0.130000X-0.420000X0.130000X-0.420000X0.130000X0.420000X-0.130000X0.420000X0*%
%ADD34RoundRect,0.102000X-1.300000X-1.300000X1.300000X-1.300000X1.300000X1.300000X-1.300000X1.300000X0*%
G04 APERTURE END LIST*
D10*
%TO.C,R3*%
X136750000Y-59690000D03*
X136750000Y-60710000D03*
%TD*%
D11*
%TO.C,L1*%
X130845000Y-72400000D03*
X136345000Y-72400000D03*
%TD*%
D12*
%TO.C,U1*%
X138600000Y-58220000D03*
X138600000Y-59490000D03*
X138600000Y-60760000D03*
X138600000Y-62030000D03*
X138600000Y-63300000D03*
X138600000Y-64570000D03*
X138600000Y-65840000D03*
X138600000Y-67110000D03*
X138600000Y-68380000D03*
X138600000Y-69650000D03*
X138600000Y-70920000D03*
X138600000Y-72190000D03*
X138600000Y-73460000D03*
X138600000Y-74730000D03*
D13*
X140365000Y-75980000D03*
X141635000Y-75980000D03*
X142905000Y-75980000D03*
X144175000Y-75980000D03*
X145445000Y-75980000D03*
X146715000Y-75980000D03*
X147985000Y-75980000D03*
X149255000Y-75980000D03*
X150525000Y-75980000D03*
X151795000Y-75980000D03*
X153065000Y-75980000D03*
X154335000Y-75980000D03*
D12*
X156100000Y-74730000D03*
X156100000Y-73460000D03*
X156100000Y-72190000D03*
X156100000Y-70920000D03*
X156100000Y-69650000D03*
X156100000Y-68380000D03*
X156100000Y-67110000D03*
X156100000Y-65840000D03*
X156100000Y-64570000D03*
X156100000Y-63300000D03*
X156100000Y-62030000D03*
X156100000Y-60760000D03*
X156100000Y-59490000D03*
X156100000Y-58220000D03*
D14*
X144450000Y-65240000D03*
X144450000Y-66640000D03*
X145150000Y-64540000D03*
X145150000Y-65940000D03*
X145150000Y-67340000D03*
X145850000Y-65240000D03*
D15*
X145850000Y-65940000D03*
D14*
X145850000Y-66640000D03*
X146550000Y-64540000D03*
X146550000Y-65940000D03*
X146550000Y-67340000D03*
X147250000Y-65240000D03*
X147250000Y-66640000D03*
%TD*%
D16*
%TO.C,J1*%
X136690000Y-79800000D03*
X142470000Y-79800000D03*
D17*
X136330000Y-78355000D03*
X137130000Y-78355000D03*
D18*
X138330000Y-78355000D03*
X139330000Y-78355000D03*
X139830000Y-78355000D03*
X140830000Y-78355000D03*
D17*
X142030000Y-78355000D03*
X142830000Y-78355000D03*
X142830000Y-78355000D03*
X142030000Y-78355000D03*
D18*
X141330000Y-78355000D03*
X140330000Y-78355000D03*
X138830000Y-78355000D03*
X137830000Y-78355000D03*
D17*
X137130000Y-78355000D03*
X136330000Y-78355000D03*
D19*
X135260000Y-79270000D03*
D20*
X135260000Y-83450000D03*
D19*
X143900000Y-79270000D03*
D20*
X143900000Y-83450000D03*
%TD*%
D21*
%TO.C,C5*%
X131640000Y-61450000D03*
X132600000Y-61450000D03*
%TD*%
D22*
%TO.C,R4*%
X154750000Y-78550000D03*
X154750000Y-77530000D03*
%TD*%
D23*
%TO.C,SW1*%
X165600000Y-60577500D03*
D24*
X165600000Y-75817500D03*
D25*
X172420000Y-67577500D03*
D24*
X177500000Y-67577500D03*
D25*
X182580000Y-67577500D03*
D23*
X189400000Y-60577500D03*
D24*
X189400000Y-75817500D03*
D26*
X180040000Y-62497500D03*
X173690000Y-65037500D03*
%TD*%
D23*
%TO.C,SW2*%
X165600000Y-80342500D03*
D24*
X165600000Y-95582500D03*
D25*
X172420000Y-87342500D03*
D24*
X177500000Y-87342500D03*
D25*
X182580000Y-87342500D03*
D23*
X189400000Y-80342500D03*
D24*
X189400000Y-95582500D03*
D26*
X180040000Y-82262500D03*
X173690000Y-84802500D03*
%TD*%
D27*
%TO.C,C4*%
X133355000Y-68050000D03*
X132395000Y-68050000D03*
%TD*%
D28*
%TO.C,U2*%
X146450000Y-79300000D03*
X146450000Y-81600000D03*
D29*
X152750000Y-81600000D03*
D28*
X146450000Y-83900000D03*
%TD*%
D30*
%TO.C,R1*%
X136510000Y-76600000D03*
X137150000Y-76600000D03*
%TD*%
D21*
%TO.C,C7*%
X150950000Y-86900000D03*
X151910000Y-86900000D03*
%TD*%
D31*
%TO.C,C1*%
X130800000Y-68030000D03*
X130800000Y-67070000D03*
%TD*%
D21*
%TO.C,C3*%
X134585000Y-68200000D03*
X135545000Y-68200000D03*
%TD*%
D27*
%TO.C,C2*%
X132600000Y-77650000D03*
X131640000Y-77650000D03*
%TD*%
%TO.C,C6*%
X148500000Y-86900000D03*
X147540000Y-86900000D03*
%TD*%
D32*
%TO.C,U3*%
X131905000Y-63400000D03*
X131905000Y-63900000D03*
X131905000Y-64400000D03*
X131905000Y-64900000D03*
X131905000Y-65400000D03*
X131905000Y-65900000D03*
D33*
X132600000Y-66595000D03*
X133100000Y-66595000D03*
X133600000Y-66595000D03*
X134100000Y-66595000D03*
X134600000Y-66595000D03*
X135100000Y-66595000D03*
D32*
X135795000Y-65900000D03*
X135795000Y-65400000D03*
X135795000Y-64900000D03*
X135795000Y-64400000D03*
X135795000Y-63900000D03*
X135795000Y-63400000D03*
D33*
X135100000Y-62705000D03*
X134600000Y-62705000D03*
X134100000Y-62705000D03*
X133600000Y-62705000D03*
X133100000Y-62705000D03*
X132600000Y-62705000D03*
D34*
X133850000Y-64650000D03*
%TD*%
D30*
%TO.C,R2*%
X145580000Y-77500000D03*
X146220000Y-77500000D03*
%TD*%
M02*
